<?xml version="1.0" standalone="no"?>
<!DOCTYPE svg PUBLIC "-//W3C//DTD SVG 1.1//EN" "http://www.w3.org/Graphics/SVG/1.1/DTD/svg11.dtd" >
<svg>
<metadata>
Created by FontForge 20090622 at Wed Apr 26 09:08:34 2017
 By deploy user
Armasen Typefaces. 2011 - All rights reserved.
</metadata>
<defs>
<font id="CaturritaBoldDisplay" horiz-adv-x="677" >
  <font-face 
    font-family="CaturritaBoldDisplay"
    font-weight="400"
    font-stretch="normal"
    units-per-em="1000"
    panose-1="2 0 0 0 0 0 0 0 0 0"
    ascent="728"
    descent="-272"
    x-height="539"
    cap-height="749"
    bbox="-232 -322 1797 1010"
    underline-thickness="50"
    underline-position="-50"
    unicode-range="U+0020-U+FFFFF"
  />
<missing-glyph horiz-adv-x="305" 
 />
    <glyph glyph-name="ff" unicode="ff" horiz-adv-x="752" 
d="M264 14q-15 -6 -60.5 -13.5t-72.5 -7.5q-29 0 -36.5 13.5t-7.5 51.5q0 42 0.5 162t0.5 159v128q-52 0 -72 -14q-7 13 -7 22q0 17 35 17q19 0 44 -3v70q0 179 237 179q97 0 153 -35q28 19 57.5 27t85.5 8q74 0 127.5 -35t53.5 -93q0 -47 -40 -66q-18 -8 -36 -8
q-30 0 -50 16q4 42 4 66q0 100 -64 100q-25 0 -36 -12.5t-15.5 -45.5t-4.5 -106v-72q70 1 117 18q3 -11 3 -19q0 -13 -7.5 -19t-27.5 -6q-14 0 -46 3t-39 3q2 -324 20 -486q-15 -6 -61 -13.5t-73 -7.5q-30 0 -37.5 13t-7.5 50q0 42 5 162t5 159v269q0 57 -25 83.5t-62 26.5
q-44 0 -65 -33.5t-21 -125.5v-77q70 1 117 18q3 -10 3 -19q0 -13 -7.5 -19t-27.5 -6q-14 0 -46 3t-39 3q0 -212 4.5 -306t21.5 -182z" />
    <glyph glyph-name="fi" unicode="fi" horiz-adv-x="651" 
d="M88 529v78q0 87 53.5 133t175.5 46q114 0 175 -36t61 -87q0 -31 -21 -54t-59 -23q-32 0 -47.5 18.5t-20 45t-10 53t-24.5 45t-56 18.5q-40 0 -58.5 -25t-18.5 -96v-121q179 17 239 17q53 0 71 -25.5t18 -93.5q0 -251 16 -408q-54 -21 -120 -21q-21 0 -31 10.5t-10 38.5
q0 57 1 139t1 108q0 41 -1 69.5t-6.5 52t-9.5 38t-17.5 25t-23 15.5t-33.5 8t-41 3.5t-53 0.5q0 -214 5 -310.5t21 -176.5q-15 -6 -60.5 -13.5t-72.5 -7.5q-29 0 -36.5 13.5t-7.5 51.5q0 42 0.5 162t0.5 159v128q-52 0 -72 -14q-7 13 -7 22q0 17 35 17q19 0 44 -3z" />
    <glyph glyph-name="fl" unicode="fl" horiz-adv-x="690" 
d="M413 117v333q0 144 -9 216.5t-26.5 96t-52.5 23.5q-44 0 -65.5 -31.5t-21.5 -109.5v-123q72 3 117 18q3 -10 3 -19q0 -13 -7.5 -19t-27.5 -6q-14 0 -46 3t-39 3q0 -212 4.5 -306t21.5 -182q-15 -6 -60.5 -13.5t-72.5 -7.5q-30 0 -37 14t-7 62q0 28 0.5 150t0.5 160v128
q-52 0 -72 -14q-7 13 -7 22q0 17 35 17q19 0 44 -3v78q0 106 59 152.5t186 46.5q143 0 189.5 -68.5t46.5 -267.5q0 -13 -0.5 -47.5t-0.5 -108.5v-187q0 -42 6.5 -56t29.5 -14q40 0 77 21q1 -1 1 -4q0 -19 -64.5 -49t-123.5 -30q-50 0 -65.5 27.5t-15.5 94.5z" />
    <glyph glyph-name="ffi" unicode="ffi" horiz-adv-x="966" 
d="M264 14q-15 -6 -60.5 -13.5t-72.5 -7.5q-29 0 -36.5 13.5t-7.5 51.5q0 42 0.5 162t0.5 159v128q-52 0 -72 -14q-7 13 -7 22q0 17 35 17q19 0 44 -3v78q0 79 60.5 125t176.5 46q40 0 83.5 -10t69.5 -26q64 44 156 44q114 0 174 -36t60 -87q0 -31 -21 -54t-59 -23
q-32 0 -47.5 18.5t-19.5 45t-9 53t-24 45t-56 18.5q-72 0 -72 -128v-114q146 17 232 17q53 0 71 -25.5t18 -93.5q0 -251 16 -408q-54 -21 -120 -21q-21 0 -31 10.5t-10 38.5q0 57 1 139t1 108q0 97 -7 133q-4 23 -13.5 38t-21 23t-35 12t-43 5t-58.5 1q2 -313 20 -485
q-15 -6 -61 -13.5t-73 -7.5q-30 0 -37.5 13t-7.5 50q0 42 5 162t5 159v267q0 58 -24.5 85t-62.5 27q-44 0 -65 -32.5t-21 -121.5v-82q70 1 117 18q3 -10 3 -19q0 -13 -7.5 -19t-27.5 -6q-14 0 -46 3t-39 3v-79q0 -157 5 -242.5t21 -166.5z" />
    <glyph glyph-name="ffl" unicode="ffl" horiz-adv-x="1013" 
d="M264 14q-15 -6 -60.5 -13.5t-72.5 -7.5q-29 0 -36.5 13.5t-7.5 51.5q0 42 0.5 162t0.5 159v128q-52 0 -72 -14q-7 13 -7 22q0 17 35 17q19 0 44 -3v70q0 179 237 179q84 0 136 -26q57 54 195 54q142 0 189 -69t47 -267v-47q0 -35 -0.5 -109.5t-0.5 -186.5q0 -42 6.5 -56
t29.5 -14q40 0 77 21q1 -1 1 -4q0 -19 -64.5 -49t-123.5 -30q-49 0 -65 28t-16 94v333q0 143 -9.5 216t-27 96.5t-51.5 23.5q-50 0 -68.5 -38t-18.5 -144v-82q72 3 117 18q3 -11 3 -19q0 -13 -7.5 -19t-27.5 -6q-14 0 -46 3t-39 3q0 -212 4.5 -306t21.5 -182
q-15 -6 -60.5 -13.5t-72.5 -7.5q-30 0 -37 14t-7 62q0 28 0.5 150t0.5 160v269q0 57 -25 83.5t-62 26.5q-44 0 -65 -33.5t-21 -125.5v-77q70 1 117 18q3 -10 3 -19q0 -13 -7.5 -19t-27.5 -6q-14 0 -46 3t-39 3q0 -212 4.5 -306t21.5 -182z" />
    <glyph glyph-name="f_f_j" unicode="ffj" horiz-adv-x="907" 
d="M371 379v267q0 65 -14 92.5t-53 27.5q-36 0 -51 -25t-15 -96v-123q70 1 117 18q3 -10 3 -19q0 -13 -7.5 -19t-27.5 -6q-14 0 -46 3t-39 3q0 -212 4.5 -306t21.5 -182q-15 -6 -60.5 -13.5t-72.5 -7.5q-29 0 -36.5 13.5t-7.5 51.5q0 42 0.5 162t0.5 159v128q-52 0 -72 -14
q-7 13 -7 22q0 17 35 17q19 0 44 -3v78q0 90 51 134.5t166 44.5q77 0 134 -36q56 36 161 36q113 0 169.5 -36t56.5 -87q0 -31 -21 -54t-59 -23q-32 0 -46.5 18.5t-17.5 45t-7 53t-22 45t-55 18.5q-40 0 -58.5 -25t-18.5 -96v-121q7 1 39 4l55 6q24 3 62.5 5t72.5 2
q58 0 73 -20t15 -93q0 -16 -0.5 -180.5t-0.5 -328.5q0 -210 -205 -210q-81 0 -124 28.5t-43 75.5q0 65 81 65q16 0 36 -3q-1 -13 -1 -40q0 -47 13.5 -76.5t38.5 -29.5q54 0 54 151q0 57 1.5 269.5t1.5 240.5q0 30 -1 45.5t-8 30t-15 20t-30.5 10t-45.5 5t-69 0.5
q0 -214 5 -310.5t21 -176.5q-15 -6 -60.5 -13.5t-72.5 -7.5q-29 0 -36.5 13.5t-7.5 51.5q0 42 0.5 162t0.5 159z" />
    <glyph glyph-name="f_j" unicode="fj" horiz-adv-x="625" 
d="M88 529v78q0 87 53.5 133t175.5 46q113 0 169.5 -36t56.5 -87q0 -31 -21 -54t-59 -23q-32 0 -46.5 18.5t-17.5 45t-7 53t-22 45t-55 18.5q-40 0 -58.5 -25t-18.5 -96v-121q7 1 38 5l56 6q24 2 62.5 4t72.5 2q53 0 71 -25.5t18 -93.5q0 -16 -0.5 -177.5t-0.5 -325.5
q0 -120 -53 -165t-155 -45q-79 0 -121.5 28.5t-42.5 73.5q0 67 80 67q17 0 37 -3q-1 -13 -1 -40q0 -46 13.5 -76t38.5 -30q54 0 54 151q0 55 1.5 272t1.5 256q0 24 -1.5 37.5t-8.5 25.5t-16 17t-31 8.5t-45.5 4t-67.5 0.5q0 -214 5 -310.5t21 -176.5q-15 -6 -60.5 -13.5
t-72.5 -7.5q-29 0 -36.5 13.5t-7.5 51.5q0 42 0.5 162t0.5 159v128q-52 0 -72 -14q-7 13 -7 22q0 17 35 17q19 0 44 -3z" />
    <glyph glyph-name="ffb" unicode="ffb" horiz-adv-x="1286" 
d="M258 16q-15 -6 -61 -13.5t-73 -7.5q-30 0 -37.5 13t-7.5 50q0 42 5 162t5 159v129q-53 0 -73 -14q-7 13 -7 22q0 17 35 17q20 0 45 -3v69q0 87 56.5 133t162.5 46q105 0 169 -35q21 19 37 29.5t54 20.5t91 10q49 0 82.5 -6.5t59 -25t40 -44t23.5 -71t12 -98.5t3 -133
q22 49 68 85.5t115 36.5q86 0 135.5 -63t49.5 -181q0 -150 -77.5 -229t-192.5 -79q-26 0 -54 5q-24 4 -64 14.5t-59 10.5q-34 0 -65 -24q-5 0 -6 9.5t-1 52.5v387q0 174 -21.5 255t-76.5 81q-71 0 -71 -148v-116q72 3 118 18q3 -11 3 -19q0 -13 -7.5 -19t-27.5 -6
q-13 0 -44 3t-42 3q2 -326 20 -486q-15 -6 -57.5 -13.5t-68.5 -7.5q-30 0 -37.5 13t-7.5 55q0 35 2 156t2 160v220q0 86 -19 122.5t-70 36.5q-40 0 -62.5 -31.5t-22.5 -127.5v-77l7 2q57 0 109 17q3 -11 3 -19q0 -13 -7.5 -19t-27.5 -6q-13 0 -45 3t-39 3q2 -327 20 -487z
M879 400v-220q0 -165 92 -165q59 0 91.5 65t32.5 189q0 114 -26.5 155.5t-73.5 41.5q-67 0 -116 -66z" />
    <glyph glyph-name="fh" unicode="fh" horiz-adv-x="959" 
d="M88 529v78q0 92 57.5 145.5t175.5 53.5q65 0 108.5 -14.5t71 -40.5t41.5 -75.5t19 -106.5t5 -147q27 54 74.5 89t113.5 35q70 0 93.5 -41t23.5 -129q0 -21 0.5 -92t0.5 -119q0 -65 5.5 -85.5t25.5 -20.5q31 0 65 12q3 -1 3 -5q0 -17 -48.5 -44t-100.5 -27q-55 0 -77.5 26
t-22.5 78q0 58 -0.5 150.5t-0.5 106.5q0 52 -12 74t-41 22q-56 0 -102 -55q0 -165 4 -236t21 -147q-15 -6 -60.5 -13.5t-75.5 -7.5q-21 0 -31 10.5t-10 38.5q0 66 0.5 236.5t0.5 180.5q0 138 -11 210t-31 94.5t-57 22.5q-40 0 -59 -34.5t-19 -113.5v-116q72 3 117 18
q3 -10 3 -19q0 -13 -7.5 -19t-27.5 -6q-14 0 -46 3t-39 3q0 -212 4.5 -306t21.5 -182q-15 -6 -60.5 -13.5t-72.5 -7.5q-29 0 -36.5 13.5t-7.5 51.5q0 42 0.5 162t0.5 159v128q-52 0 -72 -14q-7 13 -7 22q0 17 35 17q19 0 44 -3z" />
    <glyph glyph-name=".notdef" horiz-adv-x="305" 
 />
    <glyph glyph-name=".null" unicode="&#xfff59;" horiz-adv-x="0" 
 />
    <glyph glyph-name="nonmarkingreturn" horiz-adv-x="333" 
 />
    <glyph glyph-name="space" unicode=" " horiz-adv-x="228" 
 />
    <glyph glyph-name="exclam" unicode="!" horiz-adv-x="223" 
d="M53 715q25 35 82 35q35 0 59 -21t24 -65q0 -51 -48.5 -153t-48.5 -155q0 -65 50 -119q-18 -31 -52 -31q-23 0 -38.5 19.5t-15.5 58.5q0 38 13.5 120t13.5 140q0 107 -39 171zM117 135q30 0 45.5 -21t15.5 -50t-18.5 -49.5t-51.5 -20.5q-28 0 -45.5 18.5t-17.5 44.5
q0 32 21 55t51 23z" />
    <glyph glyph-name="quotedbl" unicode="&#x22;" horiz-adv-x="444" 
d="M156 547q-70 -15 -100.5 11.5t-30.5 64.5t24.5 64.5t60.5 26.5q38 0 62 -22t24 -62q0 -41 -25.5 -95t-61 -92t-63.5 -38q-21 0 -30.5 10.5t-9.5 23.5q57 0 103.5 40t46.5 68zM354 547q-70 -15 -100.5 11.5t-30.5 64.5t24.5 64.5t60.5 26.5q38 0 62 -22t24 -62
q0 -41 -25.5 -95t-61 -92t-63.5 -38q-21 0 -30.5 10.5t-9.5 23.5q57 0 103.5 40t46.5 68z" />
    <glyph glyph-name="numbersign" unicode="#" horiz-adv-x="736" 
d="M674 445q31 0 31 -23q0 -15 -12 -27q-29 4 -154 4q-45 -119 -55 -153q60 1 190 1q31 0 31 -23q0 -15 -12 -27q-31 4 -164 4h-56q-8 -42 -8 -77q0 -66 60 -102q-8 -18 -29.5 -29t-45.5 -11q-32 0 -53.5 19.5t-21.5 58.5q0 65 24 140q-92 0 -136 -1q-8 -40 -8 -75
q0 -66 60 -102q-8 -18 -29.5 -29t-45.5 -11q-32 0 -53.5 19.5t-21.5 58.5q0 64 24 139q-57 -1 -106 -1q-31 0 -31 23q0 14 11 25q46 -2 113 -2h29q46 124 54 153q-40 0 -81.5 -0.5t-67.5 -0.5h-27q-31 0 -31 23q0 14 11 25q46 -2 113 -2h93q5 33 5 61q0 57 -44 101
q27 31 71 31q29 0 50.5 -16.5t21.5 -45.5q0 -49 -28 -130q20 0 65 0.5t69 0.5q5 32 5 59q0 57 -44 101q27 31 71 31q29 0 50.5 -16.5t21.5 -45.5q0 -47 -27 -128h118zM274 244q39 0 141 2q46 124 54 153q-21 0 -68 -0.5t-72 -0.5q-44 -116 -55 -154z" />
    <glyph glyph-name="dollar" unicode="$" horiz-adv-x="659" 
d="M335 -91q-25 0 -32 14t-7 63v9q-118 4 -185 52t-67 110q0 49 28 74.5t67 25.5q47 0 75 -30q-10 -38 -10 -70q0 -54 23 -93t69 -47q0 34 2 149t2 169q-14 8 -46 24.5t-48 25.5t-42 26t-39.5 31t-29 33t-22 41.5t-6.5 47.5q0 75 60 123.5t160 58.5q-10 72 -25 82
q28 22 50 22q30 0 39.5 -17.5t10.5 -84.5q96 -5 161.5 -49.5t65.5 -102.5q0 -34 -22.5 -53.5t-54.5 -19.5q-45 0 -73 28q0 80 -17 122.5t-60 51.5q0 -42 -1 -135t-1 -125q10 -6 42 -23l45 -26l40.5 -26t40.5 -30t32.5 -32t28.5 -38t16 -41.5t7 -49.5q0 -82 -67 -134.5
t-170 -65.5q6 -60 13 -69q-26 -21 -53 -21zM445 156q0 81 -84 141q3 -163 11 -269q33 16 53 50.5t20 77.5zM300 503q-2 133 -10 215q-28 -14 -43 -44.5t-15 -67.5q0 -54 68 -103z" />
    <glyph glyph-name="percent" unicode="%" horiz-adv-x="666" 
d="M166 340q-69 1 -114.5 40t-45.5 111t46 118.5t123 46.5q69 0 114.5 -39t45.5 -112q0 -72 -46 -118.5t-123 -46.5zM171 361q64 0 64 134q0 141 -65 141q-64 0 -64 -134q0 -141 65 -141zM491 3q-69 1 -114.5 40t-45.5 111t46 118.5t123 46.5q70 0 115 -39t45 -112
q0 -72 -46 -118.5t-123 -46.5zM496 24q64 0 64 134q0 141 -65 141q-64 0 -64 -134q0 -141 65 -141zM164 77q0 45 26 95t63 96l74 90q37 46 63 95.5t26 92.5q0 57 -44 101q27 31 71 31q29 0 50.5 -16.5t21.5 -45.5q0 -42 -41 -106t-89.5 -120.5t-89.5 -126t-41 -122.5
q0 -66 60 -102q-8 -18 -29.5 -29t-45.5 -11q-32 0 -53.5 19.5t-21.5 58.5z" />
    <glyph glyph-name="ampersand" unicode="&#x26;" horiz-adv-x="889" 
d="M450 523q6 27 6 50q0 54 -27.5 86.5t-64.5 32.5q-42 0 -71.5 -43.5t-29.5 -111.5q0 -102 75 -230.5t175 -221.5q95 81 95 170q0 62 -54 107q7 19 25 29.5t40 10.5q32 0 54.5 -22.5t22.5 -65.5q0 -60 -43 -130t-114 -122q87 -72 144 -72q37 0 63 15.5t38 40t17 44t6 38.5
q14 7 28 7q21 0 34.5 -14.5t13.5 -40.5q0 -37 -32 -63t-74.5 -36.5t-87.5 -10.5q-101 0 -207 57q-90 -46 -186 -46q-112 0 -186.5 56.5t-74.5 141.5q0 56 36 103.5t111 78.5q-27 73 -27 136q0 106 64.5 160t157.5 54q83 0 139 -40t56 -91q0 -31 -21.5 -49t-52.5 -18
q-21 0 -48 10zM327 6q60 0 127 38q-85 51 -154.5 128.5t-107.5 164.5q-39 -52 -39 -125q0 -83 48 -144.5t126 -61.5z" />
    <glyph glyph-name="quotesingle" unicode="'" horiz-adv-x="246" 
d="M156 606q-70 -15 -100.5 11.5t-30.5 64.5t24.5 64.5t60.5 26.5q38 0 62 -22t24 -62q0 -41 -25.5 -95t-61 -92t-63.5 -38q-21 0 -30.5 10.5t-9.5 23.5q57 0 103.5 40t46.5 68z" />
    <glyph glyph-name="parenleft" unicode="(" horiz-adv-x="336" 
d="M45 244q0 85 26.5 172t65 151t79.5 115.5t70.5 78t37.5 26.5q7 0 7 -5q-73 -83 -106 -210.5t-33 -327.5t33 -327.5t106 -210.5q0 -5 -7 -5q-8 0 -37.5 26.5t-70.5 78t-79.5 115.5t-65 151t-26.5 172z" />
    <glyph glyph-name="parenright" unicode=")" horiz-adv-x="336" 
d="M291 244q0 -85 -26.5 -172t-65 -151t-79.5 -115.5t-70.5 -78t-37.5 -26.5q-7 0 -7 5q73 83 106 210.5t33 327.5t-33 327.5t-106 210.5q0 5 7 5q8 0 37.5 -26.5t70.5 -78t79.5 -115.5t65 -151t26.5 -172z" />
    <glyph glyph-name="asterisk" unicode="*" horiz-adv-x="448" 
d="M410 647q0 -42 -26.5 -61.5t-65.5 -19.5q-25 0 -47 7.5t-29 18.5q49 1 79 41.5t39 78.5q23 0 36.5 -18t13.5 -47zM310 431q-40 0 -63 36t-23 76q0 21 8 32q26 -70 132 -70q16 0 21 1q3 -6 3 -16q0 -26 -25 -42.5t-53 -16.5zM96 479q0 38 38 69.5t69 31.5q6 0 9 -1
q-33 -29 -33 -80q0 -44 22 -88q-14 -11 -36 -11q-32 0 -50.5 22.5t-18.5 56.5zM102 674q36 0 70.5 -26t36.5 -49q-21 11 -45 11q-34 0 -66.5 -19.5t-50.5 -39.5q-25 16 -25 51q0 27 18.5 49.5t61.5 22.5zM265 700q0 -30 -12 -57t-27 -34q1 5 1 14q0 44 -34 76t-67 45
q5 40 55 40q41 0 62.5 -22t21.5 -62z" />
    <glyph glyph-name="plus" unicode="+" horiz-adv-x="582" 
d="M554 239q-126 13 -214 17q1 -49 6.5 -92.5t15 -90.5t9.5 -48q-28 -28 -77 -28t-49 111q0 80 17 148q-49 -1 -92.5 -5.5t-68 -8.5t-29.5 -4q-31 0 -31 30q0 19 11 30q4 0 26.5 -5.5t70.5 -11t117 -6.5q0 50 -6.5 97.5t-16.5 91t-11 51.5q28 28 77 28q26 0 38 -32
t10.5 -79.5t-6 -87t-10.5 -68.5q46 2 103 12.5t90 10.5q32 0 32 -29q0 -19 -12 -31z" />
    <glyph glyph-name="comma" unicode="," horiz-adv-x="296" 
d="M215 -23q-70 -15 -100.5 11.5t-30.5 64.5t24.5 64.5t60.5 26.5q38 0 62 -22t24 -62q0 -41 -25.5 -95t-61 -92t-63.5 -38q-21 0 -30.5 10.5t-9.5 23.5q57 0 103.5 40t46.5 68z" />
    <glyph glyph-name="hyphen" unicode="-" horiz-adv-x="271" 
d="M236 242q-31 4 -87 4q-33 0 -68 -1.5t-36 -1.5q-35 0 -35 29q0 21 15 41q46 -2 65 -2q16 0 52 1.5t77 1.5q32 0 32 -31q0 -23 -15 -41z" />
    <glyph glyph-name="period" unicode="." horiz-adv-x="276" 
d="M156 169q79 0 79 -76q0 -44 -24 -71t-69 -27q-77 0 -77 77q0 42 25 69.5t66 27.5z" />
    <glyph glyph-name="slash" unicode="/" horiz-adv-x="357" 
d="M3 77q0 45 26 95t63 96l74 90q37 46 63 95.5t26 92.5q0 57 -44 101q27 31 71 31q29 0 50.5 -16.5t21.5 -45.5q0 -42 -41 -106t-89.5 -120.5t-89.5 -126t-41 -122.5q0 -66 60 -102q-8 -18 -29.5 -29t-45.5 -11q-32 0 -53.5 19.5t-21.5 58.5z" />
    <glyph glyph-name="zero.oldstyle" unicode="0" horiz-adv-x="695" 
d="M50 343q0 180 84 282.5t215 102.5q145 0 220.5 -93.5t75.5 -256.5q0 -179 -84 -280.5t-215 -101.5q-145 0 -220.5 92.5t-75.5 254.5zM490 337q-1 182 -34.5 275.5t-114.5 93.5q-65 0 -101 -82.5t-36 -243.5q0 -179 34 -270t116 -91q64 0 100 80.5t36 237.5z" />
    <glyph glyph-name="one.oldstyle" unicode="1" horiz-adv-x="322" 
d="M230 711l-3 -314q0 -160 4 -232.5t21 -148.5q-54 -21 -119 -21q-21 0 -31 10.5t-10 38.5v561q-39 -38 -69 -38q-16 0 -16 25q42 17 91 50l80 58q31 23 44 23q8 0 8 -12z" />
    <glyph glyph-name="two.oldstyle" unicode="2" horiz-adv-x="584" 
d="M494 170q10 0 18.5 -3t17.5 -16t9 -34q0 -48 -34 -87t-101 -39q-58 0 -133.5 29.5t-107.5 29.5q-56 0 -122 -56q-9 0 -15 8.5t-6 15.5q0 10 35 44l83 83q49 50 98 111t83.5 143.5t34.5 164.5q0 69 -23 105.5t-57 36.5q-31 0 -56 -26t-25 -68q0 -26 14 -63
q-37 -37 -85 -37q-32 0 -54 19.5t-22 53.5q0 45 41.5 79t94 49t102.5 15q224 0 224 -158q0 -60 -31.5 -124.5t-83 -121t-98.5 -99.5t-97.5 -83.5t-60.5 -50.5q40 26 100 26q27 0 76.5 -7t70.5 -7q29 0 44.5 2.5t34.5 18t31 46.5z" />
    <glyph glyph-name="three.oldstyle" unicode="3" horiz-adv-x="586" 
d="M489 604q0 -43 -28 -82t-72 -66t-76.5 -42t-63.5 -26q24 4 54 4q62 0 113 -13.5t88 -50.5t37 -93q0 -103 -95 -172t-244 -69q-71 0 -126.5 29t-55.5 67q0 40 46 53q1 -12 4 -23.5t12.5 -33t24 -36.5t42 -27t63.5 -12q85 0 135 58t50 137q0 67 -38 111.5t-110 44.5
q-15 0 -32 -3t-18 -3q-9 0 -9 18q78 43 123 110t45 122q0 46 -21.5 72t-63.5 26q-34 0 -56 -18t-22 -49t25 -71q-34 -38 -82 -38q-33 0 -57 19t-24 50q0 54 71.5 92t152.5 38q92 0 150 -28.5t58 -94.5z" />
    <glyph glyph-name="four.oldstyle" unicode="4" horiz-adv-x="595" 
d="M20 219q3 9 30.5 36.5t63 68.5t71 96t60 136.5t24.5 171.5q75 0 103.5 -20.5t28.5 -60.5q0 -54 -50 -144t-98 -153t-97 -120q15 0 63 -1t81 -1q6 112 26.5 147.5t72.5 35.5q59 0 81 -11q-40 0 -40 -172q59 3 97 30q13 -9 13 -24q0 -33 -90 -33h-18q10 -128 20 -185
q-17 -6 -55 -13.5t-68 -7.5q-21 0 -31 10.5t-10 38.5q0 125 1 157q-16 0 -61.5 2.5t-74.5 2.5q-84 0 -128 -11q-15 0 -15 24z" />
    <glyph glyph-name="five.oldstyle" unicode="5" horiz-adv-x="588" 
d="M224 683l-37 -233q9 5 46.5 10.5t77.5 5.5q99 0 165.5 -47t66.5 -144q0 -67 -30.5 -122t-80.5 -88.5t-110 -51.5t-123 -18q-81 0 -136.5 26t-55.5 70q0 16 13 31.5t33 23.5q11 -68 47.5 -98.5t101.5 -30.5q88 0 143.5 68t55.5 162q0 83 -46 126t-134 43q-48 0 -93 -16
q-4 0 -7 6t-4 12l-1 5l52 300q92 0 184 17t151 41q26 -23 26 -61q0 -25 -18 -45t-57 -20q-61 0 -134.5 10t-95.5 18z" />
    <glyph glyph-name="six.oldstyle" unicode="6" horiz-adv-x="600" 
d="M379 412q72 0 129 -50.5t57 -133.5q0 -76 -40.5 -131t-98.5 -78.5t-124 -23.5q-65 0 -121 27.5t-93.5 90t-37.5 150.5q0 96 40 178t97.5 133t124 87.5t117 51.5t78.5 15q20 0 20 -9q-348 -88 -348 -465q0 -106 31.5 -171.5t96.5 -65.5q56 0 91 50.5t35 129.5
q0 80 -34.5 119.5t-89.5 39.5q-45 0 -97 -27q-1 1 -1 3q0 21 52 50.5t116 29.5z" />
    <glyph glyph-name="seven.oldstyle" unicode="7" horiz-adv-x="487" 
d="M396 648q-55 -22 -110 -22q-44 0 -115 16t-88 16q-28 0 -44.5 -20t-17.5 -45q-14 2 -14 33q0 38 25.5 71t76.5 33q27 0 107 -9.5t116 -9.5q55 0 97 18q13 0 13 -21q0 -27 -34 -99l-74 -153q-40 -81 -73.5 -193t-33.5 -207q0 -24 3 -50q-30 -11 -55 -11q-32 0 -52 16.5
t-20 48.5q0 59 40 153.5t86 168.5l101 162q56 87 66 104z" />
    <glyph glyph-name="eight.oldstyle" unicode="8" horiz-adv-x="580" 
d="M186 339q-33 -23 -51 -65.5t-18 -91.5q0 -69 37.5 -117t109.5 -48q64 0 98 38.5t34 97.5q0 44 -26 79.5t-65 57.5l-84 47q-46 26 -85 50.5t-65 66t-26 93.5q0 84 68.5 132.5t175.5 48.5q93 0 144.5 -44.5t51.5 -104.5q0 -70 -46 -110t-111 -40q33 22 51 63t18 83
q0 57 -30.5 94t-85.5 37q-50 0 -79.5 -33.5t-29.5 -87.5q0 -37 20 -67t52 -50.5t71 -39.5l78 -39q38 -21 70 -45.5t52 -61.5t20 -83q0 -88 -78 -146t-204 -58q-109 0 -171 54t-62 126q0 60 43.5 106.5t122.5 57.5z" />
    <glyph glyph-name="nine.oldstyle" unicode="9" horiz-adv-x="600" 
d="M221 311q-72 0 -129 50.5t-57 133.5q0 76 40.5 131t98.5 78.5t124 23.5q65 0 121 -27.5t93.5 -90t37.5 -150.5q0 -96 -40 -178t-97.5 -133t-124 -87.5t-117 -51.5t-78.5 -15q-20 0 -20 9q348 88 348 465q0 106 -31.5 171.5t-96.5 65.5q-56 0 -91 -50.5t-35 -129.5
q0 -80 34.5 -119.5t89.5 -39.5q45 0 97 27q1 -1 1 -3q0 -21 -52 -50.5t-116 -29.5z" />
    <glyph glyph-name="colon" unicode=":" horiz-adv-x="276" 
d="M156 207q79 0 79 -76q0 -44 -24 -71t-69 -27q-77 0 -77 77q0 42 25 69.5t66 27.5zM156 575q79 0 79 -76q0 -44 -24 -71t-69 -27q-77 0 -77 77q0 42 25 69.5t66 27.5z" />
    <glyph glyph-name="semicolon" unicode=";" horiz-adv-x="305" 
d="M156 576q79 0 79 -76q0 -44 -24 -71t-69 -27q-77 0 -77 77q0 42 25 69.5t66 27.5zM224 74q-70 -15 -100.5 11.5t-30.5 64.5t24.5 64.5t60.5 26.5q38 0 62 -22t24 -62q0 -41 -25.5 -95t-61 -92t-63.5 -38q-21 0 -30.5 10.5t-9.5 23.5q57 0 103.5 40t46.5 68z" />
    <glyph glyph-name="less" unicode="&#x3c;" horiz-adv-x="532" 
d="M118 312l292 -128q69 -29 85.5 -38.5t16.5 -22.5q0 -30 -32 -48q-29 12 -213 97.5t-257 113.5q0 32 6 46t29 24l138 63l204 90q84 36 101 36q23 0 23 -63q-46 -16 -175 -72z" />
    <glyph glyph-name="equal" unicode="=" horiz-adv-x="688" 
d="M584 353q-31 4 -158 4q-61 0 -137 -0.5t-128 -1.5t-57 -1q-32 0 -32 28q0 17 15 42q46 -2 116 -2t201.5 1.5t162.5 1.5q32 0 32 -29q0 -18 -15 -43zM584 163q-31 4 -158 4q-61 0 -137 -0.5t-128 -1.5t-57 -1q-32 0 -32 28q0 17 15 42q46 -2 116 -2t201.5 1.5t162.5 1.5
q32 0 32 -29q0 -18 -15 -43z" />
    <glyph glyph-name="greater" unicode="&#x3e;" horiz-adv-x="532" 
d="M404 312l-217 97q-130 57 -176 73q0 63 23 63q17 0 102 -36l204 -91l137 -62q23 -10 29 -24t6 -46q-73 -28 -257 -113.5t-213 -97.5q-32 18 -32 48q0 13 15.5 22t86.5 39z" />
    <glyph glyph-name="question" unicode="?" horiz-adv-x="543" 
d="M353 252q0 -33 -18.5 -51t-45.5 -18q-33 0 -58 27.5t-25 77.5q0 40 18.5 73.5t44.5 58.5l53 51q27 26 45.5 64.5t18.5 86.5q0 137 -106 137q-46 0 -73 -29.5t-27 -75.5q0 -42 25 -86q-34 -27 -75 -27q-37 0 -61 22t-24 61q0 70 79 112.5t177 42.5q95 0 156 -41t61 -114
q0 -59 -29 -100.5t-70.5 -64t-83 -41t-70.5 -44t-29 -60.5q0 -33 22 -51.5t54 -18.5q22 0 41 8zM293 139q33 0 52.5 -21t19.5 -51q0 -34 -21 -57t-57 -23q-34 0 -53 21t-19 51q0 35 22 57.5t56 22.5z" />
    <glyph glyph-name="at" unicode="@" horiz-adv-x="838" 
d="M557 447l3 -225q0 -68 29 -68q54 0 78.5 62t24.5 161q0 115 -70 188.5t-191 73.5q-80 0 -147.5 -52.5t-103 -127.5t-35.5 -149q0 -335 236 -335q26 0 48 11.5t34 26t21 35.5t12 31t5 21q47 -7 47 -51q0 -39 -52 -67t-133 -28q-133 0 -223 88t-90 240q0 103 57.5 191
t150 137.5t194.5 49.5q139 0 237.5 -77.5t98.5 -199.5q0 -115 -67 -181.5t-144 -66.5q-101 0 -113 81q-12 -29 -41 -54t-76 -25q-51 0 -81.5 38t-30.5 118q0 90 44.5 142.5t122.5 52.5q25 0 58 -9t45 -9q23 0 48 18q4 0 4 -41zM390 196q48 0 74 33v133q0 57 -13.5 85.5
t-50.5 28.5q-68 0 -68 -160q0 -120 58 -120z" />
    <glyph glyph-name="A" unicode="A" horiz-adv-x="673" 
d="M546 -5q-59 0 -94.5 53.5t-71.5 173.5h-269q-34 -92 -34 -113q0 -51 27 -94q-22 -20 -54 -20q-20 0 -33.5 10t-13.5 30q0 32 38.5 122.5t84 186.5t84 203t38.5 168q0 9 -2 25q9 9 37 9q46 0 79.5 -45t59.5 -124l55 -167q28 -88 78.5 -193.5t115.5 -184.5
q-48 -40 -125 -40zM264 620q-4 -24 -27 -84l-62 -156l-56 -138h255l-29 102l-39 139q-20 70 -42 137z" />
    <glyph glyph-name="B" unicode="B" horiz-adv-x="635" 
d="M247 390q0 -57 0.5 -209.5t0.5 -160.5q24 -6 52 -6q73 0 115.5 51.5t42.5 150.5q0 97 -48 135.5t-163 38.5zM248 410q159 0 159 169q0 150 -116 150q-28 0 -44 -8q0 -43 0.5 -160t0.5 -151zM82 36q18 24 18 322q0 339 -36 356q16 15 89.5 25t141.5 10q121 0 191.5 -40
t70.5 -123q0 -77 -59 -122t-157 -54q47 -2 82.5 -7t73.5 -18t62.5 -32.5t40.5 -52.5t16 -78q0 -78 -47 -131t-115.5 -74.5t-153.5 -21.5q-64 0 -130 11.5t-88 29.5z" />
    <glyph glyph-name="C" unicode="C" 
d="M414 47q71 0 138.5 33.5t101.5 73.5q4 0 4 -7q0 -10 -19.5 -34t-52 -51t-85 -47t-109.5 -20q-164 0 -256 93t-92 264q0 96 30.5 173.5t81 125t111.5 73t126 25.5q121 0 189 -48t68 -109q0 -34 -21.5 -50.5t-50.5 -16.5q-44 0 -75 23q6 27 6 55q0 56 -28.5 91t-88.5 35
q-197 0 -197 -349q0 -149 52.5 -241t166.5 -92z" />
    <glyph glyph-name="D" unicode="D" horiz-adv-x="738" 
d="M82 45q18 26 18 319q0 320 -36 339q16 15 95 30.5t163 15.5q192 0 284.5 -89.5t92.5 -272.5q0 -193 -102.5 -292.5t-281.5 -99.5q-76 0 -140 15.5t-93 34.5zM242 30q16 -15 64 -15q112 0 177.5 89.5t65.5 279.5q0 99 -18.5 168.5t-53 106.5t-76 53t-94.5 16q-41 0 -60 -6
q0 -152 -1.5 -423.5t-3.5 -268.5z" />
    <glyph glyph-name="E" unicode="E" horiz-adv-x="571" 
d="M207 744h276q34 0 49 -15.5t15 -38.5q0 -28 -14 -42q-92 76 -285 76v-332q158 0 235 18q4 -8 4 -19q0 -25 -36 -25q-11 0 -95 3t-108 3v-357q104 0 171.5 19t123.5 58q14 -14 14 -42q0 -23 -15 -38.5t-49 -15.5l-278 -1q-92 0 -128 12q15 147 15 337q0 366 -38 373
q7 10 44 18.5t99 8.5z" />
    <glyph glyph-name="F" unicode="F" horiz-adv-x="564" 
d="M101 414q0 115 -8.5 207.5t-28.5 95.5q8 11 46.5 19t88.5 8h287q34 0 49 -15.5t15 -38.5q0 -28 -14 -42q-92 76 -286 76q0 -43 -1 -99.5t-1 -90.5v-135q160 0 238 18q4 -8 4 -19q0 -25 -36 -25q-11 0 -97 3t-109 3q4 -296 34 -356q-47 -28 -126 -28q-35 0 -48 19t-13 72
q0 17 3 124t3 204z" />
    <glyph glyph-name="G" unicode="G" horiz-adv-x="695" 
d="M195 372q0 -185 46 -270t145 -85q79 0 118.5 58t39.5 142q0 63 -23 83.5t-79 10.5q-5 6 18 18q58 32 134 37l18 1q20 0 32.5 -9t18 -28.5t7 -38t1.5 -49.5q0 -64 -28 -114t-72.5 -77.5t-92.5 -41.5t-96 -14q-164 0 -251 97.5t-87 259.5q0 96 30 173.5t80 125t112 73
t129 25.5q121 0 188 -47.5t67 -109.5q0 -67 -62 -67q-21 0 -48 8t-37 15q8 44 4 84.5t-34 68.5t-81 28q-197 0 -197 -357z" />
    <glyph glyph-name="H" unicode="H" horiz-adv-x="757" 
d="M184 749q42 0 53 -18t11 -93q0 -43 -1 -110.5t-1 -101.5v-66h266q-2 346 -36 352q10 13 47 25t72 12q42 0 54 -18t12 -93q0 -43 -0.5 -110.5t-0.5 -101.5q0 -341 33 -403q-16 -10 -53 -19t-76 -9q-35 0 -46.5 21.5t-11.5 69.5q0 17 2.5 102t3.5 152h-266q5 -265 33 -317
q-47 -28 -130 -28q-34 0 -45.5 22t-11.5 70q0 11 3 94t3 177q0 348 -34 354q10 13 47.5 25t72.5 12z" />
    <glyph glyph-name="I" unicode="I" horiz-adv-x="342" 
d="M183 749q41 0 52 -18t11 -93q0 -43 -0.5 -110t-0.5 -101q0 -347 33 -404q-16 -10 -53 -19t-73 -9q-38 0 -49.5 21t-11.5 72q0 12 3 98.5t3 172.5q0 347 -33 353q10 13 47 25t72 12z" />
    <glyph glyph-name="J" unicode="J" horiz-adv-x="464" 
d="M399 638q0 -44 0.5 -197t0.5 -160q0 -156 -54 -221t-170 -65q-71 0 -122.5 33.5t-51.5 89.5q0 41 24 61.5t56 17t57 -26.5q-36 -154 47 -154q22 0 34 8.5t19.5 41t9.5 84t2 150.5q0 405 -34 412q11 13 44.5 25t79.5 12q34 0 46 -19t12 -92z" />
    <glyph glyph-name="K" unicode="K" horiz-adv-x="740" 
d="M182 749q41 0 51 -17.5t10 -93.5q0 -43 0.5 -110t0.5 -101v-44q139 64 209.5 135.5t70.5 131.5q0 43 -34 67q18 32 63 32q25 0 43 -14.5t18 -41.5q0 -58 -72.5 -131t-188.5 -139q46 -3 84 -43t65 -96l55 -110q27 -54 63 -92t79 -38q18 0 38 7q1 -1 1 -3q0 -9 -18 -24.5
t-56 -29t-83 -13.5q-51 0 -90.5 26t-62.5 65t-45 86.5t-39 89.5t-43 73.5t-57 39.5q2 -274 33 -338q-47 -28 -125 -28q-37 0 -49.5 19.5t-12.5 72.5q0 13 3 99.5t3 172.5q0 347 -32 353q10 13 46.5 25t71.5 12zM244 369v-1l3 2q-1 -1 -3 -1zM247 370l4 2q-2 -2 -4 -2z" />
    <glyph glyph-name="L" unicode="L" horiz-adv-x="555" 
d="M246 638l-2 -623q104 0 171.5 19t123.5 58q14 -14 14 -42q0 -23 -15 -38.5t-49 -15.5l-278 -1q-92 0 -128 12q15 147 15 337q0 362 -34 368q10 13 47 25t72 12q41 0 52 -18t11 -93z" />
    <glyph glyph-name="M" unicode="M" horiz-adv-x="946" 
d="M882 23q-17 -10 -53 -19t-70 -9q-33 0 -48 14.5t-15 56.5v132q0 373 -3 484q-22 -15 -67.5 -166.5t-89 -316.5t-52.5 -187q-24 -14 -56 -14q-46 0 -84.5 61.5t-67 154t-54.5 188.5t-59 179t-68 111q22 -362 35 -495.5t35 -189.5q-26 -12 -50 -12q-27 0 -37 21.5t-10 70.5
q0 26 6.5 147.5t6.5 203.5q0 90 -5 184t-13 98q12 12 51.5 20.5t68.5 8.5q53 0 89.5 -43t58.5 -117t39.5 -154.5t45.5 -174.5t63 -157q24 83 47 174l38 148l30 116q16 60 29.5 94t31 62.5t40 40t51.5 11.5q30 0 67.5 -9.5t47.5 -19.5q-13 -24 -13 -220q0 -414 34 -477z" />
    <glyph glyph-name="N" unicode="N" horiz-adv-x="742" 
d="M567 723q2 9 20.5 18t38.5 9q53 0 53 -59q0 -542 -19 -680q-24 -16 -69 -16q-46 0 -97 47t-94 118.5t-88.5 158t-82 162.5t-72.5 135.5t-61 75.5q21 -347 36 -486t37 -196q-31 -12 -51 -12q-26 0 -36 22t-10 71q0 25 6.5 144t6.5 216q0 72 -6.5 167t-14.5 102
q12 11 49 20t71 9q47 0 86 -44t74 -121l72 -163q38 -85 99 -186t134 -175q5 138 5 223q0 171 -19.5 271.5t-67.5 168.5z" />
    <glyph glyph-name="O" unicode="O" horiz-adv-x="796" 
d="M398 729q-50 0 -87 -21t-58.5 -54.5t-34.5 -83.5t-17.5 -99t-4.5 -110q0 -153 50 -249.5t152 -96.5q50 0 87 20t58.5 51.5t34.5 79.5t17.5 96t4.5 109q0 99 -19.5 177t-66.5 129.5t-116 51.5zM398 -5q-162 0 -258 89.5t-96 258.5q0 177 99 291.5t255 114.5
q160 0 257 -94.5t97 -265.5q0 -176 -98.5 -285t-255.5 -109z" />
    <glyph glyph-name="P" unicode="P" horiz-adv-x="593" 
d="M248 732q-1 -64 -1 -199q0 -442 34 -510q-48 -28 -128 -28q-31 0 -45 18t-14 67q0 19 3 127.5t3 205.5q0 100 -8.5 202.5t-27.5 110.5q15 15 88.5 25t149.5 10q289 0 289 -175q0 -95 -78.5 -163.5t-184.5 -68.5q-45 0 -45 11q57 0 93.5 32.5t50 77t13.5 100.5
q0 91 -35.5 128.5t-101.5 37.5q-42 0 -55 -9z" />
    <glyph glyph-name="Q" unicode="Q" horiz-adv-x="796" 
d="M398 -5h-2q-24 -1 -60.5 -10.5t-72.5 -32t-36 -50.5q18 2 48 2q62 0 138.5 -16.5t98.5 -16.5q45 0 72.5 29t30.5 72q35 -6 52.5 -22.5t17.5 -38.5q0 -34 -37 -61t-98 -27q-67 0 -156.5 30t-156.5 30q-50 0 -105 -11q0 35 34 63.5t75.5 42.5t90.5 22q-134 17 -211 104.5
t-77 238.5q0 177 99 291.5t255 114.5q160 0 257 -94.5t97 -265.5q0 -175 -97.5 -283.5t-253.5 -110.5h-3zM398 729q-50 0 -87 -21t-58.5 -54.5t-34.5 -83.5t-17.5 -99t-4.5 -110q0 -153 50 -249.5t152 -96.5q50 0 87 20t58.5 51.5t34.5 79.5t17.5 96t4.5 109q0 99 -19.5 177
t-66.5 129.5t-116 51.5z" />
    <glyph glyph-name="R" unicode="R" horiz-adv-x="743" 
d="M248 732q-1 -64 -1 -199q0 -442 34 -510q-48 -28 -124 -28q-36 0 -49.5 18t-13.5 71q0 17 3 124.5t3 204.5q0 100 -8.5 202.5t-27.5 110.5q15 15 88.5 25t149.5 10q289 0 289 -175q0 -68 -41 -121.5t-109 -79.5q28 -14 53.5 -54.5t45.5 -87.5l42 -93q21 -46 51.5 -76
t67.5 -30q19 0 39 7q1 -1 1 -3q0 -9 -17 -23.5t-54 -28t-82 -13.5q-51 0 -88.5 33t-60.5 83.5t-42.5 103t-44.5 100t-55 66.5q-9 3 -9 8q152 0 152 198q0 91 -35.5 128.5t-101.5 37.5q-42 0 -55 -9z" />
    <glyph glyph-name="S" unicode="S" horiz-adv-x="659" 
d="M445 156q0 57 -39 100.5t-95 73.5l-111 58q-55 30 -94 74t-39 102q0 85 75 135t197 50q105 0 177.5 -45.5t72.5 -107.5q0 -34 -22.5 -53.5t-54.5 -19.5q-45 0 -73 28q0 92 -23 134.5t-82 42.5q-47 0 -74.5 -35.5t-27.5 -86.5q0 -31 21 -59t54.5 -50t74 -43.5t81 -46.5
t74 -53.5t54.5 -68t21 -86.5q0 -63 -42.5 -110.5t-109 -70.5t-144.5 -23q-127 0 -199.5 48.5t-72.5 113.5q0 49 28 74.5t67 25.5q47 0 75 -30q-10 -38 -10 -70q0 -60 28.5 -101t85.5 -41q53 0 90 40t37 101z" />
    <glyph glyph-name="T" unicode="T" horiz-adv-x="522" 
d="M178 79q0 32 3 119.5t3 160.5q0 321 -12 364q-57 -2 -89.5 -15.5t-58.5 -54.5q-22 12 -22 43q0 20 9.5 35.5t23.5 15.5q6 0 42 -1l88 -4q52 -2 96 -2q64 0 147 3.5t89 3.5q23 0 23 -27q0 -19 -12 -41.5t-28 -32.5q-31 41 -59.5 56.5t-87.5 19.5q1 -10 1 -70
q0 -43 -1 -117t-1 -108q0 -343 33 -404q-50 -28 -129 -28q-32 0 -45 19t-13 65z" />
    <glyph glyph-name="U" unicode="U" 
d="M246 637q0 -58 -1 -181v-172q0 -139 29 -205t113 -66q90 0 139 75.5t49 212.5q0 55 -12 176t-12 170q0 50 10.5 74t39.5 24q14 0 32 -6q-31 -63 -31 -213q0 -26 1 -76t1 -78q0 -80 -6 -135.5t-22.5 -104.5t-45.5 -77.5t-76 -45t-113 -16.5q-43 0 -78 6t-59.5 19.5
t-42.5 28.5t-29.5 40t-18 45.5t-9.5 55t-4 58.5t-1 64q0 394 -35 402q10 13 45.5 25t79.5 12q36 0 46.5 -19.5t10.5 -92.5z" />
    <glyph glyph-name="V" unicode="V" horiz-adv-x="665" 
d="M405 5q-20 -10 -39 -10q-43 0 -77 52t-61 137l-56 177q-28 92 -72.5 190t-97.5 158q18 13 29 19t38 13.5t58 7.5q33 0 53.5 -9t34 -32.5t22 -54.5t21.5 -85l26 -115q14 -60 43 -152t67 -189q14 68 48 149t65.5 140t56 125.5t24.5 114.5q0 51 -26 91q20 16 55 16
q46 0 46 -35q0 -32 -40.5 -122.5t-89.5 -186t-89.5 -203.5t-40.5 -171q0 -9 2 -25z" />
    <glyph glyph-name="W" unicode="W" horiz-adv-x="1058" 
d="M845 5q-20 -10 -39 -10q-34 0 -62 31.5t-51 91t-42 122.5l-47 148q-28 85 -54 146l-39 -82l-44 -93l-38 -88q-25 -57 -36.5 -92t-21.5 -76.5t-10 -71.5q0 -10 2 -26q-20 -10 -38 -10q-41 0 -70.5 52t-51.5 137l-44 177q-23 92 -63.5 189.5t-93.5 158.5q16 16 49.5 28
t75.5 12q45 0 64 -17.5t28 -67.5t15.5 -114.5t36.5 -185t81 -252.5q15 81 54 170l68 159q29 71 29 127q0 77 -58 141q11 9 46.5 17t66.5 8q55 0 55 -27q0 -38 -63 -173q-49 110 -105 175q18 13 29 19t38 13.5t58 7.5q33 0 53 -9t34 -32.5t22 -54.5t20 -85l26 -115
q14 -60 42.5 -152t66.5 -189q16 92 54 193l66 179q28 78 28 138t-27 111q20 16 55 16q46 0 46 -35q0 -38 -53 -169.5t-106.5 -280t-53.5 -228.5q0 -22 2 -31z" />
    <glyph glyph-name="X" unicode="X" horiz-adv-x="743" 
d="M741 47q-44 -52 -151 -52q-34 0 -66.5 21.5t-64.5 65.5t-57.5 87.5t-58.5 109.5q-40 -52 -89.5 -133.5t-79 -116.5t-59.5 -35q-45 0 -65 33q35 18 84 62t82 79l118 129q-93 189 -128 245q-87 139 -166 139q-19 0 -36 -7q-2 2 -2 4q0 18 62 44.5t128 26.5q30 0 60.5 -18
t53.5 -43t52.5 -72t48.5 -81l49 -97q91 113 91 196q0 53 -30 79q28 31 87 31q63 0 63 -55q0 -77 -201 -270q38 -75 61 -116.5t60 -100t75 -96t79 -59.5z" />
    <glyph glyph-name="Y" unicode="Y" horiz-adv-x="662" 
d="M306 339l-41 80l-41 81q-15 30 -38 69t-41.5 60t-41.5 36.5t-46 15.5q-30 0 -51 -7q-4 2 -4 8q0 18 65.5 40t116.5 22q34 0 64.5 -20t57.5 -58t48 -76l50 -89q28 -52 48 -83q111 136 111 220q0 56 -24 80q18 23 59 23q62 0 62 -49q0 -50 -62.5 -131.5t-144.5 -156.5
q0 -310 34 -381q-47 -28 -126 -28q-37 0 -49 20.5t-12 80.5q0 22 2.5 101t3.5 142z" />
    <glyph glyph-name="Z" unicode="Z" horiz-adv-x="610" 
d="M577 93q12 -21 13.5 -43t-16 -38.5t-49.5 -16.5h-493q-8 0 -15 4.5t-7 11.5q0 29 56.5 123.5t127 198t140 218t89.5 173.5q-166 0 -234.5 -13.5t-135.5 -64.5q-34 33 -16.5 65.5t68.5 32.5h464q31 0 31 -23q0 -32 -84 -165l-188 -297q-106 -164 -141 -244q171 0 246.5 14
t143.5 64z" />
    <glyph glyph-name="bracketleft" unicode="[" horiz-adv-x="314" 
d="M35 -302v1087q5 0 58.5 0.5t104.5 0.5h51q0 -7 -4 -10.5t-23.5 -6.5t-55.5 -3v-1048q36 0 55 -3t23.5 -6.5t4.5 -10.5h-214z" />
    <glyph glyph-name="backslash" unicode="\" horiz-adv-x="359" 
d="M355 77q0 -39 -21.5 -58.5t-53.5 -19.5q-24 0 -45.5 11t-29.5 29q60 36 60 102q0 53 -41 122.5t-89.5 126t-89.5 120.5t-41 106q0 29 21.5 45.5t50.5 16.5q44 0 71 -31q-44 -44 -44 -101q0 -43 26 -92.5t63 -95.5l74 -91q37 -45 63 -95t26 -95z" />
    <glyph glyph-name="bracketright" unicode="]" horiz-adv-x="314" 
d="M279 785v-1087h-214q0 7 4.5 10.5t23.5 6.5t55 3v1048q-36 0 -55.5 3t-23.5 6.5t-4 10.5h51q51 0 104.5 -0.5t58.5 -0.5z" />
    <glyph glyph-name="asciicircum" unicode="^" horiz-adv-x="376" 
d="M188 621q-108 -85 -143 -85q-16 0 -25 12q10 10 44 40l67 62q33 31 57 60q24 -29 57 -60l67 -62q34 -30 44 -40q-9 -12 -25 -12q-35 0 -143 85z" />
    <glyph glyph-name="underscore" unicode="_" horiz-adv-x="533" 
d="M501 -10q-22 3 -94.5 4t-144.5 0l-142 -2q-71 -1 -75 -1q-28 0 -31.5 22t14.5 48q66 -2 131 -1.5t178.5 1.5t146.5 1q28 0 31.5 -23t-14.5 -49z" />
    <glyph glyph-name="grave" unicode="`" horiz-adv-x="300" 
d="M286 603q-4 -6 -21 -6q-57 0 -135 42t-78 98q0 27 16 42.5t40 15.5q23 0 43 -14q8 -65 44.5 -112t90.5 -66z" />
    <glyph glyph-name="a" unicode="a" horiz-adv-x="600" 
d="M577 75q2 -2 2 -4q0 -18 -52 -45t-100 -27q-44 0 -59 30t-15 90q-26 -55 -73.5 -89.5t-106.5 -34.5q-58 0 -96 30t-38 85q0 144 313 175v147q0 53 -14.5 74t-50.5 21q-33 0 -51 -20.5t-18 -52.5q0 -45 27 -75q-35 -35 -96 -35q-37 0 -61 18t-24 55q0 34 21.5 59.5
t57.5 40.5t77 22t85 7q42 0 74 -6.5t61.5 -23t45.5 -49.5t16 -82l-1 -256q0 -38 8 -51t27 -13q18 0 41 10zM255 89q55 0 97 49v127q-72 -8 -112.5 -38t-40.5 -72q0 -32 15.5 -49t40.5 -17z" />
    <glyph glyph-name="b" unicode="b" horiz-adv-x="668" 
d="M249 658v-233q26 53 73.5 87t110.5 34q83 0 134.5 -61.5t51.5 -181.5q0 -150 -78 -229t-193 -79q-44 0 -101 15t-76 15q-34 0 -65 -24q-5 0 -6 9.5t-1 52.5v555q0 65 -12.5 88.5t-45.5 23.5q-16 0 -35 -4q-1 1 -1 3q0 14 58 31t112 17q46 0 60 -23.5t14 -95.5zM250 400
v-220q0 -165 92 -165q59 0 92 65t33 189q0 79 -15 124.5t-35.5 59t-50.5 13.5q-67 0 -116 -66z" />
    <glyph glyph-name="c" unicode="c" horiz-adv-x="538" 
d="M302 546q83 0 144.5 -32.5t61.5 -91.5q0 -34 -22 -51t-50 -17q-38 0 -56 20q2 28 2 40q0 113 -84 113q-101 0 -101 -233q0 -253 138 -253q54 0 100.5 26t65.5 50q3 0 3 -4q0 -10 -15 -28.5t-40.5 -39t-69 -35.5t-92.5 -15q-46 0 -86.5 13.5t-76 43t-56 83.5t-20.5 127
q0 128 63.5 206t190.5 78z" />
    <glyph glyph-name="d" unicode="d" horiz-adv-x="652" 
d="M419 135v219q0 95 -23 130t-75 35q-57 0 -88.5 -71t-31.5 -178q0 -114 26.5 -158t75.5 -44q64 0 116 67zM419 110q-24 -51 -71 -86.5t-112 -35.5q-80 0 -133.5 59.5t-53.5 181.5q0 137 70 223.5t201 86.5q58 0 100 -16v118q0 53 -13 71t-41 18q-18 0 -38 -4q-2 0 -2 3
q0 7 23 18.5t63.5 20.5t81.5 9q47 0 61.5 -16.5t14.5 -65.5l-1 -567q0 -37 7.5 -50.5t26.5 -13.5t42 10q2 -2 2 -4q0 -16 -59 -44t-100 -28q-42 0 -55.5 26.5t-13.5 85.5z" />
    <glyph glyph-name="e" unicode="e" horiz-adv-x="552" 
d="M399 310h-201q-1 -10 -1 -31q0 -42 6.5 -80.5t22 -75.5t45.5 -59.5t72 -22.5q49 0 99 27t68 49q2 0 2 -5q0 -11 -15 -29.5t-41 -38.5t-70.5 -34.5t-95.5 -14.5q-117 0 -178.5 73.5t-61.5 196.5q0 124 65 202.5t198 78.5q100 0 152 -44t52 -109q0 -23 -7.5 -39.5
t-17.5 -25t-28 -12.5t-31 -5t-34 -1zM383 402q0 125 -81 125q-55 0 -79 -56.5t-24 -139.5q14 0 62.5 -0.5t54.5 -0.5q39 0 53 14.5t14 57.5z" />
    <glyph glyph-name="f" unicode="f" horiz-adv-x="400" 
d="M264 14q-15 -6 -60.5 -13.5t-71.5 -7.5q-30 0 -37.5 13.5t-7.5 51.5l1 321v128q-52 0 -72 -14q-7 13 -7 22q0 17 35 17q19 0 44 -3v74q0 175 185 175q79 0 128 -29t49 -83q0 -37 -22 -56t-53 -19q-29 0 -51 16q4 31 4 59q0 92 -49 92q-21 0 -31 -23.5t-10 -93.5v-119
q72 3 117 18q3 -10 3 -19q0 -13 -7.5 -19t-27.5 -6q-14 0 -46 3t-39 3q0 -212 4.5 -306t21.5 -182z" />
    <glyph glyph-name="g" unicode="g" horiz-adv-x="606" 
d="M141 205q-44 20 -68 60t-24 92q0 85 63.5 137t181.5 52q90 0 148 -31q8 27 30.5 46t56.5 19q31 0 49 -16t18 -39q0 -36 -34 -61q-8 20 -28 36.5t-45 16.5q-17 0 -32 -11q66 -45 66 -131q0 -89 -65 -141.5t-163 -52.5q-49 0 -137 18q-9 -21 -9 -37q0 -29 30 -44t75 -17.5
t97 -10.5t97 -21t75 -50t30 -96q0 -71 -42 -121t-105 -71.5t-140 -21.5q-108 0 -182.5 43t-74.5 111q0 43 28 67.5t66 24.5q36 0 57 -21q-20 -28 -20 -72q0 -55 33.5 -94t110.5 -39q63 0 108.5 29.5t45.5 95.5q0 49 -39.5 75t-96 34t-112.5 15t-95.5 27t-39.5 60
q0 32 25.5 70.5t60.5 69.5zM286 526q-43 0 -65 -45.5t-22 -112.5q0 -41 7.5 -76.5t28.5 -63t51 -27.5q42 0 64.5 46.5t22.5 114.5q0 41 -7.5 76t-28 61.5t-51.5 26.5z" />
    <glyph glyph-name="h" unicode="h" horiz-adv-x="664" 
d="M407 99l-1 257q0 52 -12 74t-41 22q-56 0 -102 -55q0 -165 4 -236t21 -147q-15 -6 -60.5 -13.5t-75.5 -7.5q-21 0 -31 10.5t-10 38.5l1 576q0 64 -12.5 88t-44.5 24q-17 0 -36 -4q-1 1 -1 3q0 9 25 20t67 19.5t82 8.5q42 0 56 -25.5t14 -93.5l1 -236q27 54 74.5 89
t113.5 35q70 0 93.5 -41t23.5 -129l1 -211q0 -65 5.5 -85.5t25.5 -20.5q31 0 65 12q3 -1 3 -5q0 -17 -48.5 -44t-100.5 -27q-55 0 -77.5 26t-22.5 78z" />
    <glyph glyph-name="i" unicode="i" horiz-adv-x="329" 
d="M243 422q0 -17 0.5 -66t0.5 -62t0.5 -50t1.5 -54.5t3 -49t4.5 -60.5t6.5 -64q-15 -6 -56.5 -13.5t-67.5 -7.5q-30 0 -37.5 13t-7.5 50l4 324q0 67 -10.5 89.5t-44.5 22.5q-14 0 -33 -4q-1 1 -1 3q0 14 54.5 31t106.5 17q51 0 63 -22.5t13 -96.5zM165 782q79 0 79 -76
q0 -44 -24 -71t-69 -27q-77 0 -77 77q0 42 25 69.5t66 27.5z" />
    <glyph glyph-name="j" unicode="j" horiz-adv-x="477" 
d="M408 419q0 -18 -1 -251v-249q0 -119 -53 -164.5t-147 -45.5q-89 0 -130.5 29.5t-41.5 74.5q0 65 84 65q15 0 33 -3q0 -29 1 -42q7 -104 50 -104q53 0 54 151q0 8 1.5 252t1.5 250q0 66 -10.5 89t-43.5 23q-26 0 -55 -9q-1 1 -1 3q0 9 26.5 21.5t70 22t83.5 9.5
q53 0 65 -22.5t13 -99.5zM332 782q75 0 75 -78q0 -42 -24 -69t-69 -27q-77 0 -77 77q0 42 25 69.5t70 27.5z" />
    <glyph glyph-name="k" unicode="k" horiz-adv-x="623" 
d="M250 658q0 -40 1 -188v-184q73 56 110 96.5t37 77.5q0 31 -28 58q33 27 69 27q26 0 43 -15t17 -41q0 -24 -13.5 -46.5t-40 -44t-53.5 -38.5l-66 -42l-22 -13q22 -5 48 -30t51 -56l51 -62q25 -31 55 -51.5t58 -20.5q30 0 52 12q2 -2 2 -5q0 -23 -40 -60t-93 -37
q-41 0 -81 34.5t-86.5 94t-68.5 80.5q3 -92 24 -190q-15 -6 -60.5 -13.5t-76.5 -7.5q-22 0 -31 11t-9 40l1 574q0 65 -12.5 88.5t-45.5 23.5q-16 0 -35 -4q-1 1 -1 3q0 14 56 31t115 17q44 0 58.5 -24t14.5 -95z" />
    <glyph glyph-name="l" unicode="l" horiz-adv-x="375" 
d="M99 117v501q0 65 -12.5 88.5t-45.5 23.5q-15 0 -34 -4q-1 1 -1 3q0 14 59 31t109 17q45 0 60 -21.5t15 -87.5v-541q0 -40 8 -55t32 -15q40 0 77 21q1 -1 1 -4q0 -19 -64.5 -49t-123.5 -30q-50 0 -65 27.5t-15 94.5z" />
    <glyph glyph-name="m" unicode="m" horiz-adv-x="933" 
d="M94 379q0 69 -10.5 92t-42.5 23q-16 0 -35 -4q-1 1 -1 3q0 14 51.5 31t103.5 17q48 0 62.5 -22t14.5 -92q58 119 177 119q60 0 85.5 -30t30.5 -91q60 121 179 121q70 0 93.5 -41t23.5 -126l1 -214q0 -65 5.5 -85.5t25.5 -20.5q31 0 65 12q2 -1 2 -4q0 -18 -47 -45
t-100 -27q-55 0 -77.5 26t-22.5 78v244q0 60 -11 84.5t-47 24.5q-49 0 -89 -47q1 -9 1 -26q0 -24 1.5 -97t1.5 -102q0 -110 22 -164q-75 -21 -129 -21q-30 0 -38.5 13.5t-8.5 61.5l1 279q0 54 -12 78.5t-46 24.5q-46 0 -87 -50q0 -166 4 -238t21 -148q-15 -6 -60.5 -13.5
t-72.5 -7.5q-30 0 -37.5 13t-7.5 50q0 42 5 160t5 161z" />
    <glyph glyph-name="n" unicode="n" horiz-adv-x="650" 
d="M6 490q-1 1 -1 3q0 14 51.5 31t103.5 17q48 0 62.5 -23.5t14.5 -95.5q27 54 74.5 89t113.5 35q70 0 93.5 -41t23.5 -129q0 -35 0.5 -105.5t0.5 -105.5q0 -65 5.5 -85.5t25.5 -20.5q31 0 65 12q3 -1 3 -5q-1 -17 -48.5 -44t-99.5 -27q-55 0 -78 25t-23 79q-1 219 -1 257
q0 56 -13 76t-39 20q-57 0 -103 -55q0 -164 4 -234.5t21 -146.5q-15 -6 -60.5 -13.5t-72.5 -7.5q-30 0 -37.5 12.5t-7.5 49.5q0 49 5 157.5t5 164.5q0 69 -10.5 92t-42.5 23q-16 0 -35 -4z" />
    <glyph glyph-name="o" unicode="o" horiz-adv-x="614" 
d="M300 -5q-107 2 -179 68.5t-72 201.5q0 128 69 204.5t196 76.5q109 0 180 -68.5t71 -201.5q0 -128 -69 -204.5t-196 -76.5zM308 15q39 0 64 37t34 90.5t9 122.5q0 48 -5 90.5t-16 83t-33.5 64.5t-54.5 24q-39 0 -64 -37t-34 -90.5t-9 -122.5q0 -48 5 -90.5t16 -83
t33.5 -64.5t54.5 -24z" />
    <glyph glyph-name="p" unicode="p" horiz-adv-x="662" 
d="M242 399v-219q0 -165 93 -165q65 0 95 69t30 180q0 114 -26.5 158t-75.5 44q-64 0 -116 -67zM8 490q-1 1 -1 3q0 14 53 31t106 17q48 0 62 -23t14 -94q24 51 71 86.5t112 35.5q80 0 133.5 -59.5t53.5 -181.5q0 -138 -71 -224t-206 -86q-44 0 -86 16q3 -177 17 -282
q-63 -21 -131 -21q-32 0 -39.5 18.5t-7.5 77.5l8 532q0 104 -8.5 131t-43.5 27q-17 0 -36 -4z" />
    <glyph glyph-name="q" unicode="q" horiz-adv-x="590" 
d="M418 141v230q0 85 -23 120t-78 35q-52 0 -84 -66.5t-32 -188.5q0 -95 29.5 -139t71.5 -44q68 0 116 53zM568 468l1 -711q0 -29 -10.5 -39t-34.5 -10q-26 0 -67.5 7.5t-56.5 13.5q13 73 16 147.5t3 239.5q-26 -53 -74 -87t-109 -34q-85 0 -136 61.5t-51 187.5
q0 144 78.5 223t191.5 79q45 0 103.5 -15.5t80.5 -15.5q31 0 58 16q5 0 6 -10t1 -53z" />
    <glyph glyph-name="r" unicode="r" horiz-adv-x="469" 
d="M389 547q38 0 58 -20.5t20 -50.5q0 -26 -15.5 -49t-42.5 -33q-19 36 -37.5 51.5t-46.5 15.5q-21 0 -44.5 -16t-38.5 -42v-61q0 -45 0.5 -58.5t1 -48t1.5 -52t3 -47.5t4.5 -58.5t6.5 -61.5q-15 -6 -56.5 -13.5t-67.5 -7.5q-30 0 -37.5 13t-7.5 50l4 324q0 67 -10.5 89.5
t-44.5 22.5q-14 0 -33 -4q-1 1 -1 3q0 14 54.5 31t106.5 17q49 0 62 -21.5t14 -88.5q24 49 66 82.5t81 33.5z" />
    <glyph glyph-name="s" unicode="s" horiz-adv-x="501" 
d="M237 -5q-77 0 -134.5 33.5t-57.5 88.5q0 35 21.5 54.5t50.5 19.5q34 0 55 -25q-10 -23 -10 -53q0 -41 21 -69.5t61 -28.5q76 0 76 86q0 36 -27.5 66.5t-66.5 53.5l-79 47q-39 25 -66.5 60.5t-27.5 77.5q0 140 220 140q74 0 122.5 -29t48.5 -69q0 -31 -20.5 -50t-51.5 -19
q-36 0 -56 20q13 31 13 62q0 65 -66 65q-30 0 -51 -21.5t-21 -58.5q0 -38 28 -68.5t68 -52.5l79 -44q39 -23 67 -58t28 -80q0 -70 -65 -109t-159 -39z" />
    <glyph glyph-name="t" unicode="t" horiz-adv-x="394" 
d="M234 505v-370q0 -51 4 -64.5t25 -13.5q24 0 55 7.5t43 14.5q1 -1 1 -4q0 -18 -70 -49t-126 -31q-51 0 -70.5 26t-19.5 78v406q-43 0 -61 -5q-4 4 -4 10q0 7 10 10t27.5 9.5t38.5 20t46.5 49.5t47.5 90q28 0 40.5 -36.5t12.5 -127.5q28 0 67.5 5.5t52.5 12.5q3 -12 3 -19
q0 -25 -34 -25q-11 0 -42 3t-47 3z" />
    <glyph glyph-name="u" unicode="u" horiz-adv-x="634" 
d="M93 160l4 217q0 69 -10.5 92t-42.5 23q-16 0 -35 -4q-1 1 -1 3q0 14 54 31t106 17q48 0 62.5 -23.5t14.5 -95.5l-5 -226q0 -58 11.5 -82.5t47.5 -24.5q18 0 43 13t46 37q0 167 -4 241t-21 150q15 6 60 13.5t76 7.5q21 0 31 -10.5t10 -38.5q0 -60 -5 -182.5t-5 -162.5
q0 -64 13.5 -88t45.5 -24q17 0 36 4q1 -1 1 -3q0 -9 -24 -20t-64.5 -19.5t-80.5 -8.5q-42 0 -55.5 25.5t-13.5 94.5q-68 -123 -175 -123q-72 0 -96 40t-24 127z" />
    <glyph glyph-name="v" unicode="v" horiz-adv-x="556" 
d="M48 500q-25 0 -45 -9q-1 1 -1 3q0 8 16 18.5t52.5 19.5t82.5 9q80 0 122.5 -87t106.5 -359q121 182 121 299q0 50 -21.5 81t-53.5 42q6 13 28 22t39 9q59 0 59 -79q0 -74 -47 -188t-110.5 -200t-106.5 -86q-12 0 -18 7.5t-12 27.5l-31 102l-29 100q-11 36 -27.5 85.5
t-29 76.5t-28.5 54.5t-32.5 39.5t-34.5 12z" />
    <glyph glyph-name="w" unicode="w" horiz-adv-x="839" 
d="M354 497q11 10 43.5 20.5t60.5 10.5q23 0 39.5 -6.5t33 -27.5t29 -48t30 -82t33.5 -114l41 -157q124 176 124 300q0 46 -20.5 80.5t-56.5 41.5q6 13 28 22t40 9q58 0 58 -80q0 -73 -48.5 -187t-111.5 -200t-103 -86q-14 0 -19 6t-12 29l-59 201q-48 -99 -100 -167.5
t-88 -68.5q-14 0 -21.5 7t-14.5 28l-30 102l-30 100l-28 86q-16 49 -28.5 77t-28.5 55.5t-32 39.5t-34 12q-27 0 -46 -9q-1 1 -1 3q0 8 17 18.5t54.5 19.5t82.5 9q28 0 48.5 -7.5t40 -32t33.5 -52t32 -86t32 -113.5l40 -156q48 68 93 167q-66 218 -121 236z" />
    <glyph glyph-name="x" unicode="x" horiz-adv-x="640" 
d="M493 -5q-56 0 -106.5 59t-110.5 167q-111 -95 -111 -175q0 -39 36 -73q-39 -30 -76 -30q-28 0 -47 17t-19 44q0 84 207 236l-35 65q-11 20 -33.5 57.5t-37 55.5t-34.5 40t-39 31t-38 9q-28 0 -44 -7q-1 1 -1 3q-1 8 15 18.5t55 19.5t90 9q28 0 56 -17.5t56 -52.5t50 -69
t51 -84q104 74 104 138q0 40 -46 60q17 30 64 30q27 0 46 -15t19 -45q0 -78 -178 -184q84 -151 122 -195q40 -46 73 -46q26 0 57 17q1 -1 1 -4q0 -12 -14.5 -29t-50 -33.5t-81.5 -16.5z" />
    <glyph glyph-name="y" unicode="y" horiz-adv-x="627" 
d="M74 491q-1 1 -1 3q0 8 16.5 18.5t53 19.5t80.5 9q51 0 84.5 -32.5t68 -128t77.5 -285.5q121 181 121 297q0 48 -20.5 81.5t-54.5 43.5q7 12 27 21.5t41 9.5q25 0 41.5 -18t16.5 -57q0 -89 -52.5 -207t-130 -219t-173 -171.5t-173.5 -70.5q-45 0 -69.5 20t-24.5 48
q0 20 11 36.5t25 22.5q50 -57 124 -57q94 0 185 94q-85 309 -130 420t-100 111q-22 0 -43 -9z" />
    <glyph glyph-name="z" unicode="z" horiz-adv-x="533" 
d="M455 141q15 0 24.5 -15.5t9.5 -42.5q0 -37 -22.5 -67.5t-66.5 -30.5q-49 0 -124.5 12.5t-119.5 12.5q-55 0 -122 -14q-15 2 -15 24q0 43 33.5 99t81.5 109l97 106q48 52 81.5 101.5t33.5 83.5q-84 0 -139 -9.5t-81.5 -29t-36.5 -35.5t-18 -43q-19 3 -19 35
q0 33 27.5 67.5t56.5 34.5h289q55 0 55 -47q0 -48 -47 -122.5t-103.5 -138t-103.5 -122t-47 -78.5h5q18 0 63.5 -5.5t69.5 -5.5q59 0 95.5 26t42.5 95z" />
    <glyph glyph-name="braceleft" unicode="{" horiz-adv-x="349" 
d="M201 785q52 0 87.5 -11.5t35.5 -27.5q0 -3 -1 -5q-13 10 -44 10q-37 0 -54.5 -28.5t-24.5 -101.5t-7 -226q0 -28 -1 -43t-6.5 -35.5t-17.5 -30.5t-32 -21t-53 -15t-78 -4q53 10 69 43.5t16 122.5q0 202 22.5 287.5t88.5 85.5zM324 -263q0 -17 -36.5 -28t-85.5 -11
q-72 0 -93.5 68.5t-21.5 273.5q0 50 -2 75.5t-10 50.5t-24.5 37.5t-45.5 19.5q45 0 78 -4t53 -15t32 -21t17.5 -30.5t6.5 -35.5t1 -43q0 -152 7 -222t24.5 -95t54.5 -25q31 0 44 10q1 -2 1 -5z" />
    <glyph glyph-name="bar" unicode="|" horiz-adv-x="278" 
d="M140 816q22 0 31.5 -6.5t14 -29.5t4.5 -75q0 -43 -1 -143.5t-1 -134.5q0 -371 28 -411q-26 -21 -68 -21q-30 0 -39.5 14.5t-9.5 62.5q0 9 2 125.5t2 201.5q0 373 -38 395q28 22 75 22z" />
    <glyph glyph-name="braceright" unicode="}" horiz-adv-x="349" 
d="M148 785q66 0 88.5 -85.5t22.5 -287.5q0 -89 16 -122.5t69 -43.5q-45 0 -78 4t-53 15t-32 21t-17.5 30.5t-6.5 35.5t-1 43q0 153 -7 226t-24.5 101.5t-54.5 28.5q-31 0 -44 -10q-1 2 -1 5q0 16 35.5 27.5t87.5 11.5zM25 -263q0 3 1 5q13 -10 44 -10q37 0 54.5 25t24.5 95
t7 222q0 28 1 43t6.5 35.5t17.5 30.5t32 21t53 15t78 4q-29 -7 -45.5 -19.5t-24.5 -37.5t-10 -50.5t-2 -75.5q0 -205 -21.5 -273.5t-93.5 -68.5q-49 0 -85.5 11t-36.5 28z" />
    <glyph glyph-name="asciitilde" unicode="~" horiz-adv-x="461" 
d="M406 758q10 -1 10 -28q0 -35 -32 -76t-94 -41q-28 0 -78.5 26t-73.5 26q-30 0 -54 -13t-29 -39q-10 3 -10 26q0 41 33.5 80t92.5 39q30 0 79.5 -26t72.5 -26q34 0 57 15.5t26 36.5z" />
    <glyph glyph-name="exclamdown" unicode="&#xa1;" horiz-adv-x="228" 
d="M180 -261q-25 -35 -82 -35q-35 0 -59 21t-24 65q0 51 48.5 153t48.5 155q0 65 -50 119q18 31 52 31q23 0 38.5 -19.5t15.5 -58.5q0 -38 -13.5 -120t-13.5 -140q0 -107 39 -171zM116 319q-30 0 -45.5 21t-15.5 50t18.5 49.5t51.5 20.5q28 0 45.5 -18.5t17.5 -44.5
q0 -32 -21 -55t-51 -23z" />
    <glyph glyph-name="cent" unicode="&#xa2;" horiz-adv-x="538" 
d="M302 -130q-25 0 -32 14t-7 63v49q-92 7 -153.5 70.5t-61.5 195.5q0 116 52.5 192t158.5 89q-10 114 -30 126q28 22 50 22t31.5 -6.5t14 -29.5t4.5 -75v-35q75 -6 127 -38t52 -85q0 -34 -22 -51t-50 -17q-38 0 -56 20q2 28 2 40q0 90 -53 108q-2 -152 -2 -220
q0 -156 5 -261h3q54 0 100.5 26t65.5 50q3 0 3 -4q0 -12 -18.5 -34.5t-59.5 -47t-91 -32.5q7 -89 20 -108q-26 -21 -53 -21zM267 274q0 137 -6 242q-64 -39 -64 -222q0 -180 68 -231q2 120 2 211z" />
    <glyph glyph-name="sterling" unicode="&#xa3;" horiz-adv-x="517" 
d="M345 695q74 -2 119 -31t45 -81q0 -41 -27 -64.5t-65 -23.5q-25 0 -48 12q18 48 18 97q0 73 -54 73q-26 0 -41.5 -15t-22.5 -48.5t-9.5 -66t-5.5 -88t-7 -94.5q1 1 4 1h17q12 0 16 0.5t14 1.5t17 2.5t18.5 4.5t26.5 8q3 -10 3 -19q0 -13 -7.5 -19t-27.5 -6q-14 0 -44.5 3
t-39.5 3q-24 -184 -126 -285q47 26 105 26q28 0 76 -7.5t68 -7.5q67 0 96 64q15 0 27.5 -15.5t12.5 -44.5q0 -39 -26.5 -67.5t-83.5 -28.5q-45 0 -119 29t-111 29q-53 0 -103 -43q-15 2 -15 24q68 143 78 334h-2q-25 0 -59 -13q-11 5 -11 18q0 18 35 18q10 0 38 -2
q1 18 2 52q1 32 2 47.5t3 43t5 40.5t9 34t14 31.5l20 25t27.5 21.5t35.5 14.5t46 10t57 2.5z" />
    <glyph glyph-name="yen" unicode="&#xa5;" horiz-adv-x="662" 
d="M593 342q-31 4 -140 4q0 -6 0.5 -18t0.5 -17q25 0 66 0.5t56 0.5q32 0 32 -29q0 -18 -15 -43q-31 4 -137 4q8 -173 31 -221q-47 -28 -126 -28q-37 0 -49 20.5t-12 80.5q0 19 4 147q-22 0 -51.5 -0.5t-44.5 -1t-19 -0.5q-32 0 -32 28q0 17 15 42q46 -2 97 -2h37v30l-3 6
q-22 0 -51 -0.5t-44 -1t-19 -0.5q-32 0 -32 28q0 17 15 42q46 -2 97 -2q-76 153 -110 199q-52 71 -102 71q-30 0 -51 -7q-4 2 -4 8q0 18 65.5 40t116.5 22q34 0 64.5 -20t57.5 -58t48 -76l50 -89q28 -52 48 -83q111 136 111 220q0 56 -24 80q18 23 59 23q62 0 62 -49
q0 -48 -58.5 -126.5t-138.5 -152.5q23 0 61.5 0.5t51.5 0.5q32 0 32 -29q0 -18 -15 -43z" />
    <glyph glyph-name="brokenbar" unicode="&#xa6;" horiz-adv-x="231" 
d="M133 563v-137q0 -41 3.5 -66.5t4.5 -26.5t10 -14q-26 -21 -68 -21q-30 0 -39.5 14.5t-9.5 62.5v59v52v39q0 25 -1 35.5t-3 27t-5 24.5l-7 19q-4 11 -10 21q28 22 75 22q22 0 31.5 -6.5t14 -29.5t4.5 -75zM143 96v-136q0 -42 3.5 -67.5t4.5 -26.5t10 -14q-26 -21 -68 -21
q-30 0 -39.5 14.5t-9.5 62.5v59v52v39q0 25 -1 35.5t-3 27t-5 24.5l-7 19q-4 11 -10 21q28 22 75 22q22 0 31.5 -6.5t14 -29.5t4.5 -75z" />
    <glyph glyph-name="section" unicode="&#xa7;" horiz-adv-x="511" 
d="M237 -305q-77 0 -134.5 33.5t-57.5 88.5q0 35 21.5 54.5t50.5 19.5q34 0 55 -25q-10 -23 -10 -53q0 -41 21 -69t61 -29q76 0 76 86q0 36 -27.5 66.5t-67.5 53.5l-78 47q-39 25 -66.5 60.5t-27.5 77.5q0 113 149 135q-44 26 -69 44.5t-47.5 51t-22.5 69.5q0 140 220 140
q74 0 122.5 -29t48.5 -69q0 -34 -21 -51.5t-51 -17.5q-36 0 -56 20q13 31 13 62q0 65 -66 65q-30 0 -51 -21.5t-21 -58.5q0 -38 28 -68.5t67 -52.5l79 -44q40 -23 68 -58t28 -80q0 -53 -39.5 -89.5t-104.5 -50.5q31 -17 50 -30t41 -32.5t32.5 -44t10.5 -53.5q0 -70 -65 -109
t-159 -39zM330 101q0 35 -24.5 62.5t-70.5 57.5q-44 -19 -44 -75q0 -40 26 -67.5t75 -55.5q38 18 38 78z" />
    <glyph glyph-name="dieresis" unicode="&#xa8;" horiz-adv-x="327" 
d="M84 754q62 0 62 -60q0 -34 -19 -55.5t-54 -21.5q-61 0 -61 61q0 32 20 54t52 22zM256 754q62 0 62 -60q0 -34 -19 -55.5t-54 -21.5q-61 0 -61 61q0 32 20 54t52 22z" />
    <glyph glyph-name="copyright" unicode="&#xa9;" horiz-adv-x="739" 
d="M387 224q24 0 50.5 12t40.5 24l15 13q0 -8 -13.5 -23.5t-46 -30.5t-72.5 -15q-71 0 -108 40t-37 118q0 94 46 134.5t116 40.5q52 0 87.5 -19.5t35.5 -51.5q0 -21 -16 -33.5t-37 -12.5q-23 0 -35 16q0 18 -1 26q-5 64 -43 64q-58 0 -58 -150q0 -81 16 -116.5t60 -35.5z
M689 392q0 -134 -89 -231t-231 -97q-138 0 -228.5 72t-90.5 209q0 134 89 231t231 97q138 0 228.5 -72t90.5 -209zM144 388q0 -149 58.5 -226.5t166.5 -77.5q107 0 166.5 78.5t59.5 186.5q0 149 -58.5 226.5t-166.5 77.5q-107 0 -166.5 -78.5t-59.5 -186.5z" />
    <glyph glyph-name="ordfeminine" unicode="&#xaa;" horiz-adv-x="291" 
d="M270 255q0 -1 0.5 -1t0.5 -1q0 -8 -24.5 -20.5t-46.5 -12.5q-20 0 -27 13.5t-7 41.5q-27 -57 -84 -57q-27 0 -44.5 14t-17.5 39q0 68 145 81v68q0 25 -6.5 35t-23.5 10q-15 0 -23.5 -10t-8.5 -24q0 -22 13 -35q-16 -16 -45 -16q-39 0 -39 34q0 30 33.5 44.5t78.5 14.5
q91 0 91 -74v-119q0 -18 3.5 -24t12.5 -6q11 0 19 5zM120 261q25 0 45 23v59q-33 -4 -52 -18t-19 -33q0 -14 7.5 -22.5t18.5 -8.5z" />
    <glyph glyph-name="guillemotleft" unicode="&#xab;" horiz-adv-x="496" 
d="M138 263q122 -155 122 -205q0 -22 -18 -36q-10 10 -56 62l-90 99q-44 46 -86 80q42 34 86 80l90 98q46 53 56 63q18 -14 18 -36q0 -50 -122 -205zM354 263q122 -155 122 -205q0 -22 -18 -36q-10 10 -56 62l-90 99q-44 46 -86 80q42 34 86 80l90 98q46 53 56 63
q18 -14 18 -36q0 -50 -122 -205z" />
    <glyph glyph-name="logicalnot" unicode="&#xac;" horiz-adv-x="624" 
d="M433 430q0 23 -5.5 29t-28.5 6q-56 0 -130.5 -0.5t-128 -1.5t-58.5 -1q-32 0 -32 34q0 22 15 36q46 -2 109 -2q64 0 193.5 1.5t161.5 1.5q18 0 25 -8t7 -28q0 -118 13 -175q-7 -6 -35.5 -12t-46.5 -6q-34 0 -46.5 26.5t-12.5 99.5z" />
    <glyph glyph-name="registered" unicode="&#xae;" horiz-adv-x="739" 
d="M689 392q0 -134 -89 -231t-231 -97q-138 0 -228.5 72t-90.5 209q0 134 89 231t231 97q138 0 228.5 -72t90.5 -209zM144 388q0 -149 58.5 -226.5t166.5 -77.5q107 0 166.5 78.5t59.5 186.5q0 149 -58.5 226.5t-166.5 77.5q-107 0 -166.5 -78.5t-59.5 -186.5zM246 232
q0 7 2 56.5t3 92.5t-2 85.5t-12 52.5q6 6 40.5 10.5t66.5 4.5q121 0 121 -79q0 -67 -60 -84q27 -8 43 -31.5t21 -46t20.5 -38.5t42.5 -12q6 -5 -1 -15t-27.5 -18t-46.5 -8t-42.5 22t-22.5 49t-16.5 55.5t-24.5 37.5q-2 2 -2 5q31 13 31 82q0 34 -13 51t-32 17h-3
q0 -17 -0.5 -73t-0.5 -85.5t2 -70.5t6 -68q-28 -19 -63 -19q-19 0 -24.5 4.5t-5.5 22.5z" />
    <glyph glyph-name="macron" unicode="&#xaf;" horiz-adv-x="425" 
d="M387 613q-22 3 -74.5 4t-101.5 0l-98 -2q-49 -1 -54 -1q-27 0 -30.5 18t10.5 30q58 -2 98 -2l117 2q76 1 113 1q27 0 31.5 -17.5t-11.5 -32.5z" />
    <glyph glyph-name="degree" unicode="&#xb0;" horiz-adv-x="269" 
d="M20 574q0 50 33.5 78t83.5 28q49 0 80.5 -27t31.5 -79q0 -50 -34 -78t-84 -28q-48 0 -79.5 27t-31.5 79zM143 488q34 0 34 74q0 98 -47 98q-34 0 -34 -74q0 -98 47 -98z" />
    <glyph glyph-name="plusminus" unicode="&#xb1;" horiz-adv-x="557" 
d="M523 393q-126 13 -214 17q1 -49 6.5 -92.5t15 -90.5t9.5 -48q-28 -28 -77 -28t-49 111q0 80 17 148q-49 -1 -92.5 -5.5t-68 -8.5t-29.5 -4q-31 0 -31 30q0 19 11 30q4 0 26.5 -5.5t70.5 -11t117 -6.5q0 50 -6.5 97.5t-16.5 91t-11 51.5q28 28 77 28q26 0 38 -32
t10.5 -79.5t-6 -87t-10.5 -68.5q46 2 103 12.5t90 10.5q32 0 32 -29q0 -19 -12 -31zM524 49q-31 4 -158 4q-61 0 -137 -0.5t-128 -1.5t-57 -1q-30 0 -30 25q0 17 13 25q46 -2 116 -2t201.5 1.5t162.5 1.5q30 0 30 -26q0 -18 -13 -26z" />
    <glyph glyph-name="twosuperior" unicode="&#xb2;" horiz-adv-x="264" 
d="M226 499q5 0 11.5 -10.5t6.5 -26.5q0 -21 -15 -39.5t-44 -18.5q-23 0 -58.5 13t-51.5 13q-28 0 -46 -13q-9 0 -9 10q0 4 20 22l43 42q24 24 43.5 66t19.5 88q0 26 -3.5 36t-13.5 10q-16 0 -16 -28q0 -13 10 -30q-24 -22 -53 -22q-49 0 -49 41q0 28 37.5 43.5t74.5 15.5
q101 0 101 -64q0 -32 -19 -63.5t-40 -50t-49 -39.5t-32 -25q18 7 40 7q11 0 32 -4.5t30 -4.5q20 0 30 32z" />
    <glyph glyph-name="threesuperior" unicode="&#xb3;" horiz-adv-x="261" 
d="M214 657q0 -55 -76 -83l-2 -1q6 1 21 1q37 0 60.5 -16.5t23.5 -50.5q0 -43 -41 -73t-102 -30q-33 0 -55.5 12.5t-22.5 32.5q0 9 7 18t17 13q4 -18 19.5 -32t40.5 -14q30 0 48.5 16t18.5 45q0 27 -13 45t-37 18q-4 0 -10.5 -1t-8.5 -1q-11 0 -11 17q66 46 66 89
q0 26 -25 26q-11 0 -17 -8.5t-6 -17.5q0 -12 9 -24q-15 -22 -45 -22q-36 0 -36 35q0 25 28.5 41.5t68.5 16.5q32 0 56 -13.5t24 -38.5z" />
    <glyph glyph-name="acute" unicode="&#xb4;" horiz-adv-x="274" 
d="M20 603q54 19 90.5 66t44.5 112q20 14 43 14q24 0 40 -15.5t16 -42.5q0 -56 -78 -98t-135 -42q-17 0 -21 6z" />
    <glyph glyph-name="mu" unicode="&#x3bc;" horiz-adv-x="567" 
d="M470 377q0 -47 2 -121t2 -96q0 -87 -24 -127t-96 -40q-107 0 -175 123q0 -232 21 -387q-63 -21 -135 -21q-30 0 -36.5 21t-6.5 93q0 46 2.5 283t2.5 395q0 28 10 38.5t31 10.5q30 0 75.5 -7.5t60.5 -13.5q-17 -76 -21 -150t-4 -241q21 -24 46 -37t43 -13q36 0 47.5 24.5
t11.5 82.5q0 25 -2.5 101.5t-2.5 124.5q0 72 14.5 95.5t62.5 23.5q52 0 106 -17t54 -31q0 -2 -1 -3q-19 4 -35 4q-32 0 -42.5 -23t-10.5 -92z" />
    <glyph glyph-name="mu" unicode="&#xb5;" horiz-adv-x="567" 
d="M470 377q0 -47 2 -121t2 -96q0 -87 -24 -127t-96 -40q-107 0 -175 123q0 -232 21 -387q-63 -21 -135 -21q-30 0 -36.5 21t-6.5 93q0 46 2.5 283t2.5 395q0 28 10 38.5t31 10.5q30 0 75.5 -7.5t60.5 -13.5q-17 -76 -21 -150t-4 -241q21 -24 46 -37t43 -13q36 0 47.5 24.5
t11.5 82.5q0 25 -2.5 101.5t-2.5 124.5q0 72 14.5 95.5t62.5 23.5q52 0 106 -17t54 -31q0 -2 -1 -3q-19 4 -35 4q-32 0 -42.5 -23t-10.5 -92z" />
    <glyph glyph-name="paragraph" unicode="&#xb6;" horiz-adv-x="659" 
d="M270 597q141 0 207.5 5.5t96.5 17t62 39.5q20 -23 20 -42q0 -49 -114 -54q0 -85 -0.5 -207.5t-0.5 -151.5q0 -368 28 -408q-26 -21 -72 -21q-27 0 -36 15.5t-9 60.5q0 10 2 128t2 188q0 276 -17 391l-45 -3q-28 -1 -37 -1q0 -86 -1 -200.5t-1 -157.5q0 -362 28 -398
q-26 -21 -71 -21q-28 0 -37 16t-9 61v359q-92 0 -137 54t-45 139q0 88 48.5 139.5t137.5 51.5z" />
    <glyph glyph-name="periodcentered" unicode="&#xb7;" horiz-adv-x="276" 
d="M156 380q79 0 79 -76q0 -44 -24 -71t-69 -27q-77 0 -77 77q0 42 25 69.5t66 27.5z" />
    <glyph glyph-name="cedilla" unicode="&#xb8;" horiz-adv-x="289" 
d="M102 -128l61 139l28 -4l-31 -56q54 0 81.5 -23.5t27.5 -59.5q0 -50 -46 -92t-116 -42q-87 0 -87 40q0 15 11 23.5t24 8.5q13 -50 59 -50q31 0 46.5 12.5t15.5 32.5q0 26 -22 48.5t-52 22.5z" />
    <glyph glyph-name="onesuperior" unicode="&#xb9;" horiz-adv-x="232" 
d="M200 634l-3 -129q0 -114 15 -156q-54 -21 -89 -21q-21 0 -31 10.5t-10 38.5v182q-20 -17 -41 -17t-21 25q28 10 91.5 44.5t80.5 34.5q8 0 8 -12z" />
    <glyph glyph-name="ordmasculine" unicode="&#xba;" horiz-adv-x="330" 
d="M161 344q-60 1 -100.5 39.5t-40.5 109.5t40.5 116t108.5 45q62 0 101.5 -38t39.5 -110q0 -71 -40.5 -116.5t-108.5 -45.5zM166 364q59 0 59 132q0 138 -60 138t-60 -131q0 -139 61 -139z" />
    <glyph glyph-name="guillemotright" unicode="&#xbb;" horiz-adv-x="496" 
d="M348 263q-122 155 -122 205q0 22 18 36q10 -10 56 -62l90 -99q44 -46 86 -80q-42 -34 -86 -80l-90 -98q-46 -53 -56 -63q-18 14 -18 36q0 50 122 205zM132 263q-122 155 -122 205q0 22 18 36q10 -10 56 -62l90 -99q44 -46 86 -80q-42 -34 -86 -80l-90 -98
q-46 -53 -56 -63q-18 14 -18 36q0 50 122 205z" />
    <glyph glyph-name="onequarter" unicode="&#xbc;" horiz-adv-x="575" 
d="M268 81q0 4 19 21.5t41.5 40.5t41.5 67t19 94q71 0 71 -40q0 -16 -8 -36t-24 -42t-27.5 -36.5t-32.5 -38t-24 -27.5q10 0 62 2q4 49 16.5 67t36.5 18q27 0 37 -5q-18 -2 -18 -81q25 0 50 17q12 -4 12 -18q0 -8 -6.5 -14.5t-18.5 -6.5q-9 0 -36 3q4 -39 11 -72
q-28 -11 -65 -11q-21 0 -21 24v62q-87 -2 -121 -13q-4 0 -9.5 9t-5.5 16zM172 587l-2 -75q0 -94 2.5 -131t13.5 -86q-36 -13 -74 -13q-14 0 -20 6.5t-6 24.5v205q-14 -17 -28 -17q-13 0 -13 17q25 8 69 42.5t51 34.5t7 -8zM97 20q0 45 26 95t63 96l74 91q37 45 63 94.5
t26 92.5q0 57 -44 101q27 31 71 31q29 0 50.5 -16.5t21.5 -45.5q0 -42 -41 -106t-89.5 -120.5t-89.5 -126t-41 -122.5q0 -66 60 -102q-8 -18 -29.5 -29t-45.5 -11q-32 0 -53.5 19.5t-21.5 58.5z" />
    <glyph glyph-name="onehalf" unicode="&#xbd;" horiz-adv-x="577" 
d="M522 78q6 0 13 -8.5t7 -23.5q0 -20 -15 -37t-44 -17q-23 0 -58.5 14.5t-51.5 14.5q-23 0 -46 -20q-9 0 -9 10q0 4 14 15.5t34 30t40 42t34 58.5t14 72q0 46 -30 46q-9 0 -16 -7.5t-7 -20.5q0 -16 9 -31q-16 -15 -39 -15q-17 0 -29.5 10t-12.5 25q0 28 33 43.5t69 15.5
q91 0 91 -64q0 -32 -20 -65.5t-40.5 -53t-51 -43.5t-32.5 -26q18 7 36 7q13 0 35.5 -4.5t30.5 -4.5q28 0 42 37zM172 587l-2 -75q0 -94 2.5 -131t13.5 -86q-36 -13 -74 -13q-14 0 -20 6.5t-6 24.5v205q-16 -17 -31 -17q-10 0 -10 17q25 8 69 42.5t51 34.5t7 -8zM97 20
q0 45 26 95t63 95l74 91q37 46 63 95.5t26 92.5q0 57 -44 101q27 31 71 31q29 0 50.5 -16.5t21.5 -45.5q0 -42 -41 -106t-89.5 -120.5t-89.5 -126t-41 -122.5q0 -66 60 -102q-8 -18 -29.5 -29t-45.5 -11q-32 0 -53.5 19.5t-21.5 58.5z" />
    <glyph glyph-name="threequarters" unicode="&#xbe;" horiz-adv-x="625" 
d="M318 81q0 4 19 21.5t41.5 40.5t41.5 67t19 94q71 0 71 -40q0 -16 -8 -36t-24 -42t-27.5 -36.5t-32.5 -38t-24 -27.5q10 0 62 2q4 49 16.5 67t36.5 18q27 0 37 -5q-11 -6 -14.5 -22t-3.5 -59q25 0 50 17q12 -5 12 -19q0 -8 -6.5 -14t-18.5 -6q-9 0 -36 3q4 -39 11 -72
q-28 -11 -65 -11q-21 0 -21 24v62q-87 -2 -121 -13q-4 0 -9.5 9t-5.5 16zM239 516q-2 -54 -89 -86l-2 -1q6 1 21 1q40 0 68.5 -15.5t28.5 -48.5q0 -43 -41 -73t-102 -30q-33 0 -55.5 11.5t-22.5 28.5q0 18 25 30q3 -11 5.5 -17t8.5 -15.5t17.5 -14.5t27.5 -5q37 0 57.5 21
t20.5 52q0 27 -15.5 44.5t-45.5 17.5q-4 0 -10.5 -0.5t-8.5 -0.5q-11 0 -11 17q66 46 66 89q0 26 -27 26q-32 0 -32 -28q0 -13 7 -24q-14 -17 -35 -17q-14 0 -23.5 8.5t-9.5 23.5q0 25 31.5 41.5t65.5 16.5q32 0 56 -14t24 -38zM147 20q0 45 26 95t63 96l74 91
q37 45 63 94.5t26 92.5q0 57 -44 101q27 31 71 31q29 0 50.5 -16.5t21.5 -45.5q0 -42 -41 -106t-89.5 -120.5t-89.5 -126t-41 -122.5q0 -66 60 -102q-8 -18 -29.5 -29t-45.5 -11q-32 0 -53.5 19.5t-21.5 58.5z" />
    <glyph glyph-name="questiondown" unicode="&#xbf;" horiz-adv-x="543" 
d="M190 205q0 33 18.5 51t45.5 18q33 0 58 -27.5t25 -77.5q0 -40 -18.5 -73.5t-44.5 -58.5l-54 -51q-26 -26 -44.5 -64.5t-18.5 -86.5q0 -137 106 -137q46 0 73 29.5t27 75.5q0 42 -25 86q34 27 75 27q37 0 61 -22t24 -61q0 -70 -79 -112.5t-177 -42.5q-95 0 -156 41
t-61 114q0 59 29 100.5t70.5 64t83 41t70.5 44t29 60.5q0 33 -22 51.5t-54 18.5q-22 0 -41 -8zM250 318q-33 0 -52.5 21t-19.5 51q0 34 21 57t57 23q34 0 53 -21t19 -51q0 -35 -22 -57.5t-56 -22.5z" />
    <glyph glyph-name="Agrave" unicode="&#xc0;" horiz-adv-x="701" 
d="M558 -5q-59 0 -94.5 53.5t-71.5 173.5h-269q-34 -92 -34 -113q0 -51 27 -94q-22 -20 -54 -20q-20 0 -33.5 10t-13.5 30q0 32 38.5 122.5t84 186.5t84 203t38.5 168q0 9 -2 25q9 9 37 9q46 0 79.5 -45t59.5 -124l55 -167q28 -88 78.5 -193.5t115.5 -184.5
q-48 -40 -125 -40zM276 620q-4 -24 -27 -84l-62 -156l-56 -138h255l-29 102l-39 139q-20 70 -42 137zM361 807q-5 -6 -21 -6q-57 0 -135 42t-78 98q0 27 16 42.5t40 15.5q23 0 43 -14q8 -65 44.5 -112t90.5 -66z" />
    <glyph glyph-name="Aacute" unicode="&#xc1;" horiz-adv-x="673" 
d="M546 -5q-59 0 -94.5 53.5t-71.5 173.5h-269q-34 -92 -34 -113q0 -51 27 -94q-22 -20 -54 -20q-20 0 -33.5 10t-13.5 30q0 32 38.5 122.5t84 186.5t84 203t38.5 168q0 9 -2 25q9 9 37 9q46 0 79.5 -45t59.5 -124l55 -167q28 -88 78.5 -193.5t115.5 -184.5
q-48 -40 -125 -40zM264 620q-4 -24 -27 -84l-62 -156l-56 -138h255l-29 102l-39 139q-20 70 -42 137zM241 802q54 19 90.5 66t44.5 112q20 14 43 14q24 0 40 -15.5t16 -42.5q0 -56 -78 -98t-135 -42q-16 0 -21 6z" />
    <glyph glyph-name="Acircumflex" unicode="&#xc2;" horiz-adv-x="673" 
d="M546 -5q-59 0 -94.5 53.5t-71.5 173.5h-269q-34 -92 -34 -113q0 -51 27 -94q-22 -20 -54 -20q-20 0 -33.5 10t-13.5 30q0 32 38.5 122.5t84 186.5t84 203t38.5 168q0 9 -2 25q9 9 37 9q46 0 79.5 -45t59.5 -124l55 -167q28 -88 78.5 -193.5t115.5 -184.5
q-48 -40 -125 -40zM264 620q-4 -24 -27 -84l-62 -156l-56 -138h255l-29 102l-39 139q-20 70 -42 137zM292 883q-108 -85 -143 -85q-16 0 -25 12q10 10 44 40l67 62q33 31 57 60q24 -29 57 -60l67 -62q34 -30 44 -40q-9 -12 -25 -12q-35 0 -143 85z" />
    <glyph glyph-name="Atilde" unicode="&#xc3;" horiz-adv-x="673" 
d="M546 -5q-59 0 -94.5 53.5t-71.5 173.5h-269q-34 -92 -34 -113q0 -51 27 -94q-22 -20 -54 -20q-20 0 -33.5 10t-13.5 30q0 32 38.5 122.5t84 186.5t84 203t38.5 168q0 9 -2 25q9 9 37 9q46 0 79.5 -45t59.5 -124l55 -167q28 -88 78.5 -193.5t115.5 -184.5
q-48 -40 -125 -40zM264 620q-4 -24 -27 -84l-62 -156l-56 -138h255l-29 102l-39 139q-20 70 -42 137zM497 939q10 -1 10 -28q0 -35 -32 -76t-94 -41q-28 0 -78.5 26t-73.5 26q-30 0 -54 -13t-29 -39q-10 2 -10 26q0 41 33.5 80t92.5 39q30 0 79.5 -26t72.5 -26q34 0 57 15.5
t26 36.5z" />
    <glyph glyph-name="Adieresis" unicode="&#xc4;" horiz-adv-x="673" 
d="M546 -5q-59 0 -94.5 53.5t-71.5 173.5h-269q-34 -92 -34 -113q0 -51 27 -94q-22 -20 -54 -20q-20 0 -33.5 10t-13.5 30q0 32 38.5 122.5t84 186.5t84 203t38.5 168q0 9 -2 25q9 9 37 9q46 0 79.5 -45t59.5 -124l55 -167q28 -88 78.5 -193.5t115.5 -184.5
q-48 -40 -125 -40zM264 620q-4 -24 -27 -84l-62 -156l-56 -138h255l-29 102l-39 139q-20 70 -42 137zM214 933q62 0 62 -60q0 -34 -19 -55.5t-54 -21.5q-61 0 -61 61q0 32 20 54t52 22zM386 933q62 0 62 -60q0 -34 -19 -55.5t-54 -21.5q-61 0 -61 61q0 32 20 54t52 22z" />
    <glyph glyph-name="Aring" unicode="&#xc5;" horiz-adv-x="673" 
d="M546 -5q-59 0 -94.5 53.5t-71.5 173.5h-269q-34 -92 -34 -113q0 -51 27 -94q-22 -20 -54 -20q-20 0 -33.5 10t-13.5 30q0 32 38.5 122.5t84 186.5t84 203t38.5 168q0 9 -2 25q9 9 37 9q46 0 79.5 -45t59.5 -124l55 -167q28 -88 78.5 -193.5t115.5 -184.5
q-48 -40 -125 -40zM264 620q-4 -24 -27 -84l-62 -156l-56 -138h255l-29 102l-39 139q-20 70 -42 137zM171 899q0 50 38 78t89 28q50 0 86 -27.5t36 -78.5q0 -49 -38.5 -77.5t-89.5 -28.5q-50 0 -85.5 27.5t-35.5 78.5zM304 813q21 0 32.5 21.5t11.5 52.5q0 38 -15.5 68
t-41.5 30q-21 0 -32.5 -21.5t-11.5 -52.5q0 -38 15.5 -68t41.5 -30z" />
    <glyph glyph-name="AE" unicode="&#xc6;" horiz-adv-x="885" 
d="M830 1q-49 0 -175 -1h-126q-44 0 -67 4t-27.5 8t-5.5 12q8 78 9 174h-311q-39 -57 -39 -102q0 -39 28 -89q-22 -20 -54 -20q-23 0 -41 13t-18 42q0 35 42 97t102 133l119 145q60 75 102.5 154.5t43.5 140.5q0 7 -2 23q9 9 37 9h362q34 0 49 -15.5t15 -38.5q0 -28 -14 -42
q-92 76 -285 76v-332q158 0 235 18q4 -8 4 -19q0 -25 -36 -25q-11 0 -95 3t-108 3v-357q104 0 171.5 19t123.5 58q14 -14 14 -42q0 -49 -53 -49zM428 621q-47 -95 -97 -168.5t-117.5 -151.5t-71.5 -83h296q1 39 1 126q0 60 -1.5 114t-3.5 82.5t-4 53.5t-2 27z" />
    <glyph glyph-name="Ccedilla" unicode="&#xc7;" 
d="M294 -128l54 125q-144 11 -224 103.5t-80 251.5q0 96 30.5 173.5t81 125t111.5 73t126 25.5q121 0 189 -48t68 -109q0 -34 -21.5 -50.5t-50.5 -16.5q-44 0 -75 23q6 27 6 55q0 56 -28.5 91t-88.5 35q-197 0 -197 -349q0 -149 52.5 -241t166.5 -92q71 0 138.5 33.5
t101.5 73.5q4 0 4 -7q0 -10 -19.5 -34t-52 -51t-85 -47t-109.5 -20h-16l-24 -44q54 0 81.5 -23.5t27.5 -59.5q0 -50 -46 -92t-116 -42q-87 0 -87 40q0 15 11 23.5t24 8.5q13 -50 59 -50q31 0 46.5 12.5t15.5 32.5q0 26 -22 48.5t-52 22.5z" />
    <glyph glyph-name="Egrave" unicode="&#xc8;" horiz-adv-x="571" 
d="M207 744h276q34 0 49 -15.5t15 -38.5q0 -28 -14 -42q-92 76 -285 76v-332q158 0 235 18q4 -8 4 -19q0 -25 -36 -25q-11 0 -95 3t-108 3v-357q104 0 171.5 19t123.5 58q14 -14 14 -42q0 -23 -15 -38.5t-49 -15.5l-278 -1q-92 0 -128 12q15 147 15 337q0 366 -38 373
q7 10 44 18.5t99 8.5zM381 803q-5 -6 -21 -6q-57 0 -135 42t-78 98q0 27 16 42.5t40 15.5q23 0 43 -14q8 -65 44.5 -112t90.5 -66z" />
    <glyph glyph-name="Eacute" unicode="&#xc9;" horiz-adv-x="571" 
d="M207 744h276q34 0 49 -15.5t15 -38.5q0 -28 -14 -42q-92 76 -285 76v-332q158 0 235 18q4 -8 4 -19q0 -25 -36 -25q-11 0 -95 3t-108 3v-357q104 0 171.5 19t123.5 58q14 -14 14 -42q0 -23 -15 -38.5t-49 -15.5l-278 -1q-92 0 -128 12q15 147 15 337q0 366 -38 373
q7 10 44 18.5t99 8.5zM235 804q54 19 90.5 66t44.5 112q20 14 43 14q24 0 40 -15.5t16 -42.5q0 -56 -78 -98t-135 -42q-16 0 -21 6z" />
    <glyph glyph-name="Ecircumflex" unicode="&#xca;" horiz-adv-x="571" 
d="M207 744h276q34 0 49 -15.5t15 -38.5q0 -28 -14 -42q-92 76 -285 76v-332q158 0 235 18q4 -8 4 -19q0 -25 -36 -25q-11 0 -95 3t-108 3v-357q104 0 171.5 19t123.5 58q14 -14 14 -42q0 -23 -15 -38.5t-49 -15.5l-278 -1q-92 0 -128 12q15 147 15 337q0 366 -38 373
q7 10 44 18.5t99 8.5zM308 881q-108 -85 -143 -85q-16 0 -25 12q10 10 44 40l67 61q33 32 57 61q24 -29 57 -61l67 -61q34 -30 44 -40q-9 -12 -25 -12q-35 0 -143 85z" />
    <glyph glyph-name="Edieresis" unicode="&#xcb;" horiz-adv-x="571" 
d="M207 744h276q34 0 49 -15.5t15 -38.5q0 -28 -14 -42q-92 76 -285 76v-332q158 0 235 18q4 -8 4 -19q0 -25 -36 -25q-11 0 -95 3t-108 3v-357q104 0 171.5 19t123.5 58q14 -14 14 -42q0 -23 -15 -38.5t-49 -15.5l-278 -1q-92 0 -128 12q15 147 15 337q0 366 -38 373
q7 10 44 18.5t99 8.5zM402 941q62 0 62 -60q0 -34 -19 -55.5t-54 -21.5q-61 0 -61 61q0 32 20 54t52 22zM230 941q62 0 62 -60q0 -34 -19 -55.5t-54 -21.5q-61 0 -61 61q0 32 20 54t52 22z" />
    <glyph glyph-name="Igrave" unicode="&#xcc;" horiz-adv-x="342" 
d="M183 749q41 0 52 -18t11 -93q0 -43 -0.5 -110t-0.5 -101q0 -347 33 -404q-16 -10 -53 -19t-73 -9q-38 0 -49.5 21t-11.5 72q0 12 3 98.5t3 172.5q0 347 -33 353q10 13 47 25t72 12zM224 806q-4 -6 -21 -6q-57 0 -135 42t-78 98q0 27 16 42.5t40 15.5q23 0 43 -14
q8 -65 44.5 -112t90.5 -66z" />
    <glyph glyph-name="Iacute" unicode="&#xcd;" horiz-adv-x="338" 
d="M183 749q41 0 52 -18t11 -93q0 -43 -0.5 -110t-0.5 -101q0 -347 33 -404q-16 -10 -53 -19t-73 -9q-38 0 -49.5 21t-11.5 72q0 12 3 98.5t3 172.5q0 347 -33 353q10 13 47 25t72 12zM95 808q54 19 90.5 66t44.5 112q20 14 43 14q24 0 40 -15.5t16 -42.5q0 -56 -78 -98
t-135 -42q-16 0 -21 6z" />
    <glyph glyph-name="Icircumflex" unicode="&#xce;" horiz-adv-x="464" 
d="M246 749q41 0 52 -18t11 -93q0 -43 -0.5 -110t-0.5 -101q0 -347 33 -404q-16 -10 -53 -19t-73 -9q-38 0 -49.5 21t-11.5 72q0 12 3 98.5t3 172.5q0 347 -33 353q10 13 47 25t72 12zM223 881q-108 -85 -143 -85q-16 0 -25 12q10 10 44 40l67 62q33 31 57 60q24 -29 57 -60
l67 -62q34 -30 44 -40q-9 -12 -25 -12q-35 0 -143 85z" />
    <glyph glyph-name="Idieresis" unicode="&#xcf;" horiz-adv-x="343" 
d="M184 749q41 0 52 -18t11 -93q0 -43 -0.5 -110t-0.5 -101q0 -347 33 -404q-16 -10 -53 -19t-73 -9q-38 0 -49.5 21t-11.5 72q0 12 3 98.5t3 172.5q0 347 -33 353q10 13 47 25t72 12zM81 933q62 0 62 -60q0 -34 -19 -55.5t-54 -21.5q-61 0 -61 61q0 32 20 54t52 22z
M253 933q62 0 62 -60q0 -34 -19 -55.5t-54 -21.5q-61 0 -61 61q0 32 20 54t52 22z" />
    <glyph glyph-name="Eth" unicode="&#xd0;" horiz-adv-x="576" 
d="M370 722q-26 -17 -65 -53q87 -51 150 -131.5t79 -186.5q7 -40 7 -75q0 -128 -69 -204.5t-196 -76.5q-107 2 -179 68.5t-72 201.5q0 128 69 204.5t196 76.5q21 0 42 -3q-28 50 -67 89l-66 -63q-12 -12 -25 -12q-10 0 -15.5 11t-5.5 23q41 33 78 70q-56 42 -131 63
q0 7 15 7q65 0 148 -40q13 13 59 55q14 12 23 12q11 0 18 -10.5t7 -25.5zM390 283q0 19 -2 53q-16 191 -106 191q-39 0 -64 -37t-34 -90.5t-9 -122.5q0 -48 5 -90.5t16 -83t33.5 -64.5t54.5 -24q39 0 64 37t34 90.5t9 122.5v18h-1z" />
    <glyph glyph-name="Ntilde" unicode="&#xd1;" horiz-adv-x="742" 
d="M567 723q2 9 20.5 18t38.5 9q53 0 53 -59q0 -542 -19 -680q-24 -16 -69 -16q-46 0 -97 47t-94 118.5t-88.5 158t-82 162.5t-72.5 135.5t-61 75.5q21 -347 36 -486t37 -196q-31 -12 -51 -12q-26 0 -36 22t-10 71q0 25 6.5 144t6.5 216q0 72 -6.5 167t-14.5 102
q12 11 49 20t71 9q47 0 86 -44t74 -121l72 -163q38 -85 99 -186t134 -175q5 138 5 223q0 171 -19.5 271.5t-67.5 168.5zM562 942q10 -1 10 -28q0 -35 -32 -76t-94 -41q-28 0 -78.5 26t-73.5 26q-30 0 -54 -13t-29 -39q-10 3 -10 26q0 41 33.5 80t92.5 39q30 0 79.5 -26
t72.5 -26q34 0 57 15.5t26 36.5z" />
    <glyph glyph-name="Ograve" unicode="&#xd2;" horiz-adv-x="796" 
d="M398 729q-50 0 -87 -21t-58.5 -54.5t-34.5 -83.5t-17.5 -99t-4.5 -110q0 -153 50 -249.5t152 -96.5q50 0 87 20t58.5 51.5t34.5 79.5t17.5 96t4.5 109q0 99 -19.5 177t-66.5 129.5t-116 51.5zM398 -5q-162 0 -258 89.5t-96 258.5q0 177 99 291.5t255 114.5
q160 0 257 -94.5t97 -265.5q0 -176 -98.5 -285t-255.5 -109zM464 802q-4 -6 -21 -6q-57 0 -135 42t-78 98q0 27 16 42.5t40 15.5q23 0 43 -14q8 -65 44.5 -112t90.5 -66z" />
    <glyph glyph-name="Oacute" unicode="&#xd3;" horiz-adv-x="796" 
d="M398 729q-50 0 -87 -21t-58.5 -54.5t-34.5 -83.5t-17.5 -99t-4.5 -110q0 -153 50 -249.5t152 -96.5q50 0 87 20t58.5 51.5t34.5 79.5t17.5 96t4.5 109q0 99 -19.5 177t-66.5 129.5t-116 51.5zM398 -5q-162 0 -258 89.5t-96 258.5q0 177 99 291.5t255 114.5
q160 0 257 -94.5t97 -265.5q0 -176 -98.5 -285t-255.5 -109zM344 802q54 19 90.5 66t44.5 112q20 14 43 14q24 0 40 -15.5t16 -42.5q0 -56 -78 -98t-135 -42q-17 0 -21 6z" />
    <glyph glyph-name="Ocircumflex" unicode="&#xd4;" horiz-adv-x="796" 
d="M398 729q-50 0 -87 -21t-58.5 -54.5t-34.5 -83.5t-17.5 -99t-4.5 -110q0 -153 50 -249.5t152 -96.5q50 0 87 20t58.5 51.5t34.5 79.5t17.5 96t4.5 109q0 99 -19.5 177t-66.5 129.5t-116 51.5zM398 -5q-162 0 -258 89.5t-96 258.5q0 177 99 291.5t255 114.5
q160 0 257 -94.5t97 -265.5q0 -176 -98.5 -285t-255.5 -109zM407 882q-108 -85 -143 -85q-16 0 -25 12q10 10 44 40l67 61q33 32 57 61q24 -29 57 -61l67 -61q34 -30 44 -40q-9 -12 -25 -12q-35 0 -143 85z" />
    <glyph glyph-name="Otilde" unicode="&#xd5;" horiz-adv-x="796" 
d="M398 729q-50 0 -87 -21t-58.5 -54.5t-34.5 -83.5t-17.5 -99t-4.5 -110q0 -153 50 -249.5t152 -96.5q50 0 87 20t58.5 51.5t34.5 79.5t17.5 96t4.5 109q0 99 -19.5 177t-66.5 129.5t-116 51.5zM398 -5q-162 0 -258 89.5t-96 258.5q0 177 99 291.5t255 114.5
q160 0 257 -94.5t97 -265.5q0 -176 -98.5 -285t-255.5 -109zM587 942q10 -1 10 -28q0 -35 -32 -76t-94 -41q-28 0 -78.5 26t-73.5 26q-30 0 -54 -13t-29 -39q-10 3 -10 26q0 41 33.5 80t92.5 39q30 0 79.5 -26t72.5 -26q34 0 57 15.5t26 36.5z" />
    <glyph glyph-name="Odieresis" unicode="&#xd6;" horiz-adv-x="796" 
d="M398 729q-50 0 -87 -21t-58.5 -54.5t-34.5 -83.5t-17.5 -99t-4.5 -110q0 -153 50 -249.5t152 -96.5q50 0 87 20t58.5 51.5t34.5 79.5t17.5 96t4.5 109q0 99 -19.5 177t-66.5 129.5t-116 51.5zM398 -5q-162 0 -258 89.5t-96 258.5q0 177 99 291.5t255 114.5
q160 0 257 -94.5t97 -265.5q0 -176 -98.5 -285t-255.5 -109zM314 939q62 0 62 -60q0 -34 -19 -55.5t-54 -21.5q-61 0 -61 61q0 32 20 54t52 22zM486 939q62 0 62 -60q0 -34 -19 -55.5t-54 -21.5q-61 0 -61 61q0 32 20 54t52 22z" />
    <glyph glyph-name="multiply" unicode="&#xd7;" horiz-adv-x="507" 
d="M123 482q13 0 25 -4t24.5 -14t21.5 -18t23 -26.5t21 -29.5l24 -35l24 -35l153 145q13 12 24 12q10 0 17 -11t7 -25q-32 -22 -175 -158q87 -119 180 -166q-34 -51 -87 -51q-36 0 -73 37.5t-91 110.5l-67 -64l-56 -54q-20 -20 -24 -23q-13 -12 -27 -12q-10 0 -15.5 11
t-5.5 23q23 19 168 156q-53 71 -94.5 114.5t-83.5 58.5q0 18 25.5 38t61.5 20z" />
    <glyph glyph-name="Oslash" unicode="&#xd8;" horiz-adv-x="796" 
d="M398 -5q-117 0 -199 46q6 -56 60 -88q-8 -18 -29.5 -29t-45.5 -11q-32 0 -53.5 19.5t-21.5 58.5q0 38 33 91q-98 92 -98 261q0 177 99 291.5t255 114.5q116 0 199 -50q-6 45 -43 83q27 31 71 31q29 0 50.5 -16.5t21.5 -45.5q0 -31 -44 -95q99 -96 99 -267
q0 -176 -98.5 -285t-255.5 -109zM576 558l-116 -130q-88 -97 -143 -164.5t-86 -120.5q51 -128 167 -128q50 0 87 20t58.5 51.5t34.5 79.5t17.5 96t4.5 109q0 105 -24 187zM398 729q-50 0 -87 -21t-58.5 -54.5t-34.5 -83.5t-17.5 -99t-4.5 -110q0 -104 21 -177
q28 34 167.5 187t180.5 221q-52 137 -167 137z" />
    <glyph glyph-name="Ugrave" unicode="&#xd9;" 
d="M246 637q0 -58 -1 -181v-172q0 -139 29 -205t113 -66q90 0 139 75.5t49 212.5q0 55 -12 176t-12 170q0 50 10.5 74t39.5 24q14 0 32 -6q-31 -63 -31 -213q0 -26 1 -76t1 -78q0 -80 -6 -135.5t-22.5 -104.5t-45.5 -77.5t-76 -45t-113 -16.5q-43 0 -78 6t-59.5 19.5
t-42.5 28.5t-29.5 40t-18 45.5t-9.5 55t-4 58.5t-1 64q0 394 -35 402q10 13 45.5 25t79.5 12q36 0 46.5 -19.5t10.5 -92.5zM451 803q-5 -6 -21 -6q-57 0 -135 42t-78 98q0 27 16 42.5t40 15.5q23 0 43 -14q8 -65 44.5 -112t90.5 -66z" />
    <glyph glyph-name="Uacute" unicode="&#xda;" 
d="M246 637q0 -58 -1 -181v-172q0 -139 29 -205t113 -66q90 0 139 75.5t49 212.5q0 55 -12 176t-12 170q0 50 10.5 74t39.5 24q14 0 32 -6q-31 -63 -31 -213q0 -26 1 -76t1 -78q0 -80 -6 -135.5t-22.5 -104.5t-45.5 -77.5t-76 -45t-113 -16.5q-43 0 -78 6t-59.5 19.5
t-42.5 28.5t-29.5 40t-18 45.5t-9.5 55t-4 58.5t-1 64q0 394 -35 402q10 13 45.5 25t79.5 12q36 0 46.5 -19.5t10.5 -92.5zM326 801q54 19 90.5 66t44.5 112q20 14 43 14q24 0 40 -15.5t16 -42.5q0 -56 -78 -98t-135 -42q-17 0 -21 6z" />
    <glyph glyph-name="Ucircumflex" unicode="&#xdb;" 
d="M246 637q0 -58 -1 -181v-172q0 -139 29 -205t113 -66q90 0 139 75.5t49 212.5q0 55 -12 176t-12 170q0 50 10.5 74t39.5 24q14 0 32 -6q-31 -63 -31 -213q0 -26 1 -76t1 -78q0 -80 -6 -135.5t-22.5 -104.5t-45.5 -77.5t-76 -45t-113 -16.5q-43 0 -78 6t-59.5 19.5
t-42.5 28.5t-29.5 40t-18 45.5t-9.5 55t-4 58.5t-1 64q0 394 -35 402q10 13 45.5 25t79.5 12q36 0 46.5 -19.5t10.5 -92.5zM391 882q-108 -85 -143 -85q-16 0 -25 12q10 10 44 40l67 61q33 32 57 61q24 -29 57 -61l67 -61q34 -30 44 -40q-9 -12 -25 -12q-35 0 -143 85z" />
    <glyph glyph-name="Udieresis" unicode="&#xdc;" 
d="M246 637q0 -58 -1 -181v-172q0 -139 29 -205t113 -66q90 0 139 75.5t49 212.5q0 55 -12 176t-12 170q0 50 10.5 74t39.5 24q14 0 32 -6q-31 -63 -31 -213q0 -26 1 -76t1 -78q0 -80 -6 -135.5t-22.5 -104.5t-45.5 -77.5t-76 -45t-113 -16.5q-43 0 -78 6t-59.5 19.5
t-42.5 28.5t-29.5 40t-18 45.5t-9.5 55t-4 58.5t-1 64q0 394 -35 402q10 13 45.5 25t79.5 12q36 0 46.5 -19.5t10.5 -92.5zM297 938q62 0 62 -60q0 -34 -19 -55.5t-54 -21.5q-61 0 -61 61q0 32 20 54t52 22zM469 938q62 0 62 -60q0 -34 -19 -55.5t-54 -21.5q-61 0 -61 61
q0 32 20 54t52 22z" />
    <glyph glyph-name="Yacute" unicode="&#xdd;" horiz-adv-x="662" 
d="M306 339l-41 80l-41 81q-15 30 -38 69t-41.5 60t-41.5 36.5t-46 15.5q-30 0 -51 -7q-4 2 -4 8q0 18 65.5 40t116.5 22q34 0 64.5 -20t57.5 -58t48 -76l50 -89q28 -52 48 -83q111 136 111 220q0 56 -24 80q18 23 59 23q62 0 62 -49q0 -50 -62.5 -131.5t-144.5 -156.5
q0 -310 34 -381q-47 -28 -126 -28q-37 0 -49 20.5t-12 80.5q0 22 2.5 101t3.5 142zM346 803q54 19 90.5 66t44.5 112q20 14 43 14q24 0 40 -15.5t16 -42.5q0 -56 -78 -98t-135 -42q-17 0 -21 6z" />
    <glyph glyph-name="Thorn" unicode="&#xde;" horiz-adv-x="666" 
d="M246 399v-219q0 -165 93 -165q65 0 95 69t30 180q0 114 -26.5 158t-75.5 44q-64 0 -116 -67zM92 -117v714q0 117 -9 138q-8 20 -39 20q-17 0 -36 -4q-1 1 -1 3q0 14 55 31t108 17q48 0 62 -23t14 -94v-261q24 51 71 86.5t112 35.5q80 0 133.5 -59.5t53.5 -181.5
q0 -138 -71 -224t-206 -86q-44 0 -86 16q0 -78 17 -203q-63 -21 -131 -21q-32 0 -39.5 19t-7.5 77z" />
    <glyph glyph-name="germandbls" unicode="&#xdf;" horiz-adv-x="680" 
d="M477 658q0 -36 -18.5 -62.5t-44.5 -42.5t-52 -29.5t-44.5 -33t-18.5 -44.5q0 -38 38 -68.5t93 -51.5l108 -44q55 -22 93 -56.5t38 -78.5q0 -76 -65 -114t-162 -38q-81 0 -135 30.5t-54 87.5q0 33 19.5 52t46.5 19q30 0 50 -19q-9 -23 -9 -46q0 -42 25 -73t67 -31
q76 0 76 86q0 36 -27.5 66t-67.5 53l-78 49q-39 26 -66.5 65t-27.5 87q0 25 10 44t24.5 32t28.5 27.5t24 40t10 60.5q0 141 -75 141q-68 0 -68 -128q0 -436 20 -622q-15 -6 -56.5 -13.5t-67.5 -7.5q-30 0 -37.5 13t-7.5 50l-2 541q0 92 53.5 139.5t175.5 47.5
q75 0 129.5 -36.5t54.5 -91.5z" />
    <glyph glyph-name="agrave" unicode="&#xe0;" horiz-adv-x="600" 
d="M577 75q2 -2 2 -4q0 -18 -52 -45t-100 -27q-44 0 -59 30t-15 90q-26 -55 -73.5 -89.5t-106.5 -34.5q-58 0 -96 30t-38 85q0 144 313 175v147q0 53 -14.5 74t-50.5 21q-33 0 -51 -20.5t-18 -52.5q0 -45 27 -75q-35 -35 -96 -35q-37 0 -61 18t-24 55q0 34 21.5 59.5
t57.5 40.5t77 22t85 7q42 0 74 -6.5t61.5 -23t45.5 -49.5t16 -82l-1 -256q0 -38 8 -51t27 -13q18 0 41 10zM255 89q55 0 97 49v127q-72 -8 -112.5 -38t-40.5 -72q0 -32 15.5 -49t40.5 -17zM354 592q-4 -6 -21 -6q-57 0 -135 42t-78 98q0 27 16 42.5t40 15.5q23 0 43 -14
q8 -65 44.5 -112t90.5 -66z" />
    <glyph glyph-name="aacute" unicode="&#xe1;" horiz-adv-x="600" 
d="M577 75q2 -2 2 -4q0 -18 -52 -45t-100 -27q-44 0 -59 30t-15 90q-26 -55 -73.5 -89.5t-106.5 -34.5q-58 0 -96 30t-38 85q0 144 313 175v147q0 53 -14.5 74t-50.5 21q-33 0 -51 -20.5t-18 -52.5q0 -45 27 -75q-35 -35 -96 -35q-37 0 -61 18t-24 55q0 34 21.5 59.5
t57.5 40.5t77 22t85 7q42 0 74 -6.5t61.5 -23t45.5 -49.5t16 -82l-1 -256q0 -38 8 -51t27 -13q18 0 41 10zM255 89q55 0 97 49v127q-72 -8 -112.5 -38t-40.5 -72q0 -32 15.5 -49t40.5 -17zM245 592q54 19 90.5 66t44.5 112q20 14 43 14q24 0 40 -15.5t16 -42.5
q0 -56 -78 -98t-135 -42q-16 0 -21 6z" />
    <glyph glyph-name="acircumflex" unicode="&#xe2;" horiz-adv-x="600" 
d="M577 75q2 -2 2 -4q0 -18 -52 -45t-100 -27q-44 0 -59 30t-15 90q-26 -55 -73.5 -89.5t-106.5 -34.5q-58 0 -96 30t-38 85q0 144 313 175v147q0 53 -14.5 74t-50.5 21q-33 0 -51 -20.5t-18 -52.5q0 -45 27 -75q-35 -35 -96 -35q-37 0 -61 18t-24 55q0 34 21.5 59.5
t57.5 40.5t77 22t85 7q42 0 74 -6.5t61.5 -23t45.5 -49.5t16 -82l-1 -256q0 -38 8 -51t27 -13q18 0 41 10zM255 89q55 0 97 49v127q-72 -8 -112.5 -38t-40.5 -72q0 -32 15.5 -49t40.5 -17zM299 672q-108 -85 -143 -85q-16 0 -25 12q10 10 44 40l67 61q33 32 57 61
q24 -29 57 -61l67 -61q34 -30 44 -40q-9 -12 -25 -12q-35 0 -143 85z" />
    <glyph glyph-name="atilde" unicode="&#xe3;" horiz-adv-x="600" 
d="M577 75q2 -2 2 -4q0 -18 -52 -45t-100 -27q-44 0 -59 30t-15 90q-26 -55 -73.5 -89.5t-106.5 -34.5q-58 0 -96 30t-38 85q0 144 313 175v147q0 53 -14.5 74t-50.5 21q-33 0 -51 -20.5t-18 -52.5q0 -45 27 -75q-35 -35 -96 -35q-37 0 -61 18t-24 55q0 34 21.5 59.5
t57.5 40.5t77 22t85 7q42 0 74 -6.5t61.5 -23t45.5 -49.5t16 -82l-1 -256q0 -38 8 -51t27 -13q18 0 41 10zM478 731q10 -1 10 -28q0 -35 -32 -76t-94 -41q-28 0 -78.5 26t-73.5 26q-30 0 -54 -13t-29 -39q-10 2 -10 26q0 41 33.5 80t92.5 39q30 0 79.5 -26t72.5 -26
q34 0 57 15.5t26 36.5zM255 89q55 0 97 49v127q-72 -8 -112.5 -38t-40.5 -72q0 -32 15.5 -49t40.5 -17z" />
    <glyph glyph-name="adieresis" unicode="&#xe4;" horiz-adv-x="600" 
d="M577 75q2 -2 2 -4q0 -18 -52 -45t-100 -27q-44 0 -59 30t-15 90q-26 -55 -73.5 -89.5t-106.5 -34.5q-58 0 -96 30t-38 85q0 144 313 175v147q0 53 -14.5 74t-50.5 21q-33 0 -51 -20.5t-18 -52.5q0 -45 27 -75q-35 -35 -96 -35q-37 0 -61 18t-24 55q0 34 21.5 59.5
t57.5 40.5t77 22t85 7q42 0 74 -6.5t61.5 -23t45.5 -49.5t16 -82l-1 -256q0 -38 8 -51t27 -13q18 0 41 10zM255 89q55 0 97 49v127q-72 -8 -112.5 -38t-40.5 -72q0 -32 15.5 -49t40.5 -17zM223 721q62 0 62 -60q0 -34 -19 -55.5t-54 -21.5q-61 0 -61 61q0 32 20 54t52 22z
M395 721q62 0 62 -60q0 -34 -19 -55.5t-54 -21.5q-61 0 -61 61q0 32 20 54t52 22z" />
    <glyph glyph-name="aring" unicode="&#xe5;" horiz-adv-x="600" 
d="M577 75q2 -2 2 -4q0 -18 -52 -45t-100 -27q-44 0 -59 30t-15 90q-26 -55 -73.5 -89.5t-106.5 -34.5q-58 0 -96 30t-38 85q0 144 313 175v147q0 53 -14.5 74t-50.5 21q-33 0 -51 -20.5t-18 -52.5q0 -45 27 -75q-35 -35 -96 -35q-37 0 -61 18t-24 55q0 34 21.5 59.5
t57.5 40.5t77 22t85 7q42 0 74 -6.5t61.5 -23t45.5 -49.5t16 -82l-1 -256q0 -38 8 -51t27 -13q18 0 41 10zM164 692q0 50 38 78t89 28q50 0 86 -27.5t36 -78.5q0 -49 -38.5 -77.5t-89.5 -28.5q-50 0 -85.5 27.5t-35.5 78.5zM255 89q55 0 97 49v127q-72 -8 -112.5 -38
t-40.5 -72q0 -32 15.5 -49t40.5 -17zM297 606q21 0 32.5 21.5t11.5 52.5q0 38 -15.5 68t-41.5 30q-21 0 -32.5 -21.5t-11.5 -52.5q0 -38 15.5 -68t41.5 -30z" />
    <glyph glyph-name="ae" unicode="&#xe6;" horiz-adv-x="855" 
d="M702 310h-200q0 -47 -1 -68q6 -84 40.5 -142.5t104.5 -58.5q49 0 99 27t68 49q2 0 2 -5q0 -11 -15 -29.5t-41 -38.5t-70.5 -34.5t-95.5 -14.5q-167 0 -221 147q-32 -56 -88.5 -101.5t-109.5 -45.5q-58 0 -96 30t-38 85q0 144 313 175v150q0 56 -19 74t-54 18
q-30 0 -45.5 -21t-15.5 -52q0 -45 27 -75q-35 -35 -96 -35q-37 0 -61 18t-24 55q0 44 37.5 74.5t86 42.5t100.5 12q116 0 169 -43q64 43 158 43q100 0 152 -44t52 -109q0 -23 -7.5 -39.5t-17.5 -25t-28 -12.5t-31 -5t-34 -1zM686 402q0 125 -81 125q-49 0 -73.5 -45
t-28.5 -115v-36q14 0 62 -0.5t54 -0.5q39 0 53 14.5t14 57.5zM259 89q28 0 58 20t49 51q-13 46 -13 104q-70 -8 -110 -38t-40 -71q0 -32 15.5 -49t40.5 -17z" />
    <glyph glyph-name="ccedilla" unicode="&#xe7;" horiz-adv-x="530" 
d="M201 -128l54 124q-92 7 -153.5 70.5t-61.5 195.5q0 128 63.5 206t190.5 78q83 0 144.5 -32.5t61.5 -91.5q0 -34 -22 -51t-50 -17q-38 0 -56 20q2 28 2 40q0 113 -84 113q-101 0 -101 -233q0 -253 138 -253q54 0 100.5 26t65.5 50q3 0 3 -4q0 -10 -14.5 -28.5t-40 -38.5
t-68 -35t-90.5 -16l-24 -44q54 0 81.5 -23.5t27.5 -59.5q0 -50 -46 -92t-116 -42q-87 0 -87 40q0 15 11 23.5t24 8.5q12 -50 59 -50q31 0 46.5 12.5t15.5 32.5q0 26 -22 48.5t-52 22.5z" />
    <glyph glyph-name="egrave" unicode="&#xe8;" horiz-adv-x="552" 
d="M399 310h-201q-1 -10 -1 -31q0 -42 6.5 -80.5t22 -75.5t45.5 -59.5t72 -22.5q49 0 99 27t68 49q2 0 2 -5q0 -11 -15 -29.5t-41 -38.5t-70.5 -34.5t-95.5 -14.5q-117 0 -178.5 73.5t-61.5 196.5q0 124 65 202.5t198 78.5q100 0 152 -44t52 -109q0 -23 -7.5 -39.5
t-17.5 -25t-28 -12.5t-31 -5t-34 -1zM383 402q0 125 -81 125q-55 0 -79 -56.5t-24 -139.5q14 0 62.5 -0.5t54.5 -0.5q39 0 53 14.5t14 57.5zM382 587q-4 -6 -21 -6q-57 0 -135 42t-78 98q0 27 16 42.5t40 15.5q23 0 43 -14q8 -65 44.5 -112t90.5 -66z" />
    <glyph glyph-name="eacute" unicode="&#xe9;" horiz-adv-x="552" 
d="M399 310h-201q-1 -10 -1 -31q0 -42 6.5 -80.5t22 -75.5t45.5 -59.5t72 -22.5q49 0 99 27t68 49q2 0 2 -5q0 -11 -15 -29.5t-41 -38.5t-70.5 -34.5t-95.5 -14.5q-117 0 -178.5 73.5t-61.5 196.5q0 124 65 202.5t198 78.5q100 0 152 -44t52 -109q0 -23 -7.5 -39.5
t-17.5 -25t-28 -12.5t-31 -5t-34 -1zM383 402q0 125 -81 125q-55 0 -79 -56.5t-24 -139.5q14 0 62.5 -0.5t54.5 -0.5q39 0 53 14.5t14 57.5zM273 590q54 19 90.5 66t44.5 112q20 14 43 14q24 0 40 -15.5t16 -42.5q0 -56 -78 -98t-135 -42q-16 0 -21 6z" />
    <glyph glyph-name="ecircumflex" unicode="&#xea;" horiz-adv-x="552" 
d="M399 310h-201q-1 -10 -1 -31q0 -42 6.5 -80.5t22 -75.5t45.5 -59.5t72 -22.5q49 0 99 27t68 49q2 0 2 -5q0 -11 -15 -29.5t-41 -38.5t-70.5 -34.5t-95.5 -14.5q-117 0 -178.5 73.5t-61.5 196.5q0 124 65 202.5t198 78.5q100 0 152 -44t52 -109q0 -23 -7.5 -39.5
t-17.5 -25t-28 -12.5t-31 -5t-34 -1zM383 402q0 125 -81 125q-55 0 -79 -56.5t-24 -139.5q14 0 62.5 -0.5t54.5 -0.5q39 0 53 14.5t14 57.5zM300 668q-108 -85 -143 -85q-16 0 -25 12q10 10 44 40l67 61q33 32 57 61q24 -29 57 -61l67 -61q34 -30 44 -40q-9 -12 -25 -12
q-35 0 -143 85z" />
    <glyph glyph-name="edieresis" unicode="&#xeb;" horiz-adv-x="552" 
d="M399 310h-201q-1 -10 -1 -31q0 -42 6.5 -80.5t22 -75.5t45.5 -59.5t72 -22.5q49 0 99 27t68 49q2 0 2 -5q0 -11 -15 -29.5t-41 -38.5t-70.5 -34.5t-95.5 -14.5q-117 0 -178.5 73.5t-61.5 196.5q0 124 65 202.5t198 78.5q100 0 152 -44t52 -109q0 -23 -7.5 -39.5
t-17.5 -25t-28 -12.5t-31 -5t-34 -1zM383 402q0 125 -81 125q-55 0 -79 -56.5t-24 -139.5q14 0 62.5 -0.5t54.5 -0.5q39 0 53 14.5t14 57.5zM224 738q62 0 62 -60q0 -34 -19 -55.5t-54 -21.5q-61 0 -61 61q0 32 20 54t52 22zM396 738q62 0 62 -60q0 -34 -19 -55.5t-54 -21.5
q-61 0 -61 61q0 32 20 54t52 22z" />
    <glyph glyph-name="igrave" unicode="&#xec;" horiz-adv-x="336" 
d="M211 592q-5 -6 -21 -6q-57 0 -135 42t-78 98q0 27 16 42.5t40 15.5q23 0 43 -14q8 -65 44.5 -112t90.5 -66zM241 422q0 -239 17 -406q-16 -6 -57 -13.5t-70 -7.5q-23 0 -32.5 11t-9.5 39q0 60 2 178.5t2 158.5q0 65 -11 88.5t-41 23.5q-17 0 -36 -4q-1 1 -1 3
q0 9 23.5 20t63.5 19.5t80 8.5q42 0 56 -25.5t14 -93.5z" />
    <glyph glyph-name="iacute" unicode="&#xed;" horiz-adv-x="330" 
d="M74 592q54 19 90.5 66t44.5 112q20 14 43 14q24 0 40 -15.5t16 -42.5q0 -56 -78 -98t-135 -42q-17 0 -21 6zM243 422q0 -239 17 -406q-16 -6 -57 -13.5t-70 -7.5q-23 0 -32.5 11t-9.5 39q0 60 2 178.5t2 158.5q0 65 -11 88.5t-41 23.5q-17 0 -36 -4q-1 1 -1 3
q0 9 23.5 20t63.5 19.5t80 8.5q42 0 56 -25.5t14 -93.5z" />
    <glyph glyph-name="icircumflex" unicode="&#xee;" horiz-adv-x="328" 
d="M245 422q0 -239 17 -406q-16 -6 -57 -13.5t-70 -7.5q-23 0 -32.5 11t-9.5 39q0 60 2 178.5t2 158.5q0 65 -11 88.5t-41 23.5q-17 0 -36 -4q-1 1 -1 3q0 9 23.5 20t63.5 19.5t80 8.5q42 0 56 -25.5t14 -93.5zM143 669q-108 -85 -143 -85q-16 0 -25 12q10 10 44 40l67 61
q33 32 57 61q24 -29 57 -61l67 -61q34 -30 44 -40q-9 -12 -25 -12q-35 0 -143 85z" />
    <glyph glyph-name="idieresis" unicode="&#xef;" horiz-adv-x="330" 
d="M247 422q0 -239 17 -406q-16 -6 -57 -13.5t-70 -7.5q-23 0 -32.5 11t-9.5 39q0 60 2 178.5t2 158.5q0 65 -11 88.5t-41 23.5q-17 0 -36 -4q-1 1 -1 3q0 9 23.5 20t63.5 19.5t80 8.5q42 0 56 -25.5t14 -93.5zM74 754q62 0 62 -60q0 -34 -19 -55.5t-54 -21.5q-61 0 -61 61
q0 32 20 54t52 22zM246 754q62 0 62 -60q0 -34 -19 -55.5t-54 -21.5q-61 0 -61 61q0 32 20 54t52 22z" />
    <glyph glyph-name="eth" unicode="&#xf0;" horiz-adv-x="576" 
d="M370 722q-26 -17 -65 -53q87 -51 150 -131.5t79 -186.5q7 -40 7 -75q0 -128 -69 -204.5t-196 -76.5q-107 2 -179 68.5t-72 201.5q0 128 69 204.5t196 76.5q21 0 42 -3q-28 50 -67 89l-66 -63q-12 -12 -25 -12q-10 0 -15.5 11t-5.5 23q41 33 78 70q-56 42 -131 63
q0 7 15 7q65 0 148 -40q13 13 59 55q14 12 23 12q11 0 18 -10.5t7 -25.5zM390 283q0 19 -2 53q-16 191 -106 191q-39 0 -64 -37t-34 -90.5t-9 -122.5q0 -48 5 -90.5t16 -83t33.5 -64.5t54.5 -24q39 0 64 37t34 90.5t9 122.5v18h-1z" />
    <glyph glyph-name="ntilde" unicode="&#xf1;" horiz-adv-x="650" 
d="M6 490q-1 1 -1 3q0 14 51.5 31t103.5 17q48 0 62.5 -23.5t14.5 -95.5q27 54 74.5 89t113.5 35q70 0 93.5 -41t23.5 -129q0 -35 0.5 -105.5t0.5 -105.5q0 -65 5.5 -85.5t25.5 -20.5q31 0 65 12q3 -1 3 -5q-1 -17 -48.5 -44t-99.5 -27q-55 0 -78 25t-23 79q-1 219 -1 257
q0 56 -13 76t-39 20q-57 0 -103 -55q0 -164 4 -234.5t21 -146.5q-15 -6 -60.5 -13.5t-72.5 -7.5q-30 0 -37.5 12.5t-7.5 49.5q0 49 5 157.5t5 164.5q0 69 -10.5 92t-42.5 23q-16 0 -35 -4zM511 731q10 -1 10 -28q0 -35 -32 -76t-94 -41q-28 0 -78.5 26t-73.5 26
q-30 0 -54 -13t-29 -39q-10 2 -10 26q0 41 33.5 80t92.5 39q30 0 79.5 -26t72.5 -26q34 0 57 15.5t26 36.5z" />
    <glyph glyph-name="ograve" unicode="&#xf2;" horiz-adv-x="614" 
d="M300 -5q-107 2 -179 68.5t-72 201.5q0 128 69 204.5t196 76.5q109 0 180 -68.5t71 -201.5q0 -128 -69 -204.5t-196 -76.5zM308 15q39 0 64 37t34 90.5t9 122.5q0 48 -5 90.5t-16 83t-33.5 64.5t-54.5 24q-39 0 -64 -37t-34 -90.5t-9 -122.5q0 -48 5 -90.5t16 -83
t33.5 -64.5t54.5 -24zM368 592q-4 -6 -21 -6q-33 0 -81 16.5t-89.5 50.5t-41.5 72q0 27 16 42.5t40 15.5q23 0 43 -14q8 -65 44 -111.5t90 -65.5z" />
    <glyph glyph-name="oacute" unicode="&#xf3;" horiz-adv-x="614" 
d="M300 -5q-107 2 -179 68.5t-72 201.5q0 128 69 204.5t196 76.5q109 0 180 -68.5t71 -201.5q0 -128 -69 -204.5t-196 -76.5zM308 15q39 0 64 37t34 90.5t9 122.5q0 48 -5 90.5t-16 83t-33.5 64.5t-54.5 24q-39 0 -64 -37t-34 -90.5t-9 -122.5q0 -48 5 -90.5t16 -83
t33.5 -64.5t54.5 -24zM250 590q54 19 90.5 66t44.5 112q20 14 43 14q24 0 40 -15.5t16 -42.5q0 -56 -78 -98t-135 -42q-17 0 -21 6z" />
    <glyph glyph-name="ocircumflex" unicode="&#xf4;" horiz-adv-x="614" 
d="M300 -5q-107 2 -179 68.5t-72 201.5q0 128 69 204.5t196 76.5q109 0 180 -68.5t71 -201.5q0 -128 -69 -204.5t-196 -76.5zM308 15q39 0 64 37t34 90.5t9 122.5q0 48 -5 90.5t-16 83t-33.5 64.5t-54.5 24q-39 0 -64 -37t-34 -90.5t-9 -122.5q0 -48 5 -90.5t16 -83
t33.5 -64.5t54.5 -24zM323 670q-108 -85 -143 -85q-16 0 -25 12q10 10 44 40l67 62q33 31 57 60q24 -29 57 -60l67 -62q34 -30 44 -40q-9 -12 -25 -12q-35 0 -143 85z" />
    <glyph glyph-name="otilde" unicode="&#xf5;" horiz-adv-x="614" 
d="M300 -5q-107 2 -179 68.5t-72 201.5q0 128 69 204.5t196 76.5q109 0 180 -68.5t71 -201.5q0 -128 -69 -204.5t-196 -76.5zM308 15q39 0 64 37t34 90.5t9 122.5q0 48 -5 90.5t-16 83t-33.5 64.5t-54.5 24q-39 0 -64 -37t-34 -90.5t-9 -122.5q0 -48 5 -90.5t16 -83
t33.5 -64.5t54.5 -24zM498 731q10 -1 10 -28q0 -35 -32 -76t-94 -41q-28 0 -78.5 26t-73.5 26q-30 0 -54 -13t-29 -39q-10 2 -10 26q0 41 33.5 80t92.5 39q30 0 79.5 -26t72.5 -26q34 0 57 15.5t26 36.5z" />
    <glyph glyph-name="odieresis" unicode="&#xf6;" horiz-adv-x="614" 
d="M300 -5q-107 2 -179 68.5t-72 201.5q0 128 69 204.5t196 76.5q109 0 180 -68.5t71 -201.5q0 -128 -69 -204.5t-196 -76.5zM308 15q39 0 64 37t34 90.5t9 122.5q0 48 -5 90.5t-16 83t-33.5 64.5t-54.5 24q-39 0 -64 -37t-34 -90.5t-9 -122.5q0 -48 5 -90.5t16 -83
t33.5 -64.5t54.5 -24zM235 754q62 0 62 -60q0 -34 -19 -55.5t-54 -21.5q-61 0 -61 61q0 32 20 54t52 22zM407 754q62 0 62 -60q0 -34 -19 -55.5t-54 -21.5q-61 0 -61 61q0 32 20 54t52 22z" />
    <glyph glyph-name="divide" unicode="&#xf7;" horiz-adv-x="553" 
d="M520 258q-31 4 -158 4q-61 0 -137 -1t-128 -1.5t-57 -0.5q-30 0 -30 25q0 17 13 25q46 -2 116 -2t201.5 1.5t162.5 1.5q30 0 30 -26q0 -18 -13 -26zM288 203q79 0 79 -76q0 -44 -24 -71t-69 -27q-77 0 -77 77q0 42 25 69.5t66 27.5zM288 554q79 0 79 -76q0 -44 -24 -71
t-69 -27q-77 0 -77 77q0 42 25 69.5t66 27.5z" />
    <glyph glyph-name="oslash" unicode="&#xf8;" horiz-adv-x="614" 
d="M300 -5q-65 2 -111 22v-1q0 -66 60 -102q-8 -18 -29.5 -29t-45.5 -11q-32 0 -53.5 19.5t-21.5 58.5q0 42 33 101q-83 71 -83 212q0 128 69 204.5t196 76.5q70 0 127 -30v1q0 57 -44 101q27 31 71 31q29 0 50.5 -16.5t21.5 -45.5q0 -39 -47 -109q72 -72 72 -202
q0 -128 -69 -204.5t-196 -76.5zM207 160q22 28 66 79.5t76 92.5t53 76q-25 119 -96 119q-39 0 -64 -37t-34 -90.5t-9 -122.5q0 -66 8 -117zM308 15q39 0 64 37t34 90.5t9 122.5q0 51 -6 102l-30 -36l-32 -40l-29 -36l-30 -39l-26 -35q-14 -21 -24 -38l-20 -34q28 -94 90 -94
z" />
    <glyph glyph-name="ugrave" unicode="&#xf9;" horiz-adv-x="634" 
d="M93 160l4 217q0 69 -10.5 92t-42.5 23q-16 0 -35 -4q-1 1 -1 3q0 14 54 31t106 17q48 0 62.5 -23.5t14.5 -95.5l-5 -226q0 -58 11.5 -82.5t47.5 -24.5q18 0 43 13t46 37q0 167 -4 241t-21 150q15 6 60 13.5t76 7.5q21 0 31 -10.5t10 -38.5q0 -60 -5 -182.5t-5 -162.5
q0 -64 13.5 -88t45.5 -24q17 0 36 4q1 -1 1 -3q0 -9 -24 -20t-64.5 -19.5t-80.5 -8.5q-42 0 -55.5 25.5t-13.5 94.5q-68 -123 -175 -123q-72 0 -96 40t-24 127zM373 591q-5 -6 -21 -6q-57 0 -135 42t-78 98q0 27 16 42.5t40 15.5q23 0 43 -14q8 -65 44.5 -112t90.5 -66z" />
    <glyph glyph-name="uacute" unicode="&#xfa;" horiz-adv-x="634" 
d="M93 160l4 217q0 69 -10.5 92t-42.5 23q-16 0 -35 -4q-1 1 -1 3q0 14 54 31t106 17q48 0 62.5 -23.5t14.5 -95.5l-5 -226q0 -58 11.5 -82.5t47.5 -24.5q18 0 43 13t46 37q0 167 -4 241t-21 150q15 6 60 13.5t76 7.5q21 0 31 -10.5t10 -38.5q0 -60 -5 -182.5t-5 -162.5
q0 -64 13.5 -88t45.5 -24q17 0 36 4q1 -1 1 -3q0 -9 -24 -20t-64.5 -19.5t-80.5 -8.5q-42 0 -55.5 25.5t-13.5 94.5q-68 -123 -175 -123q-72 0 -96 40t-24 127zM250 592q54 19 90.5 66t44.5 112q20 14 43 14q24 0 40 -15.5t16 -42.5q0 -56 -78 -98t-135 -42q-17 0 -21 6z
" />
    <glyph glyph-name="ucircumflex" unicode="&#xfb;" horiz-adv-x="634" 
d="M93 160l4 217q0 69 -10.5 92t-42.5 23q-16 0 -35 -4q-1 1 -1 3q0 14 54 31t106 17q48 0 62.5 -23.5t14.5 -95.5l-5 -226q0 -58 11.5 -82.5t47.5 -24.5q18 0 43 13t46 37q0 167 -4 241t-21 150q15 6 60 13.5t76 7.5q21 0 31 -10.5t10 -38.5q0 -60 -5 -182.5t-5 -162.5
q0 -64 13.5 -88t45.5 -24q17 0 36 4q1 -1 1 -3q0 -9 -24 -20t-64.5 -19.5t-80.5 -8.5q-42 0 -55.5 25.5t-13.5 94.5q-68 -123 -175 -123q-72 0 -96 40t-24 127zM313 670q-108 -85 -143 -85q-16 0 -25 12q10 10 44 40l67 62q33 31 57 60q24 -29 57 -60l67 -62q34 -30 44 -40
q-9 -12 -25 -12q-35 0 -143 85z" />
    <glyph glyph-name="udieresis" unicode="&#xfc;" horiz-adv-x="634" 
d="M93 160l4 217q0 69 -10.5 92t-42.5 23q-16 0 -35 -4q-1 1 -1 3q0 14 54 31t106 17q48 0 62.5 -23.5t14.5 -95.5l-5 -226q0 -58 11.5 -82.5t47.5 -24.5q18 0 43 13t46 37q0 167 -4 241t-21 150q15 6 60 13.5t76 7.5q21 0 31 -10.5t10 -38.5q0 -60 -5 -182.5t-5 -162.5
q0 -64 13.5 -88t45.5 -24q17 0 36 4q1 -1 1 -3q0 -9 -24 -20t-64.5 -19.5t-80.5 -8.5q-42 0 -55.5 25.5t-13.5 94.5q-68 -123 -175 -123q-72 0 -96 40t-24 127zM214 739q62 0 62 -60q0 -34 -19 -55.5t-54 -21.5q-61 0 -61 61q0 32 20 54t52 22zM386 739q62 0 62 -60
q0 -34 -19 -55.5t-54 -21.5q-61 0 -61 61q0 32 20 54t52 22z" />
    <glyph glyph-name="yacute" unicode="&#xfd;" horiz-adv-x="627" 
d="M74 491q-1 1 -1 3q0 8 16.5 18.5t53 19.5t80.5 9q51 0 84.5 -32.5t68 -128t77.5 -285.5q121 181 121 297q0 48 -20.5 81.5t-54.5 43.5q7 12 27 21.5t41 9.5q25 0 41.5 -18t16.5 -57q0 -89 -52.5 -207t-130 -219t-173 -171.5t-173.5 -70.5q-45 0 -69.5 20t-24.5 48
q0 20 11 36.5t25 22.5q50 -57 124 -57q94 0 185 94q-85 309 -130 420t-100 111q-22 0 -43 -9zM339 590q54 19 90.5 66t44.5 112q20 14 43 14q24 0 40 -15.5t16 -42.5q0 -56 -78 -98t-135 -42q-16 0 -21 6z" />
    <glyph glyph-name="thorn" unicode="&#xfe;" horiz-adv-x="665" 
d="M245 399v-219q0 -165 93 -165q65 0 95 69t30 180q0 114 -26.5 158t-75.5 44q-64 0 -116 -67zM245 424q24 51 71 86.5t112 35.5q80 0 133.5 -59.5t53.5 -181.5q0 -138 -71 -224t-206 -86q-44 0 -86 16q0 -116 18 -282q-63 -21 -123 -21q-30 0 -37 21.5t-7 92.5v795
q0 64 -13.5 88t-45.5 24q-17 0 -36 -4q-1 1 -1 3q0 9 24 20t64.5 19.5t80.5 8.5q42 0 56 -25.5t14 -93.5v-56v-73q0 -48 -0.5 -76.5t-0.5 -27.5z" />
    <glyph glyph-name="ydieresis" unicode="&#xff;" horiz-adv-x="627" 
d="M74 491q-1 1 -1 3q0 8 16.5 18.5t53 19.5t80.5 9q51 0 84.5 -32.5t68 -128t77.5 -285.5q121 181 121 297q0 48 -20.5 81.5t-54.5 43.5q7 12 27 21.5t41 9.5q25 0 41.5 -18t16.5 -57q0 -89 -52.5 -207t-130 -219t-173 -171.5t-173.5 -70.5q-45 0 -69.5 20t-24.5 48
q0 20 11 36.5t25 22.5q50 -57 124 -57q94 0 185 94q-85 309 -130 420t-100 111q-22 0 -43 -9zM324 721q62 0 62 -60q0 -34 -19 -55.5t-54 -21.5q-61 0 -61 61q0 32 20 54t52 22zM496 721q62 0 62 -60q0 -34 -19 -55.5t-54 -21.5q-61 0 -61 61q0 32 20 54t52 22z" />
    <glyph glyph-name="Amacron" unicode="&#x100;" horiz-adv-x="643" 
d="M534 -5q-59 0 -94.5 53.5t-71.5 173.5h-269q-34 -92 -34 -113q0 -51 27 -94q-22 -20 -54 -20q-20 0 -33.5 10t-13.5 30q0 32 38.5 122.5t84 186.5t84 203t38.5 168q0 9 -2 25q9 9 37 9q46 0 79.5 -45t59.5 -124l55 -167q28 -88 78.5 -193.5t115.5 -184.5
q-48 -40 -125 -40zM252 620q-4 -24 -27 -84l-62 -156l-56 -138h255l-29 102l-39 139q-20 70 -42 137zM462 796q-22 3 -74.5 4t-101.5 0l-98 -2q-49 -1 -54 -1q-27 0 -30.5 18t10.5 30q58 -2 98 -1l116 1q77 1 114 1q27 0 31.5 -17.5t-11.5 -32.5z" />
    <glyph glyph-name="amacron" unicode="&#x101;" horiz-adv-x="600" 
d="M577 75q2 -2 2 -4q0 -18 -52 -45t-100 -27q-44 0 -59 30t-15 90q-26 -55 -73.5 -89.5t-106.5 -34.5q-58 0 -96 30t-38 85q0 144 313 175v147q0 53 -14.5 74t-50.5 21q-33 0 -51 -20.5t-18 -52.5q0 -45 27 -75q-35 -35 -96 -35q-37 0 -61 18t-24 55q0 34 21.5 59.5
t57.5 40.5t77 22t85 7q42 0 74 -6.5t61.5 -23t45.5 -49.5t16 -82l-1 -256q0 -38 8 -51t27 -13q18 0 41 10zM255 89q55 0 97 49v127q-72 -8 -112.5 -38t-40.5 -72q0 -32 15.5 -49t40.5 -17zM471 586q-22 3 -74.5 4t-101.5 0l-98 -2q-49 -1 -54 -1q-27 0 -30.5 18t10.5 30
q58 -2 98 -2l117 2q76 1 113 1q27 0 31.5 -17.5t-11.5 -32.5z" />
    <glyph glyph-name="Abreve" unicode="&#x102;" horiz-adv-x="673" 
d="M546 -5q-59 0 -94.5 53.5t-71.5 173.5h-269q-34 -92 -34 -113q0 -51 27 -94q-22 -20 -54 -20q-20 0 -33.5 10t-13.5 30q0 32 38.5 122.5t84 186.5t84 203t38.5 168q0 9 -2 25q9 9 37 9q46 0 79.5 -45t59.5 -124l55 -167q28 -88 78.5 -193.5t115.5 -184.5
q-48 -40 -125 -40zM264 620q-4 -24 -27 -84l-62 -156l-56 -138h255l-29 102l-39 139q-20 70 -42 137zM279 817q61 0 61 181q104 0 104 -70q0 -49 -45 -90t-120 -41t-120 41t-45 90q0 70 104 70q0 -181 61 -181z" />
    <glyph glyph-name="abreve" unicode="&#x103;" horiz-adv-x="600" 
d="M577 75q2 -2 2 -4q0 -18 -52 -45t-100 -27q-44 0 -59 30t-15 90q-26 -55 -73.5 -89.5t-106.5 -34.5q-58 0 -96 30t-38 85q0 144 313 175v147q0 53 -14.5 74t-50.5 21q-33 0 -51 -20.5t-18 -52.5q0 -45 27 -75q-35 -35 -96 -35q-37 0 -61 18t-24 55q0 34 21.5 59.5
t57.5 40.5t77 22t85 7q42 0 74 -6.5t61.5 -23t45.5 -49.5t16 -82l-1 -256q0 -38 8 -51t27 -13q18 0 41 10zM301 606q61 0 61 181q104 0 104 -70q0 -49 -45 -90t-120 -41t-120 41t-45 90q0 70 104 70q0 -181 61 -181zM255 89q55 0 97 49v127q-72 -8 -112.5 -38t-40.5 -72
q0 -32 15.5 -49t40.5 -17z" />
    <glyph glyph-name="Aogonek" unicode="&#x104;" horiz-adv-x="705" 
d="M671 35q-20 -17 -42 -25q-26 -17 -46.5 -48t-20.5 -65q0 -28 14.5 -48t42.5 -20q38 0 83 38q1 -1 1 -4q0 -7 -13.5 -22t-42 -29t-60.5 -14q-56 0 -88.5 31.5t-32.5 76.5q0 53 44 95q-42 14 -71 66.5t-59 154.5h-269q-34 -92 -34 -113q0 -51 27 -94q-22 -20 -54 -20
q-20 0 -33.5 10t-13.5 30q0 32 38.5 122.5t84 186.5t84 203t38.5 168q0 9 -2 25q9 9 37 9q46 0 79.5 -45t59.5 -124l55 -167q28 -88 78.5 -193.5t115.5 -184.5zM264 620q-4 -24 -27 -84l-62 -156l-56 -138h255l-29 102l-39 139q-20 70 -42 137z" />
    <glyph glyph-name="aogonek" unicode="&#x105;" horiz-adv-x="614" 
d="M577 75q2 -2 2 -4q0 -20 -58 -48q-27 -17 -48 -48.5t-21 -65.5q0 -28 14.5 -48t42.5 -20q38 0 83 38q1 -1 1 -4q0 -7 -13.5 -22t-42 -29t-60.5 -14q-56 0 -88.5 31.5t-32.5 76.5q0 50 37 87q-24 11 -32 39t-8 75q-26 -55 -73.5 -89.5t-106.5 -34.5q-58 0 -96 30t-38 85
q0 144 313 175v147q0 53 -14.5 74t-50.5 21q-33 0 -51 -20.5t-18 -52.5q0 -45 27 -75q-35 -35 -96 -35q-37 0 -61 18t-24 55q0 34 21.5 59.5t57.5 40.5t77 22t85 7q42 0 74 -6.5t61.5 -23t45.5 -49.5t16 -82l-1 -256q0 -38 8 -51t27 -13q18 0 41 10zM255 89q55 0 97 49v127
q-72 -8 -112.5 -38t-40.5 -72q0 -32 15.5 -49t40.5 -17z" />
    <glyph glyph-name="Cacute" unicode="&#x106;" 
d="M414 47q71 0 138.5 33.5t101.5 73.5q4 0 4 -7q0 -10 -19.5 -34t-52 -51t-85 -47t-109.5 -20q-164 0 -256 93t-92 264q0 96 30.5 173.5t81 125t111.5 73t126 25.5q121 0 189 -48t68 -109q0 -34 -21.5 -50.5t-50.5 -16.5q-44 0 -75 23q6 27 6 55q0 56 -28.5 91t-88.5 35
q-197 0 -197 -349q0 -149 52.5 -241t166.5 -92zM366 803q54 19 90.5 66t44.5 112q20 14 43 14q24 0 40 -15.5t16 -42.5q0 -56 -78 -98t-135 -42q-17 0 -21 6z" />
    <glyph glyph-name="cacute" unicode="&#x107;" horiz-adv-x="530" 
d="M294 546q83 0 144.5 -32.5t61.5 -91.5q0 -34 -22 -51t-50 -17q-38 0 -56 20q2 28 2 40q0 113 -84 113q-101 0 -101 -233q0 -253 138 -253q54 0 100.5 26t65.5 50q3 0 3 -4q0 -10 -15 -28.5t-40.5 -39t-69 -35.5t-92.5 -15q-46 0 -86.5 13.5t-76 43t-56 83.5t-20.5 127
q0 128 63.5 206t190.5 78zM276 592q54 19 90.5 66t44.5 112q20 14 43 14q24 0 40 -15.5t16 -42.5q0 -56 -78 -98t-135 -42q-17 0 -21 6z" />
    <glyph glyph-name="Ccircumflex" unicode="&#x108;" 
d="M414 47q71 0 138.5 33.5t101.5 73.5q4 0 4 -7q0 -10 -19.5 -34t-52 -51t-85 -47t-109.5 -20q-164 0 -256 93t-92 264q0 96 30.5 173.5t81 125t111.5 73t126 25.5q121 0 189 -48t68 -109q0 -34 -21.5 -50.5t-50.5 -16.5q-44 0 -75 23q6 27 6 55q0 56 -28.5 91t-88.5 35
q-197 0 -197 -349q0 -149 52.5 -241t166.5 -92zM395 882q-108 -85 -143 -85q-16 0 -25 12q10 10 44 40l67 61q33 32 57 61q24 -29 57 -61l67 -61q34 -30 44 -40q-9 -12 -25 -12q-35 0 -143 85z" />
    <glyph glyph-name="ccircumflex" unicode="&#x109;" horiz-adv-x="530" 
d="M294 546q83 0 144.5 -32.5t61.5 -91.5q0 -34 -22 -51t-50 -17q-38 0 -56 20q2 28 2 40q0 113 -84 113q-101 0 -101 -233q0 -253 138 -253q54 0 100.5 26t65.5 50q3 0 3 -4q0 -10 -15 -28.5t-40.5 -39t-69 -35.5t-92.5 -15q-46 0 -86.5 13.5t-76 43t-56 83.5t-20.5 127
q0 128 63.5 206t190.5 78zM299 671q-108 -85 -143 -85q-16 0 -25 12q10 10 44 40l67 62q33 31 57 60q24 -29 57 -60l67 -62q34 -30 44 -40q-9 -12 -25 -12q-35 0 -143 85z" />
    <glyph glyph-name="Cdotaccent" unicode="&#x10a;" 
d="M414 47q71 0 138.5 33.5t101.5 73.5q4 0 4 -7q0 -10 -19.5 -34t-52 -51t-85 -47t-109.5 -20q-164 0 -256 93t-92 264q0 96 30.5 173.5t81 125t111.5 73t126 25.5q121 0 189 -48t68 -109q0 -34 -21.5 -50.5t-50.5 -16.5q-44 0 -75 23q6 27 6 55q0 56 -28.5 91t-88.5 35
q-197 0 -197 -349q0 -149 52.5 -241t166.5 -92zM407 971q79 0 79 -76q0 -44 -24 -71t-69 -27q-77 0 -77 77q0 42 25 69.5t66 27.5z" />
    <glyph glyph-name="cdotaccent" unicode="&#x10b;" horiz-adv-x="530" 
d="M294 546q83 0 144.5 -32.5t61.5 -91.5q0 -34 -22 -51t-50 -17q-38 0 -56 20q2 28 2 40q0 113 -84 113q-101 0 -101 -233q0 -253 138 -253q54 0 100.5 26t65.5 50q3 0 3 -4q0 -10 -15 -28.5t-40.5 -39t-69 -35.5t-92.5 -15q-46 0 -86.5 13.5t-76 43t-56 83.5t-20.5 127
q0 128 63.5 206t190.5 78zM308 760q79 0 79 -76q0 -44 -24 -71t-69 -27q-77 0 -77 77q0 42 25 69.5t66 27.5z" />
    <glyph glyph-name="Ccaron" unicode="&#x10c;" 
d="M414 47q71 0 138.5 33.5t101.5 73.5q4 0 4 -7q0 -10 -19.5 -34t-52 -51t-85 -47t-109.5 -20q-164 0 -256 93t-92 264q0 96 30.5 173.5t81 125t111.5 73t126 25.5q121 0 189 -48t68 -109q0 -34 -21.5 -50.5t-50.5 -16.5q-44 0 -75 23q6 27 6 55q0 56 -28.5 91t-88.5 35
q-197 0 -197 -349q0 -149 52.5 -241t166.5 -92zM385 886q108 85 143 85q16 0 25 -12q-10 -10 -44 -40l-67 -62q-33 -31 -57 -60q-24 29 -57 60l-67 62q-34 30 -44 40q9 12 25 12q35 0 143 -85z" />
    <glyph glyph-name="ccaron" unicode="&#x10d;" horiz-adv-x="530" 
d="M294 546q83 0 144.5 -32.5t61.5 -91.5q0 -34 -22 -51t-50 -17q-38 0 -56 20q2 28 2 40q0 113 -84 113q-101 0 -101 -233q0 -253 138 -253q54 0 100.5 26t65.5 50q3 0 3 -4q0 -10 -15 -28.5t-40.5 -39t-69 -35.5t-92.5 -15q-46 0 -86.5 13.5t-76 43t-56 83.5t-20.5 127
q0 128 63.5 206t190.5 78zM295 675q108 85 143 85q16 0 25 -12q-10 -10 -44 -40l-67 -62q-33 -31 -57 -60q-24 29 -57 60l-67 62q-34 30 -44 40q9 12 25 12q35 0 143 -85z" />
    <glyph glyph-name="Dcaron" unicode="&#x10e;" horiz-adv-x="738" 
d="M82 45q18 26 18 319q0 320 -36 339q16 15 95 30.5t163 15.5q192 0 284.5 -89.5t92.5 -272.5q0 -193 -102.5 -292.5t-281.5 -99.5q-76 0 -140 15.5t-93 34.5zM242 30q16 -15 64 -15q112 0 177.5 89.5t65.5 279.5q0 99 -18.5 168.5t-53 106.5t-76 53t-94.5 16q-41 0 -60 -6
q0 -152 -1.5 -423.5t-3.5 -268.5zM328 886q108 85 143 85q16 0 25 -12q-10 -10 -44 -40l-67 -62q-33 -31 -57 -60q-24 29 -57 60l-67 62q-34 30 -44 40q9 12 25 12q35 0 143 -85z" />
    <glyph glyph-name="dcaron" unicode="&#x10f;" horiz-adv-x="792" 
d="M419 135v219q0 95 -23 130t-75 35q-57 0 -88.5 -71t-31.5 -178q0 -114 26.5 -158t75.5 -44q64 0 116 67zM419 110q-24 -51 -71 -86.5t-112 -35.5q-80 0 -133.5 59.5t-53.5 181.5q0 137 70 223.5t201 86.5q58 0 100 -16v118q0 53 -13 71t-41 18q-18 0 -38 -4q-2 0 -2 3
q0 7 23 18.5t63.5 20.5t81.5 9q47 0 61.5 -16.5t14.5 -65.5l-1 -567q0 -37 7.5 -50.5t26.5 -13.5t42 10q2 -2 2 -4q0 -16 -59 -44t-100 -28q-42 0 -55.5 26.5t-13.5 85.5zM747 734q-70 -15 -100.5 11.5t-30.5 64.5t24.5 64.5t60.5 26.5q38 0 62 -22t24 -62q0 -41 -25.5 -95
t-61 -92t-63.5 -38q-21 0 -30.5 10.5t-9.5 23.5q57 0 103.5 40t46.5 68z" />
    <glyph glyph-name="Dcroat" unicode="&#x110;" horiz-adv-x="782" 
d="M67 45q16 23 18 302h-35q-31 0 -31 23q0 14 11 25q30 -2 55 -2q-2 290 -36 310q16 15 95 30.5t163 15.5q192 0 284.5 -89.5t92.5 -272.5q0 -193 -102.5 -292.5t-281.5 -99.5q-76 0 -140 15.5t-93 34.5zM227 30q17 -15 64 -15q112 0 177.5 89.5t65.5 279.5
q0 99 -18.5 168.5t-53 106.5t-76 53t-94.5 16q-40 0 -60 -6q0 -19 -0.5 -135t-0.5 -194q17 0 87 1.5t98 1.5q32 0 32 -23q0 -15 -12 -27q-31 4 -132 4h-73q0 -49 -0.5 -97.5t-1 -88.5t-1 -70.5t-1 -47.5t-0.5 -16z" />
    <glyph glyph-name="dcroat" unicode="&#x111;" horiz-adv-x="652" 
d="M419 110q-24 -51 -71 -86.5t-112 -35.5q-80 0 -133.5 59.5t-53.5 181.5q0 137 70 223.5t201 86.5q58 0 100 -16v72q-35 0 -75 -1t-65.5 -1.5t-30.5 -0.5q-31 0 -31 23q0 14 11 25q46 -2 92 -2h99v3q0 53 -13 71t-41 18q-18 0 -38 -4q-2 0 -2 3q0 7 23 18.5t63.5 20.5
t81.5 9q47 0 61.5 -16.5t14.5 -65.5v-54h35q32 0 32 -23q0 -15 -12 -27q-36 3 -55 3l-1 -466q0 -37 7.5 -50.5t26.5 -13.5t42 10q2 -2 2 -4q0 -16 -59 -44t-100 -28q-42 0 -55.5 26.5t-13.5 85.5zM419 135v219q0 95 -23 130t-75 35q-57 0 -88.5 -71t-31.5 -178
q0 -114 26.5 -158t75.5 -44q64 0 116 67z" />
    <glyph glyph-name="Emacron" unicode="&#x112;" horiz-adv-x="571" 
d="M207 744h276q34 0 49 -15.5t15 -38.5q0 -28 -14 -42q-92 76 -285 76v-332q158 0 235 18q4 -8 4 -19q0 -25 -36 -25q-11 0 -95 3t-108 3v-357q104 0 171.5 19t123.5 58q14 -14 14 -42q0 -23 -15 -38.5t-49 -15.5l-278 -1q-92 0 -128 12q15 147 15 337q0 366 -38 373
q7 10 44 18.5t99 8.5zM484 797q-22 3 -74.5 4t-101.5 0l-98 -2q-49 -1 -54 -1q-27 0 -30.5 18t10.5 30q58 -2 98 -2l116 2q77 1 114 1q27 0 31.5 -17.5t-11.5 -32.5z" />
    <glyph glyph-name="emacron" unicode="&#x113;" horiz-adv-x="552" 
d="M399 310h-201q-1 -10 -1 -31q0 -42 6.5 -80.5t22 -75.5t45.5 -59.5t72 -22.5q49 0 99 27t68 49q2 0 2 -5q0 -11 -15 -29.5t-41 -38.5t-70.5 -34.5t-95.5 -14.5q-117 0 -178.5 73.5t-61.5 196.5q0 124 65 202.5t198 78.5q100 0 152 -44t52 -109q0 -23 -7.5 -39.5
t-17.5 -25t-28 -12.5t-31 -5t-34 -1zM383 402q0 125 -81 125q-55 0 -79 -56.5t-24 -139.5q14 0 62.5 -0.5t54.5 -0.5q39 0 53 14.5t14 57.5zM486 586q-22 3 -74.5 4t-101.5 0l-98 -2q-49 -1 -54 -1q-27 0 -30.5 18t10.5 30q58 -2 98 -2l117 2q76 1 113 1q27 0 31.5 -17.5
t-11.5 -32.5z" />
    <glyph glyph-name="Ebreve" unicode="&#x114;" horiz-adv-x="571" 
d="M207 744h276q34 0 49 -15.5t15 -38.5q0 -28 -14 -42q-92 76 -285 76v-332q158 0 235 18q4 -8 4 -19q0 -25 -36 -25q-11 0 -95 3t-108 3v-357q104 0 171.5 19t123.5 58q14 -14 14 -42q0 -23 -15 -38.5t-49 -15.5l-278 -1q-92 0 -128 12q15 147 15 337q0 366 -38 373
q7 10 44 18.5t99 8.5zM301 817q61 0 61 181q104 0 104 -70q0 -49 -45 -90t-120 -41t-120 41t-45 90q0 70 104 70q0 -181 61 -181z" />
    <glyph glyph-name="ebreve" unicode="&#x115;" horiz-adv-x="552" 
d="M399 310h-201q-1 -10 -1 -31q0 -42 6.5 -80.5t22 -75.5t45.5 -59.5t72 -22.5q49 0 99 27t68 49q2 0 2 -5q0 -11 -15 -29.5t-41 -38.5t-70.5 -34.5t-95.5 -14.5q-117 0 -178.5 73.5t-61.5 196.5q0 124 65 202.5t198 78.5q100 0 152 -44t52 -109q0 -23 -7.5 -39.5
t-17.5 -25t-28 -12.5t-31 -5t-34 -1zM296 605q61 0 61 181q104 0 104 -70q0 -49 -45 -90t-120 -41t-120 41t-45 90q0 70 104 70q0 -181 61 -181zM383 402q0 125 -81 125q-55 0 -79 -56.5t-24 -139.5q14 0 62.5 -0.5t54.5 -0.5q39 0 53 14.5t14 57.5z" />
    <glyph glyph-name="Edotaccent" unicode="&#x116;" horiz-adv-x="571" 
d="M207 744h276q34 0 49 -15.5t15 -38.5q0 -28 -14 -42q-92 76 -285 76v-332q158 0 235 18q4 -8 4 -19q0 -25 -36 -25q-11 0 -95 3t-108 3v-357q104 0 171.5 19t123.5 58q14 -14 14 -42q0 -23 -15 -38.5t-49 -15.5l-278 -1q-92 0 -128 12q15 147 15 337q0 366 -38 373
q7 10 44 18.5t99 8.5zM321 971q79 0 79 -76q0 -44 -24 -71t-69 -27q-77 0 -77 77q0 42 25 69.5t66 27.5z" />
    <glyph glyph-name="edotaccent" unicode="&#x117;" horiz-adv-x="552" 
d="M399 310h-201q-1 -10 -1 -31q0 -42 6.5 -80.5t22 -75.5t45.5 -59.5t72 -22.5q49 0 99 27t68 49q2 0 2 -5q0 -11 -15 -29.5t-41 -38.5t-70.5 -34.5t-95.5 -14.5q-117 0 -178.5 73.5t-61.5 196.5q0 124 65 202.5t198 78.5q100 0 152 -44t52 -109q0 -23 -7.5 -39.5
t-17.5 -25t-28 -12.5t-31 -5t-34 -1zM383 402q0 125 -81 125q-55 0 -79 -56.5t-24 -139.5q14 0 62.5 -0.5t54.5 -0.5q39 0 53 14.5t14 57.5zM317 760q79 0 79 -76q0 -44 -24 -71t-69 -27q-77 0 -77 77q0 42 25 69.5t66 27.5z" />
    <glyph glyph-name="Eogonek" unicode="&#x118;" horiz-adv-x="618" 
d="M207 744h276q34 0 49 -15.5t15 -38.5q0 -28 -14 -42q-92 76 -285 76v-332q158 0 235 18q4 -8 4 -19q0 -25 -36 -25q-11 0 -95 3t-108 3v-357q104 0 171.5 19t123.5 58q14 -14 14 -42q0 -38 -34 -50q-25 -17 -42.5 -46.5t-17.5 -61.5q0 -28 14.5 -48t42.5 -20q38 0 83 38
q1 -1 1 -4q0 -7 -13.5 -22t-42 -29t-60.5 -14q-56 0 -88.5 31.5t-32.5 76.5q0 53 44 95l-196 -1q-92 0 -128 12q15 147 15 337q0 366 -38 373q7 10 44 18.5t99 8.5z" />
    <glyph glyph-name="eogonek" unicode="&#x119;" horiz-adv-x="552" 
d="M399 310h-201q-1 -10 -1 -31q0 -42 6.5 -80.5t22 -75.5t45.5 -59.5t72 -22.5q49 0 99 27t68 49q2 0 2 -5q0 -21 -41 -57t-105 -51q-26 -17 -46.5 -48t-20.5 -65q0 -28 14.5 -48t42.5 -20q38 0 83 38q1 -1 1 -4q0 -7 -13.5 -22t-42 -29t-60.5 -14q-56 0 -88.5 31.5
t-32.5 76.5q0 56 47 98q-98 12 -149 83.5t-51 183.5q0 124 65 202.5t198 78.5q100 0 152 -44t52 -109q0 -23 -7.5 -39.5t-17.5 -25t-28 -12.5t-31 -5t-34 -1zM383 402q0 125 -81 125q-55 0 -79 -56.5t-24 -139.5q14 0 62.5 -0.5t54.5 -0.5q39 0 53 14.5t14 57.5z" />
    <glyph glyph-name="Ecaron" unicode="&#x11a;" horiz-adv-x="571" 
d="M207 744h276q34 0 49 -15.5t15 -38.5q0 -28 -14 -42q-92 76 -285 76v-332q158 0 235 18q4 -8 4 -19q0 -25 -36 -25q-11 0 -95 3t-108 3v-357q104 0 171.5 19t123.5 58q14 -14 14 -42q0 -23 -15 -38.5t-49 -15.5l-278 -1q-92 0 -128 12q15 147 15 337q0 366 -38 373
q7 10 44 18.5t99 8.5zM312 886q108 85 143 85q16 0 25 -12q-10 -10 -44 -40l-67 -62q-33 -31 -57 -60q-24 29 -57 60l-67 62q-34 30 -44 40q9 12 25 12q35 0 143 -85z" />
    <glyph glyph-name="ecaron" unicode="&#x11b;" horiz-adv-x="552" 
d="M399 310h-201q-1 -10 -1 -31q0 -42 6.5 -80.5t22 -75.5t45.5 -59.5t72 -22.5q49 0 99 27t68 49q2 0 2 -5q0 -11 -15 -29.5t-41 -38.5t-70.5 -34.5t-95.5 -14.5q-117 0 -178.5 73.5t-61.5 196.5q0 124 65 202.5t198 78.5q100 0 152 -44t52 -109q0 -23 -7.5 -39.5
t-17.5 -25t-28 -12.5t-31 -5t-34 -1zM383 402q0 125 -81 125q-55 0 -79 -56.5t-24 -139.5q14 0 62.5 -0.5t54.5 -0.5q39 0 53 14.5t14 57.5zM303 673q108 85 143 85q16 0 25 -12q-10 -10 -44 -40l-67 -62q-33 -31 -57 -60q-24 29 -57 60l-67 62q-34 30 -44 40q9 12 25 12
q35 0 143 -85z" />
    <glyph glyph-name="Gcircumflex" unicode="&#x11c;" horiz-adv-x="695" 
d="M195 372q0 -185 46 -270t145 -85q79 0 118.5 58t39.5 142q0 63 -23 83.5t-79 10.5q-5 6 18 18q58 32 134 37l18 1q20 0 32.5 -9t18 -28.5t7 -38t1.5 -49.5q0 -64 -28 -114t-72.5 -77.5t-92.5 -41.5t-96 -14q-164 0 -251 97.5t-87 259.5q0 96 30 173.5t80 125t112 73
t129 25.5q121 0 188 -47.5t67 -109.5q0 -67 -62 -67q-21 0 -48 8t-37 15q8 44 4 84.5t-34 68.5t-81 28q-197 0 -197 -357zM391 882q-108 -85 -143 -85q-16 0 -25 12q10 10 44 40l67 61q33 32 57 61q24 -29 57 -61l67 -61q34 -30 44 -40q-9 -12 -25 -12q-35 0 -143 85z" />
    <glyph glyph-name="gcircumflex" unicode="&#x11d;" horiz-adv-x="606" 
d="M141 205q-44 20 -68 60t-24 92q0 85 63.5 137t181.5 52q90 0 148 -31q8 27 30.5 46t56.5 19q31 0 49 -16t18 -39q0 -36 -34 -61q-8 20 -28 36.5t-45 16.5q-17 0 -32 -11q66 -45 66 -131q0 -89 -65 -141.5t-163 -52.5q-49 0 -137 18q-9 -21 -9 -37q0 -29 30 -44t75 -17.5
t97 -10.5t97 -21t75 -50t30 -96q0 -71 -42 -121t-105 -71.5t-140 -21.5q-108 0 -182.5 43t-74.5 111q0 43 28 67.5t66 24.5q36 0 57 -21q-20 -28 -20 -72q0 -55 33.5 -94t110.5 -39q63 0 108.5 29.5t45.5 95.5q0 49 -39.5 75t-96 34t-112.5 15t-95.5 27t-39.5 60
q0 32 25.5 70.5t60.5 69.5zM286 526q-43 0 -65 -45.5t-22 -112.5q0 -41 7.5 -76.5t28.5 -63t51 -27.5q42 0 64.5 46.5t22.5 114.5q0 41 -7.5 76t-28 61.5t-51.5 26.5zM290 671q-108 -85 -143 -85q-16 0 -25 12q10 10 44 40l67 61q33 32 57 61q24 -29 57 -61l67 -61
q34 -30 44 -40q-9 -12 -25 -12q-35 0 -143 85z" />
    <glyph glyph-name="Gbreve" unicode="&#x11e;" horiz-adv-x="695" 
d="M195 372q0 -185 46 -270t145 -85q79 0 118.5 58t39.5 142q0 63 -23 83.5t-79 10.5q-5 6 18 18q58 32 134 37l18 1q20 0 32.5 -9t18 -28.5t7 -38t1.5 -49.5q0 -64 -28 -114t-72.5 -77.5t-92.5 -41.5t-96 -14q-164 0 -251 97.5t-87 259.5q0 96 30 173.5t80 125t112 73
t129 25.5q121 0 188 -47.5t67 -109.5q0 -67 -62 -67q-21 0 -48 8t-37 15q8 44 4 84.5t-34 68.5t-81 28q-197 0 -197 -357zM374 817q61 0 61 181q104 0 104 -70q0 -49 -45 -90t-120 -41t-120 41t-45 90q0 70 104 70q0 -181 61 -181z" />
    <glyph glyph-name="gbreve" unicode="&#x11f;" horiz-adv-x="606" 
d="M141 205q-44 20 -68 60t-24 92q0 85 63.5 137t181.5 52q90 0 148 -31q8 27 30.5 46t56.5 19q31 0 49 -16t18 -39q0 -36 -34 -61q-8 20 -28 36.5t-45 16.5q-17 0 -32 -11q66 -45 66 -131q0 -89 -65 -141.5t-163 -52.5q-49 0 -137 18q-9 -21 -9 -37q0 -29 30 -44t75 -17.5
t97 -10.5t97 -21t75 -50t30 -96q0 -71 -42 -121t-105 -71.5t-140 -21.5q-108 0 -182.5 43t-74.5 111q0 43 28 67.5t66 24.5q36 0 57 -21q-20 -28 -20 -72q0 -55 33.5 -94t110.5 -39q63 0 108.5 29.5t45.5 95.5q0 49 -39.5 75t-96 34t-112.5 15t-95.5 27t-39.5 60
q0 32 25.5 70.5t60.5 69.5zM286 526q-43 0 -65 -45.5t-22 -112.5q0 -41 7.5 -76.5t28.5 -63t51 -27.5q42 0 64.5 46.5t22.5 114.5q0 41 -7.5 76t-28 61.5t-51.5 26.5zM284 605q61 0 61 181q104 0 104 -70q0 -49 -45 -90t-120 -41t-120 41t-45 90q0 70 104 70q0 -181 61 -181
z" />
    <glyph glyph-name="Gdotaccent" unicode="&#x120;" horiz-adv-x="695" 
d="M195 372q0 -185 46 -270t145 -85q79 0 118.5 58t39.5 142q0 63 -23 83.5t-79 10.5q-5 6 18 18q58 32 134 37l18 1q20 0 32.5 -9t18 -28.5t7 -38t1.5 -49.5q0 -64 -28 -114t-72.5 -77.5t-92.5 -41.5t-96 -14q-164 0 -251 97.5t-87 259.5q0 96 30 173.5t80 125t112 73
t129 25.5q121 0 188 -47.5t67 -109.5q0 -67 -62 -67q-21 0 -48 8t-37 15q8 44 4 84.5t-34 68.5t-81 28q-197 0 -197 -357zM394 971q79 0 79 -76q0 -44 -24 -71t-69 -27q-77 0 -77 77q0 42 25 69.5t66 27.5z" />
    <glyph glyph-name="gdotaccent" unicode="&#x121;" horiz-adv-x="606" 
d="M141 205q-44 20 -68 60t-24 92q0 85 63.5 137t181.5 52q90 0 148 -31q8 27 30.5 46t56.5 19q31 0 49 -16t18 -39q0 -36 -34 -61q-8 20 -28 36.5t-45 16.5q-17 0 -32 -11q66 -45 66 -131q0 -89 -65 -141.5t-163 -52.5q-49 0 -137 18q-9 -21 -9 -37q0 -29 30 -44t75 -17.5
t97 -10.5t97 -21t75 -50t30 -96q0 -71 -42 -121t-105 -71.5t-140 -21.5q-108 0 -182.5 43t-74.5 111q0 43 28 67.5t66 24.5q36 0 57 -21q-20 -28 -20 -72q0 -55 33.5 -94t110.5 -39q63 0 108.5 29.5t45.5 95.5q0 49 -39.5 75t-96 34t-112.5 15t-95.5 27t-39.5 60
q0 32 25.5 70.5t60.5 69.5zM286 526q-43 0 -65 -45.5t-22 -112.5q0 -41 7.5 -76.5t28.5 -63t51 -27.5q42 0 64.5 46.5t22.5 114.5q0 41 -7.5 76t-28 61.5t-51.5 26.5zM301 762q79 0 79 -76q0 -44 -24 -71t-69 -27q-77 0 -77 77q0 42 25 69.5t66 27.5z" />
    <glyph glyph-name="Gcommaaccent" unicode="&#x122;" horiz-adv-x="695" 
d="M419 -192q-60 -13 -83.5 10.5t-23.5 57.5q0 33 21 56t52 23q33 0 53.5 -19t20.5 -54q0 -63 -44.5 -128t-87.5 -65q-21 0 -30.5 10.5t-9.5 23.5q58 0 95 29t37 56zM195 372q0 -185 46 -270t145 -85q79 0 118.5 58t39.5 142q0 63 -23 83.5t-79 10.5q-5 6 18 18
q58 32 134 37l18 1q20 0 32.5 -9t18 -28.5t7 -38t1.5 -49.5q0 -64 -28 -114t-72.5 -77.5t-92.5 -41.5t-96 -14q-164 0 -251 97.5t-87 259.5q0 96 30 173.5t80 125t112 73t129 25.5q121 0 188 -47.5t67 -109.5q0 -67 -62 -67q-21 0 -48 8t-37 15q8 44 4 84.5t-34 68.5t-81 28
q-197 0 -197 -357z" />
    <glyph glyph-name="gcommaaccent" unicode="&#x123;" horiz-adv-x="606" 
d="M141 205q-44 20 -68 60t-24 92q0 85 63.5 137t181.5 52q90 0 148 -31q8 27 30.5 46t56.5 19q31 0 49 -16t18 -39q0 -36 -34 -61q-8 20 -28 36.5t-45 16.5q-17 0 -32 -11q66 -45 66 -131q0 -89 -65 -141.5t-163 -52.5q-49 0 -137 18q-9 -21 -9 -37q0 -29 30 -44t75 -17.5
t97 -10.5t97 -21t75 -50t30 -96q0 -71 -42 -121t-105 -71.5t-140 -21.5q-108 0 -182.5 43t-74.5 111q0 43 28 67.5t66 24.5q36 0 57 -21q-20 -28 -20 -72q0 -55 33.5 -94t110.5 -39q63 0 108.5 29.5t45.5 95.5q0 49 -39.5 75t-96 34t-112.5 15t-95.5 27t-39.5 60
q0 32 25.5 70.5t60.5 69.5zM286 526q-43 0 -65 -45.5t-22 -112.5q0 -41 7.5 -76.5t28.5 -63t51 -27.5q42 0 64.5 46.5t22.5 114.5q0 41 -7.5 76t-28 61.5t-51.5 26.5zM249 734q60 13 83.5 -10.5t23.5 -57.5q0 -33 -21 -56t-52 -23q-33 0 -53.5 19t-20.5 54q0 63 44.5 128
t87.5 65q21 0 30.5 -10.5t9.5 -23.5q-58 0 -95 -29t-37 -56z" />
    <glyph glyph-name="Hcircumflex" unicode="&#x124;" horiz-adv-x="757" 
d="M184 749q42 0 53 -18t11 -93q0 -43 -1 -110.5t-1 -101.5v-66h266q-2 346 -36 352q10 13 47 25t72 12q42 0 54 -18t12 -93q0 -43 -0.5 -110.5t-0.5 -101.5q0 -341 33 -403q-16 -10 -53 -19t-76 -9q-35 0 -46.5 21.5t-11.5 69.5q0 17 2.5 102t3.5 152h-266q5 -265 33 -317
q-47 -28 -130 -28q-34 0 -45.5 22t-11.5 70q0 11 3 94t3 177q0 348 -34 354q10 13 47.5 25t72.5 12zM375 883q-108 -85 -143 -85q-16 0 -25 12q10 10 44 40l67 62q33 31 57 60q24 -29 57 -60l67 -62q34 -30 44 -40q-9 -12 -25 -12q-35 0 -143 85z" />
    <glyph glyph-name="hcircumflex" unicode="&#x125;" horiz-adv-x="664" 
d="M407 99l-1 257q0 52 -12 74t-41 22q-56 0 -102 -55q0 -165 4 -236t21 -147q-15 -6 -60.5 -13.5t-75.5 -7.5q-21 0 -31 10.5t-10 38.5l1 576q0 64 -12.5 88t-44.5 24q-17 0 -36 -4q-1 1 -1 3q0 9 25 20t67 19.5t82 8.5q42 0 56 -25.5t14 -93.5l1 -236q27 54 74.5 89
t113.5 35q70 0 93.5 -41t23.5 -129l1 -211q0 -65 5.5 -85.5t25.5 -20.5q31 0 65 12q3 -1 3 -5q0 -17 -48.5 -44t-100.5 -27q-55 0 -77.5 26t-22.5 78zM339 904q-108 -85 -143 -85q-16 0 -25 12q10 10 44 40l67 61q33 32 57 61q24 -29 57 -61l67 -61q34 -30 44 -40
q-9 -12 -25 -12q-35 0 -143 85z" />
    <glyph glyph-name="Hbar" unicode="&#x126;" horiz-adv-x="846" 
d="M229 749q42 0 53 -18t11 -93q0 -22 -0.5 -60t-0.5 -54l262 2q-9 181 -33 186q10 13 47 25t72 12q42 0 54 -18t12 -93q0 -77 -1 -111h45q32 0 32 -23q0 -15 -12 -27q-21 3 -65 3v-54q0 -341 33 -403q-16 -10 -53 -19t-76 -9q-35 0 -46.5 21.5t-11.5 69.5q0 17 2.5 102
t3.5 152h-266q5 -265 33 -317q-47 -28 -130 -28q-34 0 -45.5 22t-11.5 70q0 11 3 94t3 177q0 81 -1 120h-47q-31 0 -31 23q0 14 11 25q34 -2 66 -2q-7 183 -32 188q10 13 47.5 25t72.5 12zM555 481l-264 -2v-53v-66h266q0 43 -2 121z" />
    <glyph glyph-name="hbar" unicode="&#x127;" horiz-adv-x="664" 
d="M407 99l-1 257q0 52 -12 74t-41 22q-56 0 -102 -55q0 -165 4 -236t21 -147q-15 -6 -60.5 -13.5t-75.5 -7.5q-21 0 -31 10.5t-10 38.5l1 547q-30 -1 -59 -1q-31 0 -31 23q0 14 11 25q40 -2 79 -2q-1 54 -14 75t-43 21q-17 0 -36 -4q-1 1 -1 3q0 9 25 20t67 19.5t82 8.5
q42 0 56 -25.5t14 -93.5v-23q108 2 147 2q32 0 32 -23q0 -15 -12 -27q-31 4 -132 4h-35l1 -169q27 54 74.5 89t113.5 35q70 0 93.5 -41t23.5 -129l1 -211q0 -65 5.5 -85.5t25.5 -20.5q31 0 65 12q3 -1 3 -5q0 -17 -48.5 -44t-100.5 -27q-55 0 -77.5 26t-22.5 78z" />
    <glyph glyph-name="Itilde" unicode="&#x128;" horiz-adv-x="344" 
d="M184 749q41 0 52 -18t11 -93q0 -43 -0.5 -110t-0.5 -101q0 -347 33 -404q-16 -10 -53 -19t-73 -9q-38 0 -49.5 21t-11.5 72q0 12 3 98.5t3 172.5q0 347 -33 353q10 13 47 25t72 12zM345 931q10 -1 10 -28q0 -35 -32 -76t-94 -41q-28 0 -78.5 26t-73.5 26q-30 0 -54 -13
t-29 -39q-10 2 -10 26q0 41 33.5 80t92.5 39q30 0 79.5 -26t72.5 -26q34 0 57 15.5t26 36.5z" />
    <glyph glyph-name="itilde" unicode="&#x129;" horiz-adv-x="330" 
d="M244 422q0 -239 17 -406q-16 -6 -57 -13.5t-70 -7.5q-23 0 -32.5 11t-9.5 39q0 60 2 178.5t2 158.5q0 65 -11 88.5t-41 23.5q-17 0 -36 -4q-1 1 -1 3q0 9 23.5 20t63.5 19.5t80 8.5q42 0 56 -25.5t14 -93.5zM325 727q10 -1 10 -28q0 -35 -32 -76t-94 -41q-28 0 -78.5 26
t-73.5 26q-30 0 -54 -13t-29 -39q-10 2 -10 26q0 41 33.5 80t92.5 39q30 0 79.5 -26t72.5 -26q34 0 57 15.5t26 36.5z" />
    <glyph glyph-name="uni012A" unicode="&#x12a;" horiz-adv-x="341" 
d="M186 749q41 0 52 -18t11 -93q0 -43 -0.5 -110t-0.5 -101q0 -347 33 -404q-16 -10 -53 -19t-73 -9q-38 0 -49.5 21t-11.5 72q0 12 3 98.5t3 172.5q0 347 -33 353q10 13 47 25t72 12zM342 802q-22 3 -74.5 4t-101.5 0l-98 -2q-49 -1 -54 -1q-27 0 -30.5 18t10.5 30
q58 -2 98 -1l117 1q76 1 113 1q27 0 31.5 -17.5t-11.5 -32.5z" />
    <glyph glyph-name="imacron" unicode="&#x12b;" horiz-adv-x="334" 
d="M248 422q0 -239 17 -406q-16 -6 -57 -13.5t-70 -7.5q-23 0 -32.5 11t-9.5 39q0 60 2 178.5t2 158.5q0 65 -11 88.5t-41 23.5q-17 0 -36 -4q-1 1 -1 3q0 9 23.5 20t63.5 19.5t80 8.5q42 0 56 -25.5t14 -93.5zM322 584q-22 3 -74.5 4t-101.5 0l-98 -2q-49 -1 -54 -1
q-27 0 -30.5 18t10.5 30q58 -2 98 -2l116 2q77 1 114 1q27 0 31.5 -17.5t-11.5 -32.5z" />
    <glyph glyph-name="Ibreve" unicode="&#x12c;" horiz-adv-x="341" 
d="M179 747q41 0 52 -18t11 -93q0 -43 -0.5 -110t-0.5 -101q0 -347 33 -404q-16 -10 -53 -19t-73 -9q-38 0 -49.5 21t-11.5 72q0 12 3 98.5t3 172.5q0 347 -33 353q10 13 47 25t72 12zM156 822q61 0 61 181q104 0 104 -70q0 -49 -45 -90t-120 -41t-120 41t-45 90
q0 70 104 70q0 -181 61 -181z" />
    <glyph glyph-name="uni012D" unicode="&#x12d;" horiz-adv-x="335" 
d="M248 422q0 -239 17 -406q-16 -6 -57 -13.5t-70 -7.5q-23 0 -32.5 11t-9.5 39q0 60 2 178.5t2 158.5q0 65 -11 88.5t-41 23.5q-17 0 -36 -4q-1 1 -1 3q0 9 23.5 20t63.5 19.5t80 8.5q42 0 56 -25.5t14 -93.5zM155 606q61 0 61 181q104 0 104 -70q0 -49 -45 -90t-120 -41
t-120 41t-45 90q0 70 104 70q0 -181 61 -181z" />
    <glyph glyph-name="Iogonek" unicode="&#x12e;" horiz-adv-x="341" 
d="M183 749q41 0 52 -18t11 -93q0 -43 -0.5 -110t-0.5 -101q0 -347 33 -404q-11 -8 -46 -18q-27 -16 -48.5 -48t-21.5 -66q0 -28 14.5 -48t42.5 -20q38 0 83 38q1 -1 1 -4q0 -7 -13.5 -22t-42 -29t-60.5 -14q-56 0 -88.5 31.5t-32.5 76.5q0 59 52 102q-27 14 -27 86
q0 12 3 98.5t3 172.5q0 347 -33 353q10 13 47 25t72 12z" />
    <glyph glyph-name="iogonek" unicode="&#x12f;" horiz-adv-x="333" 
d="M243 422v-66q1 -49 1 -62t0.5 -50t1.5 -54.5t3 -49t4.5 -60.5t6.5 -64q-8 -4 -31 -9q-28 -15 -50.5 -47.5t-22.5 -68.5q0 -28 14.5 -48t42.5 -20q38 0 83 38q1 -1 1 -4q0 -7 -13.5 -22t-42 -29t-60.5 -14q-56 0 -88.5 31.5t-32.5 76.5q0 58 49 100q-12 5 -15 17.5
t-3 40.5l4 324q0 67 -10.5 89.5t-44.5 22.5q-14 0 -33 -4q-1 1 -1 3q0 14 54.5 31t106.5 17q51 0 63 -22.5t13 -96.5zM165 782q79 0 79 -76q0 -44 -24 -71t-69 -27q-77 0 -77 77q0 42 25 69.5t66 27.5z" />
    <glyph glyph-name="Idotaccent" unicode="&#x130;" horiz-adv-x="342" 
d="M183 749q41 0 52 -18t11 -93q0 -43 -0.5 -110t-0.5 -101q0 -347 33 -404q-16 -10 -53 -19t-73 -9q-38 0 -49.5 21t-11.5 72q0 12 3 98.5t3 172.5q0 347 -33 353q10 13 47 25t72 12zM167 971q79 0 79 -76q0 -44 -24 -71t-69 -27q-77 0 -77 77q0 42 25 69.5t66 27.5z" />
    <glyph glyph-name="dotlessi" unicode="&#x131;" horiz-adv-x="329" 
d="M243 422q0 -239 17 -406q-16 -6 -57 -13.5t-70 -7.5q-23 0 -32.5 11t-9.5 39q0 60 2 178.5t2 158.5q0 65 -11 88.5t-41 23.5q-17 0 -36 -4q-1 1 -1 3q0 9 23.5 20t63.5 19.5t80 8.5q42 0 56 -25.5t14 -93.5z" />
    <glyph glyph-name="IJ" unicode="&#x132;" horiz-adv-x="689" 
d="M195 749q41 0 52 -18t11 -93q0 -43 -0.5 -110t-0.5 -101q0 -347 33 -404q-16 -10 -53 -19t-73 -9q-38 0 -49.5 21t-11.5 72q0 12 3 98.5t3 172.5q0 347 -33 353q10 13 47 25t72 12zM678 638q0 -44 0.5 -197t0.5 -160q0 -156 -54 -221t-170 -65q-71 0 -122.5 33.5
t-51.5 89.5q0 41 24 61.5t56 17t57 -26.5q-36 -154 47 -154q22 0 34 8.5t19.5 41t9.5 84t2 150.5q0 405 -34 412q11 13 44.5 25t79.5 12q34 0 46 -19t12 -92z" />
    <glyph glyph-name="ij" unicode="&#x133;" horiz-adv-x="633" 
d="M254 422q0 -17 0.5 -66t0.5 -62t0.5 -50t1.5 -54.5t3 -49t4.5 -60.5t6.5 -64q-15 -6 -56.5 -13.5t-67.5 -7.5q-30 0 -37.5 13t-7.5 50l4 324q0 67 -10.5 89.5t-44.5 22.5q-14 0 -33 -4q-1 1 -1 3q0 14 54.5 31t106.5 17q51 0 63 -22.5t13 -96.5zM176 782q79 0 79 -76
q0 -44 -24 -71t-69 -27q-77 0 -77 77q0 42 25 69.5t66 27.5zM529 419q0 -18 -1 -250v-250q0 -119 -53 -164.5t-147 -45.5q-89 0 -130.5 29.5t-41.5 74.5q0 65 84 65q15 0 33 -3q0 -29 1 -42q7 -104 50 -104q53 0 54 151q0 8 1.5 252t1.5 250q0 66 -10.5 89t-43.5 23
q-26 0 -55 -9q-1 1 -1 3q0 9 26.5 21.5t70 22t83.5 9.5q53 0 65 -22.5t13 -99.5zM453 782q75 0 75 -78q0 -42 -24 -69t-69 -27q-77 0 -77 77q0 42 25 69.5t70 27.5z" />
    <glyph glyph-name="Jcircumflex" unicode="&#x134;" horiz-adv-x="497" 
d="M399 638q0 -44 0.5 -197t0.5 -160q0 -156 -54 -221t-170 -65q-71 0 -122.5 33.5t-51.5 89.5q0 41 24 61.5t56 17t57 -26.5q-36 -154 47 -154q22 0 34 8.5t19.5 41t9.5 84t2 150.5q0 405 -34 412q11 13 44.5 25t79.5 12q34 0 46 -19t12 -92zM306 882q-108 -85 -143 -85
q-16 0 -25 12q10 10 44 40l67 61q33 32 57 61q24 -29 57 -61l67 -61q34 -30 44 -40q-9 -12 -25 -12q-35 0 -143 85z" />
    <glyph glyph-name="jcircumflex" unicode="&#x135;" horiz-adv-x="513" 
d="M408 422v-177q-1 -162 -1 -326q0 -62 -15 -105t-44 -65t-63 -31t-80 -9q-77 0 -123.5 26t-46.5 80q0 63 85 63q14 0 32 -3q0 -29 1 -43q6 -103 51 -103q53 0 53 151q0 58 1.5 268.5t1.5 233.5q0 67 -10.5 89.5t-44.5 22.5q-25 0 -54 -9q-1 1 -1 3q0 9 26.5 21t70.5 22
t85 10q51 0 63 -22.5t13 -96.5zM292 671q-108 -85 -143 -85q-16 0 -25 12q10 10 44 40l67 62q33 31 57 60q24 -29 57 -60l67 -62q34 -30 44 -40q-9 -12 -25 -12q-35 0 -143 85z" />
    <glyph glyph-name="Kcommaaccent" unicode="&#x136;" horiz-adv-x="740" 
d="M182 749q41 0 51 -17.5t10 -93.5q0 -43 0.5 -110t0.5 -101v-44q139 64 209.5 135.5t70.5 131.5q0 43 -34 67q18 32 63 32q25 0 43 -14.5t18 -41.5q0 -58 -72.5 -131t-188.5 -139q46 -3 84 -43t65 -96l55 -110q27 -54 63 -92t79 -38q18 0 38 7q1 -1 1 -3q0 -9 -18 -24.5
t-56 -29t-83 -13.5q-51 0 -90.5 26t-62.5 65t-45 86.5t-39 89.5t-43 73.5t-57 39.5q2 -274 33 -338q-47 -28 -125 -28q-37 0 -49.5 19.5t-12.5 72.5q0 13 3 99.5t3 172.5q0 347 -32 353q10 13 46.5 25t71.5 12zM409 -192q-60 -13 -83.5 10.5t-23.5 57.5q0 33 21 56t52 23
q33 0 53.5 -19t20.5 -54q0 -63 -44.5 -128t-87.5 -65q-21 0 -30.5 10.5t-9.5 23.5q58 0 95 29t37 56zM244 369v-1l3 2q-1 -1 -3 -1zM247 370l4 2q-2 -2 -4 -2z" />
    <glyph glyph-name="kcommaaccent" unicode="&#x137;" horiz-adv-x="623" 
d="M363 -192q-60 -13 -83.5 10.5t-23.5 57.5q0 33 21 56t52 23q33 0 53.5 -19t20.5 -54q0 -63 -44.5 -128t-87.5 -65q-21 0 -30.5 10.5t-9.5 23.5q58 0 95 29t37 56zM250 658q0 -40 1 -188v-184q73 56 110 96.5t37 77.5q0 31 -28 58q33 27 69 27q26 0 43 -15t17 -41
q0 -24 -13.5 -46.5t-40 -44t-53.5 -38.5l-66 -42l-22 -13q22 -5 48 -30t51 -57l51 -62q25 -30 55 -50.5t58 -20.5q30 0 52 12q2 -2 2 -5q0 -23 -40 -60t-93 -37q-41 0 -81 34.5t-86.5 94t-68.5 80.5q3 -92 24 -190q-15 -6 -60.5 -13.5t-76.5 -7.5q-22 0 -31 11t-9 40l1 574
q0 65 -12.5 88.5t-45.5 23.5q-16 0 -35 -4q-1 1 -1 3q0 14 56 31t115 17q44 0 58.5 -24t14.5 -95z" />
    <glyph glyph-name="kgreenlandic" unicode="&#x138;" horiz-adv-x="638" 
d="M238 436q0 -127 1 -176q91 38 137.5 86.5t46.5 93.5q0 50 -51 75q19 31 61 31q26 0 44.5 -16t18.5 -46q0 -100 -156 -188q34 -1 59.5 -26t42.5 -61l34 -71q18 -35 45 -60t64 -25q21 0 49 9q2 -2 2 -3q0 -9 -18 -24t-56 -28.5t-83 -13.5q-46 0 -78.5 23.5t-50 58t-31.5 70
t-33.5 63.5t-46.5 33q6 -192 23 -215q-50 -32 -118 -32q-31 0 -40 8.5t-9 39.5q0 9 3.5 77.5t3.5 132.5q0 82 -8.5 168.5t-28.5 89.5q10 14 42.5 25.5t66.5 11.5q42 0 53 -18t11 -93z" />
    <glyph glyph-name="Lacute" unicode="&#x139;" horiz-adv-x="555" 
d="M246 638l-2 -623q104 0 171.5 19t123.5 58q14 -14 14 -42q0 -23 -15 -38.5t-49 -15.5l-278 -1q-92 0 -128 12q15 147 15 337q0 362 -34 368q10 13 47 25t72 12q41 0 52 -18t11 -93zM190 802q54 19 90.5 66t44.5 112q20 14 43 14q24 0 40 -15.5t16 -42.5q0 -56 -78 -98
t-135 -42q-17 0 -21 6z" />
    <glyph glyph-name="lacute" unicode="&#x13a;" horiz-adv-x="385" 
d="M99 117v501q0 65 -12.5 88.5t-45.5 23.5q-15 0 -34 -4q-1 1 -1 3q0 14 59 31t109 17q45 0 60 -21.5t15 -87.5v-541q0 -40 8 -55t32 -15q40 0 77 21q1 -1 1 -4q0 -19 -64.5 -49t-123.5 -30q-50 0 -65 27.5t-15 94.5zM143 803q54 19 90.5 66t44.5 112q20 14 43 14
q24 0 40 -15.5t16 -42.5q0 -56 -78 -98t-135 -42q-16 0 -21 6z" />
    <glyph glyph-name="Lcommaaccent" unicode="&#x13b;" horiz-adv-x="555" 
d="M246 638l-2 -623q104 0 171.5 19t123.5 58q14 -14 14 -42q0 -23 -15 -38.5t-49 -15.5l-278 -1q-92 0 -128 12q15 147 15 337q0 362 -34 368q10 13 47 25t72 12q41 0 52 -18t11 -93zM343 -192q-60 -13 -83.5 10.5t-23.5 57.5q0 33 21 56t52 23q33 0 53.5 -19t20.5 -54
q0 -63 -44.5 -128t-87.5 -65q-21 0 -30.5 10.5t-9.5 23.5q58 0 95 29t37 56z" />
    <glyph glyph-name="lcommaaccent" unicode="&#x13c;" horiz-adv-x="375" 
d="M237 -191q-60 -13 -83.5 10.5t-23.5 57.5q0 33 21 56t52 23q33 0 53.5 -19t20.5 -54q0 -63 -44.5 -128t-87.5 -65q-21 0 -30.5 10.5t-9.5 23.5q58 0 95 29t37 56zM99 117v501q0 65 -12.5 88.5t-45.5 23.5q-15 0 -34 -4q-1 1 -1 3q0 14 59 31t109 17q45 0 60 -21.5
t15 -87.5v-541q0 -40 8 -55t32 -15q40 0 77 21q1 -1 1 -4q0 -19 -64.5 -49t-123.5 -30q-50 0 -65 27.5t-15 94.5z" />
    <glyph glyph-name="Lcaron" unicode="&#x13d;" horiz-adv-x="555" 
d="M246 638l-2 -623q104 0 171.5 19t123.5 58q14 -14 14 -42q0 -23 -15 -38.5t-49 -15.5l-278 -1q-92 0 -128 12q15 147 15 337q0 362 -34 368q10 13 47 25t72 12q41 0 52 -18t11 -93zM433 667q-60 -13 -83.5 10.5t-23.5 57.5q0 33 21 56t52 23q33 0 53.5 -19t20.5 -54
q0 -63 -44.5 -128t-87.5 -65q-21 0 -30.5 10.5t-9.5 23.5q58 0 95 29t37 56z" />
    <glyph glyph-name="lcaron" unicode="&#x13e;" horiz-adv-x="375" 
d="M99 117v501q0 65 -12.5 88.5t-45.5 23.5q-15 0 -34 -4q-1 1 -1 3q0 14 59 31t109 17q45 0 60 -21.5t15 -87.5v-541q0 -40 8 -55t32 -15q40 0 77 21q1 -1 1 -4q0 -19 -64.5 -49t-123.5 -30q-50 0 -65 27.5t-15 94.5zM161 887q108 85 143 85q16 0 25 -12q-10 -10 -44 -40
l-67 -61q-33 -32 -57 -61q-24 29 -57 61l-67 61q-34 30 -44 40q9 12 25 12q35 0 143 -85z" />
    <glyph glyph-name="Ldot" unicode="&#x13f;" horiz-adv-x="555" 
d="M246 638l-2 -623q104 0 171.5 19t123.5 58q14 -14 14 -42q0 -23 -15 -38.5t-49 -15.5l-278 -1q-92 0 -128 12q15 147 15 337q0 362 -34 368q10 13 47 25t72 12q41 0 52 -18t11 -93zM440 481q79 0 79 -76q0 -44 -24 -71t-69 -27q-77 0 -77 77q0 42 25 69.5t66 27.5z" />
    <glyph glyph-name="ldot" unicode="&#x140;" horiz-adv-x="467" 
d="M99 117v501q0 65 -12.5 88.5t-45.5 23.5q-15 0 -34 -4q-1 1 -1 3q0 14 59 31t109 17q45 0 60 -21.5t15 -87.5v-541q0 -40 8 -55t32 -15q40 0 77 21q1 -1 1 -4q0 -19 -64.5 -49t-123.5 -30q-50 0 -65 27.5t-15 94.5zM380 473q79 0 79 -76q0 -44 -24 -71t-69 -27
q-77 0 -77 77q0 42 25 69.5t66 27.5z" />
    <glyph glyph-name="Lslash" unicode="&#x141;" horiz-adv-x="587" 
d="M278 638l-1 -204q125 69 151 69q22 0 22 -26q0 -10 -2 -15q-61 -13 -171 -74l-1 -373q104 0 171.5 19t123.5 58q14 -14 14 -42q0 -23 -15 -38.5t-49 -15.5l-278 -1q-92 0 -128 12q14 134 15 298q-30 -14 -44 -14q-22 0 -22 27q0 4 2 12q17 3 64 25q0 351 -34 357
q10 13 47 25t72 12q41 0 52 -18t11 -93z" />
    <glyph glyph-name="lslash" unicode="&#x142;" horiz-adv-x="400" 
d="M119 381v237q0 65 -12.5 88.5t-45.5 23.5q-15 0 -34 -4q-1 1 -1 3q0 14 59 31t109 17q45 0 60 -21.5t15 -87.5v-205q81 42 101 42q22 0 22 -26q0 -10 -2 -15q-50 -11 -121 -48v-289q0 -40 8 -55t32 -15q40 0 77 21q1 -1 1 -4q0 -19 -64.5 -49t-123.5 -30q-50 0 -65 27.5
t-15 94.5v215q-70 -39 -91 -39q-22 0 -22 27q0 4 2 12q28 6 111 49z" />
    <glyph glyph-name="Nacute" unicode="&#x143;" horiz-adv-x="742" 
d="M567 723q2 9 20.5 18t38.5 9q53 0 53 -59q0 -542 -19 -680q-24 -16 -69 -16q-46 0 -97 47t-94 118.5t-88.5 158t-82 162.5t-72.5 135.5t-61 75.5q21 -347 36 -486t37 -196q-31 -12 -51 -12q-26 0 -36 22t-10 71q0 25 6.5 144t6.5 216q0 72 -6.5 167t-14.5 102
q12 11 49 20t71 9q47 0 86 -44t74 -121l72 -163q38 -85 99 -186t134 -175q5 138 5 223q0 171 -19.5 271.5t-67.5 168.5zM368 801q54 19 90.5 66t44.5 112q20 14 43 14q24 0 40 -15.5t16 -42.5q0 -56 -78 -98t-135 -42q-17 0 -21 6z" />
    <glyph glyph-name="nacute" unicode="&#x144;" horiz-adv-x="650" 
d="M6 490q-1 1 -1 3q0 14 51.5 31t103.5 17q48 0 62.5 -23.5t14.5 -95.5q27 54 74.5 89t113.5 35q70 0 93.5 -41t23.5 -129q0 -35 0.5 -105.5t0.5 -105.5q0 -65 5.5 -85.5t25.5 -20.5q31 0 65 12q3 -1 3 -5q-1 -17 -48.5 -44t-99.5 -27q-55 0 -78 25t-23 79q-1 219 -1 257
q0 56 -13 76t-39 20q-57 0 -103 -55q0 -164 4 -234.5t21 -146.5q-15 -6 -60.5 -13.5t-72.5 -7.5q-30 0 -37.5 12.5t-7.5 49.5q0 49 5 157.5t5 164.5q0 69 -10.5 92t-42.5 23q-16 0 -35 -4zM296 590q54 19 90.5 66t44.5 112q20 14 43 14q24 0 40 -15.5t16 -42.5
q0 -56 -78 -98t-135 -42q-17 0 -21 6z" />
    <glyph glyph-name="Ncommaaccent" unicode="&#x145;" horiz-adv-x="742" 
d="M398 -190q-60 -13 -83.5 10.5t-23.5 57.5q0 33 21 56t52 23q33 0 53.5 -19t20.5 -54q0 -63 -44.5 -128t-87.5 -65q-21 0 -30.5 10.5t-9.5 23.5q58 0 95 29t37 56zM567 723q2 9 20.5 18t38.5 9q53 0 53 -59q0 -542 -19 -680q-24 -16 -69 -16q-46 0 -97 47t-94 118.5
t-88.5 158t-82 162.5t-72.5 135.5t-61 75.5q21 -347 36 -486t37 -196q-31 -12 -51 -12q-26 0 -36 22t-10 71q0 25 6.5 144t6.5 216q0 72 -6.5 167t-14.5 102q12 11 49 20t71 9q47 0 86 -44t74 -121l72 -163q38 -85 99 -186t134 -175q5 138 5 223q0 171 -19.5 271.5
t-67.5 168.5z" />
    <glyph glyph-name="ncommaaccent" unicode="&#x146;" horiz-adv-x="650" 
d="M369 -190q-60 -13 -83.5 10.5t-23.5 57.5q0 33 21 56t52 23q33 0 53.5 -19t20.5 -54q0 -63 -44.5 -128t-87.5 -65q-21 0 -30.5 10.5t-9.5 23.5q58 0 95 29t37 56zM6 490q-1 1 -1 3q0 14 51.5 31t103.5 17q48 0 62.5 -23.5t14.5 -95.5q27 54 74.5 89t113.5 35
q70 0 93.5 -41t23.5 -129q0 -35 0.5 -105.5t0.5 -105.5q0 -65 5.5 -85.5t25.5 -20.5q31 0 65 12q3 -1 3 -5q-1 -17 -48.5 -44t-99.5 -27q-55 0 -78 25t-23 79q-1 219 -1 257q0 56 -13 76t-39 20q-57 0 -103 -55q0 -164 4 -234.5t21 -146.5q-15 -6 -60.5 -13.5t-72.5 -7.5
q-30 0 -37.5 12.5t-7.5 49.5q0 49 5 157.5t5 164.5q0 69 -10.5 92t-42.5 23q-16 0 -35 -4z" />
    <glyph glyph-name="Ncaron" unicode="&#x147;" horiz-adv-x="742" 
d="M567 723q2 9 20.5 18t38.5 9q53 0 53 -59q0 -542 -19 -680q-24 -16 -69 -16q-46 0 -97 47t-94 118.5t-88.5 158t-82 162.5t-72.5 135.5t-61 75.5q21 -347 36 -486t37 -196q-31 -12 -51 -12q-26 0 -36 22t-10 71q0 25 6.5 144t6.5 216q0 72 -6.5 167t-14.5 102
q12 11 49 20t71 9q47 0 86 -44t74 -121l72 -163q38 -85 99 -186t134 -175q5 138 5 223q0 171 -19.5 271.5t-67.5 168.5zM387 884q108 85 143 85q16 0 25 -12q-10 -10 -44 -40l-67 -62q-33 -31 -57 -60q-24 29 -57 60l-67 62q-34 30 -44 40q9 12 25 12q35 0 143 -85z" />
    <glyph glyph-name="ncaron" unicode="&#x148;" horiz-adv-x="650" 
d="M6 490q-1 1 -1 3q0 14 51.5 31t103.5 17q48 0 62.5 -23.5t14.5 -95.5q27 54 74.5 89t113.5 35q70 0 93.5 -41t23.5 -129q0 -35 0.5 -105.5t0.5 -105.5q0 -65 5.5 -85.5t25.5 -20.5q31 0 65 12q3 -1 3 -5q-1 -17 -48.5 -44t-99.5 -27q-55 0 -78 25t-23 79q-1 219 -1 257
q0 56 -13 76t-39 20q-57 0 -103 -55q0 -164 4 -234.5t21 -146.5q-15 -6 -60.5 -13.5t-72.5 -7.5q-30 0 -37.5 12.5t-7.5 49.5q0 49 5 157.5t5 164.5q0 69 -10.5 92t-42.5 23q-16 0 -35 -4zM320 675q108 85 143 85q16 0 25 -12q-10 -10 -44 -40l-67 -61q-33 -32 -57 -61
q-24 29 -57 61l-67 61q-34 30 -44 40q9 12 25 12q35 0 143 -85z" />
    <glyph glyph-name="napostrophe" unicode="&#x149;" horiz-adv-x="818" 
d="M126 547q-54 -13 -75.5 9t-21.5 53q0 30 19 51t47 21q30 0 49 -17.5t19 -49.5q0 -58 -41 -117t-80 -59q-19 0 -27.5 9.5t-8.5 21.5q53 0 86.5 26.5t33.5 51.5zM174 490q-1 1 -1 3q0 14 51.5 31t103.5 17q48 0 62.5 -23.5t14.5 -95.5q27 54 74.5 89t113.5 35
q70 0 93.5 -41t23.5 -129q0 -35 0.5 -105.5t0.5 -105.5q0 -65 5.5 -85.5t25.5 -20.5q31 0 65 12q3 -1 3 -5q-1 -17 -48.5 -44t-99.5 -27q-55 0 -78 25t-23 79q-1 219 -1 257q0 56 -13 76t-39 20q-57 0 -103 -55q0 -164 4 -234.5t21 -146.5q-15 -6 -60.5 -13.5t-72.5 -7.5
q-30 0 -37.5 12.5t-7.5 49.5q0 49 5 157.5t5 164.5q0 69 -10.5 92t-42.5 23q-16 0 -35 -4z" />
    <glyph glyph-name="Eng" unicode="&#x14a;" horiz-adv-x="752" 
d="M681 691q0 -49 4 -177t4 -199q0 -70 -3 -127t-10 -116.5t-21 -104t-34.5 -80.5t-51.5 -55t-71 -19q-67 0 -106.5 28.5t-39.5 74.5q0 34 22 55t52 21q32 0 54 -22q-22 -30 -22 -64q0 -29 15.5 -49t35.5 -20q46 0 46 74q0 70 -68 218.5t-178 310t-213 252.5
q21 -348 36 -487t37 -196q-33 -12 -52 -12q-25 0 -34.5 20.5t-9.5 66.5q0 23 6 134.5t6 201.5q0 79 -6 185t-15 115q13 11 49 20t68 9q59 0 132 -76.5t137.5 -192t113 -219.5t79.5 -188q11 85 11 187q0 145 -22 273.5t-65 189.5q3 10 22 19t39 9q23 0 38 -14.5t15 -45.5z
" />
    <glyph glyph-name="eng" unicode="&#x14b;" horiz-adv-x="551" 
d="M5 493q0 14 51.5 31t103.5 17q48 0 62.5 -23.5t14.5 -95.5q27 54 74.5 89t113.5 35q70 0 93.5 -41t23.5 -129q0 -54 0.5 -147t0.5 -131q0 -285 -192 -285q-62 0 -96 28t-34 71q0 33 23.5 53t53.5 20q33 0 57 -13q-30 -49 -30 -90q0 -44 27 -44q16 0 27.5 20.5t11.5 59.5
q0 120 0.5 257.5t0.5 161.5q0 66 -11.5 90.5t-38.5 24.5q-59 0 -105 -55q0 -164 4 -234.5t21 -146.5q-15 -6 -60.5 -13.5t-72.5 -7.5q-30 0 -37.5 12.5t-7.5 49.5q0 38 5 152.5t5 169.5q0 69 -10.5 92t-42.5 23q-16 0 -35 -4q-1 1 -1 3z" />
    <glyph glyph-name="Omacron" unicode="&#x14c;" horiz-adv-x="796" 
d="M398 729q-50 0 -87 -21t-58.5 -54.5t-34.5 -83.5t-17.5 -99t-4.5 -110q0 -153 50 -249.5t152 -96.5q50 0 87 20t58.5 51.5t34.5 79.5t17.5 96t4.5 109q0 99 -19.5 177t-66.5 129.5t-116 51.5zM398 -5q-162 0 -258 89.5t-96 258.5q0 177 99 291.5t255 114.5
q160 0 257 -94.5t97 -265.5q0 -176 -98.5 -285t-255.5 -109zM576 798q-22 3 -74.5 4t-101.5 0l-98 -2q-49 -1 -54 -1q-27 0 -30.5 18t10.5 30q58 -2 98 -2l116 2q77 1 114 1q27 0 31.5 -17.5t-11.5 -32.5z" />
    <glyph glyph-name="omacron" unicode="&#x14d;" horiz-adv-x="614" 
d="M300 -5q-107 2 -179 68.5t-72 201.5q0 128 69 204.5t196 76.5q109 0 180 -68.5t71 -201.5q0 -128 -69 -204.5t-196 -76.5zM308 15q39 0 64 37t34 90.5t9 122.5q0 48 -5 90.5t-16 83t-33.5 64.5t-54.5 24q-39 0 -64 -37t-34 -90.5t-9 -122.5q0 -48 5 -90.5t16 -83
t33.5 -64.5t54.5 -24zM481 586q-22 3 -74.5 4t-101.5 0l-98 -2q-49 -1 -54 -1q-27 0 -30.5 18t10.5 30q58 -2 98 -1l117 1q76 1 113 1q27 0 31.5 -17.5t-11.5 -32.5z" />
    <glyph glyph-name="Obreve" unicode="&#x14e;" horiz-adv-x="796" 
d="M398 729q-50 0 -87 -21t-58.5 -54.5t-34.5 -83.5t-17.5 -99t-4.5 -110q0 -153 50 -249.5t152 -96.5q50 0 87 20t58.5 51.5t34.5 79.5t17.5 96t4.5 109q0 99 -19.5 177t-66.5 129.5t-116 51.5zM398 -5q-162 0 -258 89.5t-96 258.5q0 177 99 291.5t255 114.5
q160 0 257 -94.5t97 -265.5q0 -176 -98.5 -285t-255.5 -109zM401 815q61 0 61 181q104 0 104 -70q0 -49 -45 -90t-120 -41t-120 41t-45 90q0 70 104 70q0 -181 61 -181z" />
    <glyph glyph-name="obreve" unicode="&#x14f;" horiz-adv-x="614" 
d="M300 -5q-107 2 -179 68.5t-72 201.5q0 128 69 204.5t196 76.5q109 0 180 -68.5t71 -201.5q0 -128 -69 -204.5t-196 -76.5zM308 15q39 0 64 37t34 90.5t9 122.5q0 48 -5 90.5t-16 83t-33.5 64.5t-54.5 24q-39 0 -64 -37t-34 -90.5t-9 -122.5q0 -48 5 -90.5t16 -83
t33.5 -64.5t54.5 -24zM304 604q61 0 61 181q104 0 104 -70q0 -49 -45 -90t-120 -41t-120 41t-45 90q0 70 104 70q0 -181 61 -181z" />
    <glyph glyph-name="Ohungarumlaut" unicode="&#x150;" horiz-adv-x="796" 
d="M398 729q-50 0 -87 -21t-58.5 -54.5t-34.5 -83.5t-17.5 -99t-4.5 -110q0 -153 50 -249.5t152 -96.5q50 0 87 20t58.5 51.5t34.5 79.5t17.5 96t4.5 109q0 99 -19.5 177t-66.5 129.5t-116 51.5zM398 -5q-162 0 -258 89.5t-96 258.5q0 177 99 291.5t255 114.5
q160 0 257 -94.5t97 -265.5q0 -176 -98.5 -285t-255.5 -109zM267 803q54 19 90.5 66t44.5 112q20 14 43 14q24 0 40 -15.5t16 -42.5q0 -56 -78 -98t-135 -42q-16 0 -21 6zM444 803q54 19 90.5 66t44.5 112q20 14 43 14q24 0 40 -15.5t16 -42.5q0 -56 -78 -98t-135 -42
q-17 0 -21 6z" />
    <glyph glyph-name="ohungarumlaut" unicode="&#x151;" horiz-adv-x="614" 
d="M300 -5q-107 2 -179 68.5t-72 201.5q0 128 69 204.5t196 76.5q109 0 180 -68.5t71 -201.5q0 -128 -69 -204.5t-196 -76.5zM308 15q39 0 64 37t34 90.5t9 122.5q0 48 -5 90.5t-16 83t-33.5 64.5t-54.5 24q-39 0 -64 -37t-34 -90.5t-9 -122.5q0 -48 5 -90.5t16 -83
t33.5 -64.5t54.5 -24zM191 603q54 19 90.5 66t44.5 112q20 14 43 14q24 0 40 -15.5t16 -42.5q0 -56 -78 -98t-135 -42q-16 0 -21 6zM368 603q54 19 90.5 66t44.5 112q20 14 43 14q24 0 40 -15.5t16 -42.5q0 -56 -78 -98t-135 -42q-17 0 -21 6z" />
    <glyph glyph-name="OE" unicode="&#x152;" horiz-adv-x="885" 
d="M418 0q-175 0 -274.5 89.5t-99.5 261.5q0 176 102 284.5t272 108.5h380q34 0 49 -15.5t15 -38.5q0 -28 -14 -42q-92 76 -285 76v-332q158 0 235 18q4 -8 4 -18q0 -26 -37 -26q-10 0 -94 3t-108 3v-352q104 0 171.5 19t123.5 58q14 -14 14 -42q0 -23 -15 -38.5t-49 -15.5
q-8 0 -198.5 -0.5t-191.5 -0.5zM438 29q18 182 18 340q0 137 -9 245t-29 110q-222 0 -222 -363q0 -56 5.5 -100.5t21 -89t41.5 -74t70 -48.5t104 -20z" />
    <glyph glyph-name="oe" unicode="&#x153;" horiz-adv-x="921" 
d="M768 310h-201q-1 -10 -1 -31v-3v-13q1 -40 8.5 -76.5t23.5 -70.5t45 -54.5t69 -20.5q49 0 99 27t68 49q2 0 2 -5q0 -11 -15 -29.5t-41 -38.5t-70.5 -34.5t-95.5 -14.5q-111 0 -172 66q-69 -66 -186 -66q-107 2 -179 68.5t-72 201.5q0 128 69 204.5t196 76.5
q111 0 179 -68q68 68 188 68q100 0 152 -44t52 -109q0 -23 -7.5 -39.5t-17.5 -25t-28 -12.5t-31 -5t-34 -1zM309 15q39 0 64 37t34 90.5t9 122.5q0 48 -5 90.5t-16 83t-33.5 64.5t-54.5 24q-39 0 -64 -37t-34 -90.5t-9 -122.5q0 -48 5 -90.5t16 -83t33.5 -64.5t54.5 -24z
M752 402q0 125 -81 125q-55 0 -79 -56.5t-24 -139.5q14 0 62.5 -0.5t54.5 -0.5q39 0 53 14.5t14 57.5z" />
    <glyph glyph-name="Racute" unicode="&#x154;" horiz-adv-x="743" 
d="M248 732q-1 -64 -1 -199q0 -442 34 -510q-48 -28 -124 -28q-36 0 -49.5 18t-13.5 71q0 17 3 124.5t3 204.5q0 100 -8.5 202.5t-27.5 110.5q15 15 88.5 25t149.5 10q289 0 289 -175q0 -68 -41 -121.5t-109 -79.5q28 -14 53.5 -54.5t45.5 -87.5l42 -93q21 -46 51.5 -76
t67.5 -30q19 0 39 7q1 -1 1 -3q0 -9 -17 -23.5t-54 -28t-82 -13.5q-51 0 -88.5 33t-60.5 83.5t-42.5 103t-44.5 100t-55 66.5q-9 3 -9 8q152 0 152 198q0 91 -35.5 128.5t-101.5 37.5q-42 0 -55 -9zM278 803q54 19 90.5 66t44.5 112q20 14 43 14q24 0 40 -15.5t16 -42.5
q0 -56 -78 -98t-135 -42q-17 0 -21 6z" />
    <glyph glyph-name="racute" unicode="&#x155;" horiz-adv-x="469" 
d="M389 547q38 0 58 -20.5t20 -50.5q0 -26 -15.5 -49t-42.5 -33q-19 36 -37.5 51.5t-46.5 15.5q-21 0 -44.5 -16t-38.5 -42v-61q0 -45 0.5 -58.5t1 -48t1.5 -52t3 -47.5t4.5 -58.5t6.5 -61.5q-15 -6 -56.5 -13.5t-67.5 -7.5q-30 0 -37.5 13t-7.5 50l4 324q0 67 -10.5 89.5
t-44.5 22.5q-14 0 -33 -4q-1 1 -1 3q0 14 54.5 31t106.5 17q49 0 62 -21.5t14 -88.5q24 49 66 82.5t81 33.5zM216 592q54 19 90.5 66t44.5 112q20 14 43 14q24 0 40 -15.5t16 -42.5q0 -56 -78 -98t-135 -42q-17 0 -21 6z" />
    <glyph glyph-name="Rcommaaccent" unicode="&#x156;" horiz-adv-x="743" 
d="M248 732q-1 -64 -1 -199q0 -442 34 -510q-48 -28 -124 -28q-36 0 -49.5 18t-13.5 71q0 17 3 124.5t3 204.5q0 100 -8.5 202.5t-27.5 110.5q15 15 88.5 25t149.5 10q289 0 289 -175q0 -68 -41 -121.5t-109 -79.5q28 -14 53.5 -54.5t45.5 -87.5l42 -93q21 -46 51.5 -76
t67.5 -30q19 0 39 7q1 -1 1 -3q0 -9 -17 -23.5t-54 -28t-82 -13.5q-51 0 -88.5 33t-60.5 83.5t-42.5 103t-44.5 100t-55 66.5q-9 3 -9 8q152 0 152 198q0 91 -35.5 128.5t-101.5 37.5q-42 0 -55 -9zM404 -192q-60 -13 -83.5 10.5t-23.5 57.5q0 33 21 56t52 23q33 0 53.5 -19
t20.5 -54q0 -63 -44.5 -128t-87.5 -65q-21 0 -30.5 10.5t-9.5 23.5q58 0 95 29t37 56z" />
    <glyph glyph-name="rcommaaccent" unicode="&#x157;" horiz-adv-x="469" 
d="M389 547q38 0 58 -20.5t20 -50.5q0 -26 -15.5 -49t-42.5 -33q-19 36 -37.5 51.5t-46.5 15.5q-21 0 -44.5 -16t-38.5 -42v-61q0 -45 0.5 -58.5t1 -48t1.5 -52t3 -47.5t4.5 -58.5t6.5 -61.5q-15 -6 -56.5 -13.5t-67.5 -7.5q-30 0 -37.5 13t-7.5 50l4 324q0 67 -10.5 89.5
t-44.5 22.5q-14 0 -33 -4q-1 1 -1 3q0 14 54.5 31t106.5 17q49 0 62 -21.5t14 -88.5q24 49 66 82.5t81 33.5zM212 -192q-60 -13 -83.5 10.5t-23.5 57.5q0 33 21 56t52 23q33 0 53.5 -19t20.5 -54q0 -63 -44.5 -128t-87.5 -65q-21 0 -30.5 10.5t-9.5 23.5q58 0 95 29t37 56z
" />
    <glyph glyph-name="Rcaron" unicode="&#x158;" horiz-adv-x="743" 
d="M248 732q-1 -64 -1 -199q0 -442 34 -510q-48 -28 -124 -28q-36 0 -49.5 18t-13.5 71q0 17 3 124.5t3 204.5q0 100 -8.5 202.5t-27.5 110.5q15 15 88.5 25t149.5 10q289 0 289 -175q0 -68 -41 -121.5t-109 -79.5q28 -14 53.5 -54.5t45.5 -87.5l42 -93q21 -46 51.5 -76
t67.5 -30q19 0 39 7q1 -1 1 -3q0 -9 -17 -23.5t-54 -28t-82 -13.5q-51 0 -88.5 33t-60.5 83.5t-42.5 103t-44.5 100t-55 66.5q-9 3 -9 8q152 0 152 198q0 91 -35.5 128.5t-101.5 37.5q-42 0 -55 -9zM309 886q108 85 143 85q16 0 25 -12q-10 -10 -44 -40l-67 -62
q-33 -31 -57 -60q-24 29 -57 60l-67 62q-34 30 -44 40q9 12 25 12q35 0 143 -85z" />
    <glyph glyph-name="rcaron" unicode="&#x159;" horiz-adv-x="469" 
d="M389 547q38 0 58 -20.5t20 -50.5q0 -26 -15.5 -49t-42.5 -33q-19 36 -37.5 51.5t-46.5 15.5q-21 0 -44.5 -16t-38.5 -42v-61q0 -45 0.5 -58.5t1 -48t1.5 -52t3 -47.5t4.5 -58.5t6.5 -61.5q-15 -6 -56.5 -13.5t-67.5 -7.5q-30 0 -37.5 13t-7.5 50l4 324q0 67 -10.5 89.5
t-44.5 22.5q-14 0 -33 -4q-1 1 -1 3q0 14 54.5 31t106.5 17q49 0 62 -21.5t14 -88.5q24 49 66 82.5t81 33.5zM263 676q108 85 143 85q16 0 25 -12q-10 -10 -44 -40l-67 -62q-33 -31 -57 -60q-24 29 -57 60l-67 62q-34 30 -44 40q9 12 25 12q35 0 143 -85z" />
    <glyph glyph-name="Sacute" unicode="&#x15a;" horiz-adv-x="659" 
d="M445 156q0 57 -39 100.5t-95 73.5l-111 58q-55 30 -94 74t-39 102q0 85 75 135t197 50q105 0 177.5 -45.5t72.5 -107.5q0 -34 -22.5 -53.5t-54.5 -19.5q-45 0 -73 28q0 92 -23 134.5t-82 42.5q-47 0 -74.5 -35.5t-27.5 -86.5q0 -31 21 -59t54.5 -50t74 -43.5t81 -46.5
t74 -53.5t54.5 -68t21 -86.5q0 -63 -42.5 -110.5t-109 -70.5t-144.5 -23q-127 0 -199.5 48.5t-72.5 113.5q0 49 28 74.5t67 25.5q47 0 75 -30q-10 -38 -10 -70q0 -60 28.5 -101t85.5 -41q53 0 90 40t37 101zM303 802q54 19 90.5 66t44.5 112q20 14 43 14q24 0 40 -15.5
t16 -42.5q0 -56 -78 -98t-135 -42q-16 0 -21 6z" />
    <glyph glyph-name="sacute" unicode="&#x15b;" horiz-adv-x="501" 
d="M237 -5q-77 0 -134.5 33.5t-57.5 88.5q0 35 21.5 54.5t50.5 19.5q34 0 55 -25q-10 -23 -10 -53q0 -41 21 -69.5t61 -28.5q76 0 76 86q0 36 -27.5 66.5t-66.5 53.5l-79 47q-39 25 -66.5 60.5t-27.5 77.5q0 140 220 140q74 0 122.5 -29t48.5 -69q0 -31 -20.5 -50t-51.5 -19
q-36 0 -56 20q13 31 13 62q0 65 -66 65q-30 0 -51 -21.5t-21 -58.5q0 -38 28 -68.5t68 -52.5l79 -44q39 -23 67 -58t28 -80q0 -70 -65 -109t-159 -39zM210 591q54 19 90.5 66t44.5 112q20 14 43 14q24 0 40 -15.5t16 -42.5q0 -56 -78 -98t-135 -42q-17 0 -21 6z" />
    <glyph glyph-name="Scircumflex" unicode="&#x15c;" horiz-adv-x="659" 
d="M445 156q0 57 -39 100.5t-95 73.5l-111 58q-55 30 -94 74t-39 102q0 85 75 135t197 50q105 0 177.5 -45.5t72.5 -107.5q0 -34 -22.5 -53.5t-54.5 -19.5q-45 0 -73 28q0 92 -23 134.5t-82 42.5q-47 0 -74.5 -35.5t-27.5 -86.5q0 -31 21 -59t54.5 -50t74 -43.5t81 -46.5
t74 -53.5t54.5 -68t21 -86.5q0 -63 -42.5 -110.5t-109 -70.5t-144.5 -23q-127 0 -199.5 48.5t-72.5 113.5q0 49 28 74.5t67 25.5q47 0 75 -30q-10 -38 -10 -70q0 -60 28.5 -101t85.5 -41q53 0 90 40t37 101zM352 882q-108 -85 -143 -85q-16 0 -25 12q10 10 44 40l67 61
q33 32 57 61q24 -29 57 -61l67 -61q34 -30 44 -40q-9 -12 -25 -12q-35 0 -143 85z" />
    <glyph glyph-name="scircumflex" unicode="&#x15d;" horiz-adv-x="501" 
d="M237 -5q-77 0 -134.5 33.5t-57.5 88.5q0 35 21.5 54.5t50.5 19.5q34 0 55 -25q-10 -23 -10 -53q0 -41 21 -69.5t61 -28.5q76 0 76 86q0 36 -27.5 66.5t-66.5 53.5l-79 47q-39 25 -66.5 60.5t-27.5 77.5q0 140 220 140q74 0 122.5 -29t48.5 -69q0 -31 -20.5 -50t-51.5 -19
q-36 0 -56 20q13 31 13 62q0 65 -66 65q-30 0 -51 -21.5t-21 -58.5q0 -38 28 -68.5t68 -52.5l79 -44q39 -23 67 -58t28 -80q0 -70 -65 -109t-159 -39zM260 671q-108 -85 -143 -85q-16 0 -25 12q10 10 44 40l67 61q33 32 57 61q24 -29 57 -61l67 -61q34 -30 44 -40
q-9 -12 -25 -12q-35 0 -143 85z" />
    <glyph glyph-name="Scedilla" unicode="&#x15e;" horiz-adv-x="659" 
d="M234 -128l54 124q-115 5 -179.5 52.5t-64.5 108.5q0 49 28 74.5t67 25.5q47 0 75 -30q-10 -38 -10 -70q0 -60 28.5 -101t85.5 -41q53 0 90 40t37 101q0 57 -39 100.5t-95 73.5l-111 59q-55 29 -94 73t-39 102q0 85 75 135t197 50q105 0 177.5 -45.5t72.5 -107.5
q0 -34 -22.5 -53.5t-54.5 -19.5q-45 0 -73 28q0 92 -23 134.5t-82 42.5q-47 0 -74.5 -35.5t-27.5 -86.5q0 -31 21 -59t54.5 -50t74 -43.5t81 -46.5t74 -53.5t54.5 -68t21 -86.5q0 -63 -42.5 -110.5t-109 -70.5t-144.5 -23l-24 -44q54 0 81.5 -23.5t27.5 -59.5q0 -50 -46 -92
t-116 -42q-87 0 -87 40q0 15 11 23.5t24 8.5q13 -50 59 -50q31 0 46.5 12.5t15.5 32.5q0 26 -22 48.5t-52 22.5z" />
    <glyph glyph-name="scedilla" unicode="&#x15f;" horiz-adv-x="501" 
d="M176 -128l54 123q-75 2 -130 35t-55 87q0 35 21.5 54.5t50.5 19.5q34 0 55 -25q-10 -23 -10 -53q0 -41 21 -69.5t61 -28.5q76 0 76 86q0 36 -27.5 66.5t-66.5 53.5l-79 47q-39 25 -66.5 60.5t-27.5 77.5q0 140 220 140q74 0 122.5 -29t48.5 -69q0 -31 -20.5 -50
t-51.5 -19q-36 0 -56 20q13 31 13 62q0 65 -66 65q-30 0 -51 -21.5t-21 -58.5q0 -38 28 -68.5t68 -52.5l79 -44q39 -23 67 -58t28 -80q0 -65 -58 -104t-144 -43l-25 -45q54 0 81.5 -23.5t27.5 -59.5q0 -50 -46 -92t-116 -42q-87 0 -87 40q0 15 11 23.5t24 8.5q13 -50 59 -50
q31 0 46.5 12.5t15.5 32.5q0 26 -22 48.5t-52 22.5z" />
    <glyph glyph-name="Scaron" unicode="&#x160;" horiz-adv-x="659" 
d="M445 156q0 57 -39 100.5t-95 73.5l-111 58q-55 30 -94 74t-39 102q0 85 75 135t197 50q105 0 177.5 -45.5t72.5 -107.5q0 -34 -22.5 -53.5t-54.5 -19.5q-45 0 -73 28q0 92 -23 134.5t-82 42.5q-47 0 -74.5 -35.5t-27.5 -86.5q0 -31 21 -59t54.5 -50t74 -43.5t81 -46.5
t74 -53.5t54.5 -68t21 -86.5q0 -63 -42.5 -110.5t-109 -70.5t-144.5 -23q-127 0 -199.5 48.5t-72.5 113.5q0 49 28 74.5t67 25.5q47 0 75 -30q-10 -38 -10 -70q0 -60 28.5 -101t85.5 -41q53 0 90 40t37 101zM341 886q108 85 143 85q16 0 25 -12q-10 -10 -44 -40l-67 -61
q-33 -32 -57 -61q-24 29 -57 61l-67 61q-34 30 -44 40q9 12 25 12q35 0 143 -85z" />
    <glyph glyph-name="scaron" unicode="&#x161;" horiz-adv-x="501" 
d="M237 -5q-77 0 -134.5 33.5t-57.5 88.5q0 35 21.5 54.5t50.5 19.5q34 0 55 -25q-10 -23 -10 -53q0 -41 21 -69.5t61 -28.5q76 0 76 86q0 36 -27.5 66.5t-66.5 53.5l-79 47q-39 25 -66.5 60.5t-27.5 77.5q0 140 220 140q74 0 122.5 -29t48.5 -69q0 -31 -20.5 -50t-51.5 -19
q-36 0 -56 20q13 31 13 62q0 65 -66 65q-30 0 -51 -21.5t-21 -58.5q0 -38 28 -68.5t68 -52.5l79 -44q39 -23 67 -58t28 -80q0 -70 -65 -109t-159 -39zM255 675q108 85 143 85q16 0 25 -12q-10 -10 -44 -40l-67 -62q-33 -31 -57 -60q-24 29 -57 60l-67 62q-34 30 -44 40
q9 12 25 12q35 0 143 -85z" />
    <glyph glyph-name="Tcommaaccent" unicode="&#x162;" horiz-adv-x="522" 
d="M178 79q0 32 3 119.5t3 160.5q0 321 -12 364q-57 -2 -89.5 -15.5t-58.5 -54.5q-22 12 -22 43q0 20 9.5 35.5t23.5 15.5q6 0 42 -1l88 -4q52 -2 96 -2q64 0 147 3.5t89 3.5q23 0 23 -27q0 -19 -12 -41.5t-28 -32.5q-31 41 -59.5 56.5t-87.5 19.5q1 -10 1 -70
q0 -43 -1 -117t-1 -108q0 -343 33 -404q-33 -19 -91 -25l-25 -47q54 0 81.5 -23.5t27.5 -59.5q0 -50 -46 -92t-116 -42q-87 0 -87 40q0 15 11 23.5t24 8.5q12 -50 59 -50q31 0 46.5 12.5t15.5 32.5q0 26 -22 48.5t-52 22.5l54 123h-9q-32 0 -45 19t-13 65z" />
    <glyph glyph-name="tcommaaccent" unicode="&#x163;" horiz-adv-x="394" 
d="M117 -128l54 123h-5q-51 0 -70.5 26t-19.5 78v406q-43 0 -61 -5q-4 4 -4 10q0 7 10 10t27.5 9.5t38.5 20t46.5 49.5t47.5 90q28 0 40.5 -36.5t12.5 -127.5q28 0 67.5 5.5t52.5 12.5q3 -12 3 -19q0 -25 -34 -25q-11 0 -42 3t-47 3v-370q0 -51 4 -64.5t25 -13.5
q24 0 55 7.5t43 14.5q1 -1 1 -4q0 -15 -54 -41.5t-107 -35.5l-26 -47q54 0 81.5 -23.5t27.5 -59.5q0 -50 -46 -92t-116 -42q-87 0 -87 40q0 15 11 23.5t24 8.5q12 -50 59 -50q31 0 46.5 12.5t15.5 32.5q0 26 -22 48.5t-52 22.5z" />
    <glyph glyph-name="Tcaron" unicode="&#x164;" horiz-adv-x="522" 
d="M178 79q0 32 3 119.5t3 160.5q0 321 -12 364q-57 -2 -89.5 -15.5t-58.5 -54.5q-22 12 -22 43q0 20 9.5 35.5t23.5 15.5q6 0 42 -1l88 -4q52 -2 96 -2q64 0 147 3.5t89 3.5q23 0 23 -27q0 -19 -12 -41.5t-28 -32.5q-31 41 -59.5 56.5t-87.5 19.5q1 -10 1 -70
q0 -43 -1 -117t-1 -108q0 -343 33 -404q-50 -28 -129 -28q-32 0 -45 19t-13 65zM259 885q108 85 143 85q16 0 25 -12q-10 -10 -44 -40l-67 -61q-33 -32 -57 -61q-24 29 -57 61l-67 61q-34 30 -44 40q9 12 25 12q35 0 143 -85z" />
    <glyph glyph-name="tcaron" unicode="&#x165;" horiz-adv-x="533" 
d="M234 505v-370q0 -51 4 -64.5t25 -13.5q24 0 55 7.5t43 14.5q1 -1 1 -4q0 -18 -70 -49t-126 -31q-51 0 -70.5 26t-19.5 78v406q-43 0 -61 -5q-4 4 -4 10q0 7 10 10t27.5 9.5t38.5 20t46.5 49.5t47.5 90q28 0 40.5 -36.5t12.5 -127.5q28 0 67.5 5.5t52.5 12.5q3 -12 3 -19
q0 -25 -34 -25q-11 0 -42 3t-47 3zM477 673q-60 -13 -83.5 10.5t-23.5 57.5q0 33 21 56t52 23q33 0 53.5 -19t20.5 -54q0 -63 -44.5 -128t-87.5 -65q-21 0 -30.5 10.5t-9.5 23.5q58 0 95 29t37 56z" />
    <glyph glyph-name="Tbar" unicode="&#x166;" horiz-adv-x="522" 
d="M480 646q-31 41 -59.5 56.5t-87.5 19.5q1 -10 1 -70v-55q20 0 54 0.5t47 0.5q32 0 32 -23q0 -15 -12 -27q-29 4 -122 4q0 -22 -0.5 -63.5t-0.5 -61.5q0 -343 33 -404q-50 -28 -129 -28q-32 0 -45 19t-13 65q0 32 3 119.5t3 160.5q0 74 -2 192q-20 0 -46 -0.5t-39.5 -1
t-17.5 -0.5q-31 0 -31 23q0 14 11 25q46 -2 92 -2h30q-3 110 -9 128q-57 -2 -89.5 -15.5t-58.5 -54.5q-22 12 -22 43q0 20 9.5 35.5t23.5 15.5q6 0 42 -1l88 -4q52 -2 96 -2q64 0 147 3.5t89 3.5q23 0 23 -27q0 -19 -12 -41.5t-28 -32.5z" />
    <glyph glyph-name="tbar" unicode="&#x167;" horiz-adv-x="398" 
d="M238 505v-173q14 0 43.5 0.5t47.5 0.5q32 0 32 -23q0 -15 -12 -27q-40 4 -111 4v-152q0 -51 4 -64.5t25 -13.5q24 0 55 7.5t43 14.5q1 -1 1 -4q0 -18 -70 -49t-126 -31q-51 0 -70.5 26t-19.5 78v186q-18 -1 -38 -1q-31 0 -31 23q0 14 11 25q30 -2 58 -2v175q-43 0 -61 -5
q-4 4 -4 10q0 7 10 10t27.5 9.5t38.5 20t46.5 49.5t47.5 90q28 0 40.5 -36.5t12.5 -127.5q28 0 67.5 5.5t52.5 12.5q3 -12 3 -19q0 -25 -34 -25q-11 0 -42 3t-47 3z" />
    <glyph glyph-name="Utilde" unicode="&#x168;" 
d="M246 637q0 -58 -1 -181v-172q0 -139 29 -205t113 -66q90 0 139 75.5t49 212.5q0 55 -12 176t-12 170q0 50 10.5 74t39.5 24q14 0 32 -6q-31 -63 -31 -213q0 -26 1 -76t1 -78q0 -80 -6 -135.5t-22.5 -104.5t-45.5 -77.5t-76 -45t-113 -16.5q-43 0 -78 6t-59.5 19.5
t-42.5 28.5t-29.5 40t-18 45.5t-9.5 55t-4 58.5t-1 64q0 394 -35 402q10 13 45.5 25t79.5 12q36 0 46.5 -19.5t10.5 -92.5zM563 942q10 -1 10 -28q0 -35 -32 -76t-94 -41q-28 0 -78.5 26t-73.5 26q-30 0 -54 -13t-29 -39q-10 3 -10 26q0 41 33.5 80t92.5 39q30 0 79.5 -26
t72.5 -26q34 0 57 15.5t26 36.5z" />
    <glyph glyph-name="utilde" unicode="&#x169;" horiz-adv-x="634" 
d="M93 160l4 217q0 69 -10.5 92t-42.5 23q-16 0 -35 -4q-1 1 -1 3q0 14 54 31t106 17q48 0 62.5 -23.5t14.5 -95.5l-5 -226q0 -58 11.5 -82.5t47.5 -24.5q18 0 43 13t46 37q0 167 -4 241t-21 150q15 6 60 13.5t76 7.5q21 0 31 -10.5t10 -38.5q0 -60 -5 -182.5t-5 -162.5
q0 -64 13.5 -88t45.5 -24q17 0 36 4q1 -1 1 -3q0 -9 -24 -20t-64.5 -19.5t-80.5 -8.5q-42 0 -55.5 25.5t-13.5 94.5q-68 -123 -175 -123q-72 0 -96 40t-24 127zM486 731q10 -1 10 -28q0 -35 -32 -76t-94 -41q-28 0 -78.5 26t-73.5 26q-30 0 -54 -13t-29 -39q-10 2 -10 26
q0 41 33.5 80t92.5 39q30 0 79.5 -26t72.5 -26q34 0 57 15.5t26 36.5z" />
    <glyph glyph-name="Umacron" unicode="&#x16a;" 
d="M246 637q0 -58 -1 -181v-172q0 -139 29 -205t113 -66q90 0 139 75.5t49 212.5q0 55 -12 176t-12 170q0 50 10.5 74t39.5 24q14 0 32 -6q-31 -63 -31 -213q0 -26 1 -76t1 -78q0 -80 -6 -135.5t-22.5 -104.5t-45.5 -77.5t-76 -45t-113 -16.5q-43 0 -78 6t-59.5 19.5
t-42.5 28.5t-29.5 40t-18 45.5t-9.5 55t-4 58.5t-1 64q0 394 -35 402q10 13 45.5 25t79.5 12q36 0 46.5 -19.5t10.5 -92.5zM554 798q-22 3 -74.5 4t-101.5 0l-98 -2q-49 -1 -54 -1q-27 0 -30.5 18t10.5 30q58 -2 98 -2l116 2q77 1 114 1q27 0 31.5 -17.5t-11.5 -32.5z" />
    <glyph glyph-name="umacron" unicode="&#x16b;" horiz-adv-x="634" 
d="M93 160l4 217q0 69 -10.5 92t-42.5 23q-16 0 -35 -4q-1 1 -1 3q0 14 54 31t106 17q48 0 62.5 -23.5t14.5 -95.5l-5 -226q0 -58 11.5 -82.5t47.5 -24.5q18 0 43 13t46 37q0 167 -4 241t-21 150q15 6 60 13.5t76 7.5q21 0 31 -10.5t10 -38.5q0 -60 -5 -182.5t-5 -162.5
q0 -64 13.5 -88t45.5 -24q17 0 36 4q1 -1 1 -3q0 -9 -24 -20t-64.5 -19.5t-80.5 -8.5q-42 0 -55.5 25.5t-13.5 94.5q-68 -123 -175 -123q-72 0 -96 40t-24 127zM484 586q-22 3 -74.5 4t-101.5 0l-98 -2q-49 -1 -54 -1q-27 0 -30.5 18t10.5 30q58 -2 98 -1l116 1q77 1 114 1
q27 0 31.5 -17.5t-11.5 -32.5z" />
    <glyph glyph-name="Ubreve" unicode="&#x16c;" 
d="M246 637q0 -58 -1 -181v-172q0 -139 29 -205t113 -66q90 0 139 75.5t49 212.5q0 55 -12 176t-12 170q0 50 10.5 74t39.5 24q14 0 32 -6q-31 -63 -31 -213q0 -26 1 -76t1 -78q0 -80 -6 -135.5t-22.5 -104.5t-45.5 -77.5t-76 -45t-113 -16.5q-43 0 -78 6t-59.5 19.5
t-42.5 28.5t-29.5 40t-18 45.5t-9.5 55t-4 58.5t-1 64q0 394 -35 402q10 13 45.5 25t79.5 12q36 0 46.5 -19.5t10.5 -92.5zM377 818q61 0 61 181q104 0 104 -70q0 -49 -45 -90t-120 -41t-120 41t-45 90q0 70 104 70q0 -181 61 -181z" />
    <glyph glyph-name="ubreve" unicode="&#x16d;" horiz-adv-x="634" 
d="M93 160l4 217q0 69 -10.5 92t-42.5 23q-16 0 -35 -4q-1 1 -1 3q0 14 54 31t106 17q48 0 62.5 -23.5t14.5 -95.5l-5 -226q0 -58 11.5 -82.5t47.5 -24.5q18 0 43 13t46 37q0 167 -4 241t-21 150q15 6 60 13.5t76 7.5q21 0 31 -10.5t10 -38.5q0 -60 -5 -182.5t-5 -162.5
q0 -64 13.5 -88t45.5 -24q17 0 36 4q1 -1 1 -3q0 -9 -24 -20t-64.5 -19.5t-80.5 -8.5q-42 0 -55.5 25.5t-13.5 94.5q-68 -123 -175 -123q-72 0 -96 40t-24 127zM292 606q61 0 61 181q104 0 104 -70q0 -49 -45 -90t-120 -41t-120 41t-45 90q0 70 104 70q0 -181 61 -181z" />
    <glyph glyph-name="Uring" unicode="&#x16e;" 
d="M246 637q0 -58 -1 -181v-172q0 -139 29 -205t113 -66q90 0 139 75.5t49 212.5q0 55 -12 176t-12 170q0 50 10.5 74t39.5 24q14 0 32 -6q-31 -63 -31 -213q0 -26 1 -76t1 -78q0 -80 -6 -135.5t-22.5 -104.5t-45.5 -77.5t-76 -45t-113 -16.5q-43 0 -78 6t-59.5 19.5
t-42.5 28.5t-29.5 40t-18 45.5t-9.5 55t-4 58.5t-1 64q0 394 -35 402q10 13 45.5 25t79.5 12q36 0 46.5 -19.5t10.5 -92.5zM255 894q0 50 38 78t89 28q50 0 86 -27.5t36 -78.5q0 -49 -38.5 -77.5t-89.5 -28.5q-50 0 -85.5 27.5t-35.5 78.5zM388 808q21 0 32.5 21.5
t11.5 52.5q0 38 -15.5 68t-41.5 30q-21 0 -32.5 -21.5t-11.5 -52.5q0 -38 15.5 -68t41.5 -30z" />
    <glyph glyph-name="uring" unicode="&#x16f;" horiz-adv-x="634" 
d="M93 160l4 217q0 69 -10.5 92t-42.5 23q-16 0 -35 -4q-1 1 -1 3q0 14 54 31t106 17q48 0 62.5 -23.5t14.5 -95.5l-5 -226q0 -58 11.5 -82.5t47.5 -24.5q18 0 43 13t46 37q0 167 -4 241t-21 150q15 6 60 13.5t76 7.5q21 0 31 -10.5t10 -38.5q0 -60 -5 -182.5t-5 -162.5
q0 -64 13.5 -88t45.5 -24q17 0 36 4q1 -1 1 -3q0 -9 -24 -20t-64.5 -19.5t-80.5 -8.5q-42 0 -55.5 25.5t-13.5 94.5q-68 -123 -175 -123q-72 0 -96 40t-24 127zM169 682q0 50 38 78t89 28q50 0 86 -27.5t36 -78.5q0 -49 -38.5 -77.5t-89.5 -28.5q-50 0 -85.5 27.5
t-35.5 78.5zM302 596q21 0 32.5 21.5t11.5 52.5q0 38 -15.5 68t-41.5 30q-21 0 -32.5 -21.5t-11.5 -52.5q0 -38 15.5 -68t41.5 -30z" />
    <glyph glyph-name="Uhungarumlaut" unicode="&#x170;" horiz-adv-x="704" 
d="M246 637q0 -58 -1 -181v-172q0 -139 29 -205t113 -66q90 0 139 75.5t49 212.5q0 55 -12 176t-12 170q0 50 10.5 74t39.5 24q14 0 32 -6q-31 -63 -31 -213q0 -26 1 -76t1 -78q0 -80 -6 -135.5t-22.5 -104.5t-45.5 -77.5t-76 -45t-113 -16.5q-43 0 -78 6t-59.5 19.5
t-42.5 28.5t-29.5 40t-18 45.5t-9.5 55t-4 58.5t-1 64q0 394 -35 402q10 13 45.5 25t79.5 12q36 0 46.5 -19.5t10.5 -92.5zM248 818q54 19 90.5 66t44.5 112q20 14 43 14q24 0 40 -15.5t16 -42.5q0 -56 -78 -98t-135 -42q-17 0 -21 6zM425 818q54 19 90.5 66t44.5 112
q20 14 43 14q24 0 40 -15.5t16 -42.5q0 -56 -78 -98t-135 -42q-16 0 -21 6z" />
    <glyph glyph-name="uhungarumlaut" unicode="&#x171;" horiz-adv-x="634" 
d="M93 160l4 217q0 69 -10.5 92t-42.5 23q-16 0 -35 -4q-1 1 -1 3q0 14 54 31t106 17q48 0 62.5 -23.5t14.5 -95.5l-5 -226q0 -58 11.5 -82.5t47.5 -24.5q18 0 43 13t46 37q0 167 -4 241t-21 150q15 6 60 13.5t76 7.5q21 0 31 -10.5t10 -38.5q0 -60 -5 -182.5t-5 -162.5
q0 -64 13.5 -88t45.5 -24q17 0 36 4q1 -1 1 -3q0 -9 -24 -20t-64.5 -19.5t-80.5 -8.5q-42 0 -55.5 25.5t-13.5 94.5q-68 -123 -175 -123q-72 0 -96 40t-24 127zM155 603q54 19 90.5 66t44.5 112q20 14 43 14q24 0 40 -15.5t16 -42.5q0 -56 -78 -98t-135 -42q-16 0 -21 6z
M332 603q54 19 90.5 66t44.5 112q20 14 43 14q24 0 40 -15.5t16 -42.5q0 -56 -78 -98t-135 -42q-17 0 -21 6z" />
    <glyph glyph-name="Uogonek" unicode="&#x172;" 
d="M246 637q0 -58 -1 -181v-172q0 -139 29 -205t113 -66q90 0 139 75.5t49 212.5q0 55 -12 176t-12 170q0 50 10.5 74t39.5 24q14 0 32 -6q-31 -63 -31 -213q0 -26 1 -76t1 -78q0 -85 -7 -143.5t-26 -108t-54.5 -78.5t-89.5 -41q-26 -17 -44.5 -47.5t-18.5 -62.5
q0 -28 14.5 -48t42.5 -20q38 0 83 38q1 -1 1 -4q0 -7 -13.5 -22t-42 -29t-60.5 -14q-56 0 -88.5 31.5t-32.5 76.5q0 53 43 94q-38 2 -68.5 9.5t-52 22t-37.5 29.5t-25.5 39.5t-15.5 44.5t-9 53t-3.5 56.5t-0.5 61.5q0 394 -35 402q10 13 45.5 25t79.5 12q36 0 46.5 -19.5
t10.5 -92.5z" />
    <glyph glyph-name="uogonek" unicode="&#x173;" horiz-adv-x="634" 
d="M93 160l4 217q0 69 -10.5 92t-42.5 23q-16 0 -35 -4q-1 1 -1 3q0 14 54 31t106 17q48 0 62.5 -23.5t14.5 -95.5l-5 -226q0 -58 11.5 -82.5t47.5 -24.5q18 0 43 13t46 37q0 167 -4 241t-21 150q15 6 60 13.5t76 7.5q21 0 31 -10.5t10 -38.5q0 -60 -5 -182.5t-5 -162.5
q0 -64 13.5 -88t45.5 -24q17 0 36 4q1 -1 1 -3q0 -9 -26 -21t-64 -19q-27 -17 -48 -48.5t-21 -65.5q0 -28 14.5 -48t42.5 -20q38 0 83 38q1 -1 1 -4q0 -7 -13.5 -22t-42 -29t-60.5 -14q-56 0 -88.5 31.5t-32.5 76.5q0 61 52 102q-21 9 -28 35t-7 80q-68 -123 -175 -123
q-72 0 -96 40t-24 127z" />
    <glyph glyph-name="Wcircumflex" unicode="&#x174;" horiz-adv-x="1058" 
d="M845 5q-20 -10 -39 -10q-34 0 -62 31.5t-51 91t-42 122.5l-47 148q-28 85 -54 146l-39 -82l-44 -93l-38 -88q-25 -57 -36.5 -92t-21.5 -76.5t-10 -71.5q0 -10 2 -26q-20 -10 -38 -10q-41 0 -70.5 52t-51.5 137l-44 177q-23 92 -63.5 189.5t-93.5 158.5q16 16 49.5 28
t75.5 12q45 0 64 -17.5t28 -67.5t15.5 -114.5t36.5 -185t81 -252.5q15 81 54 170l68 159q29 71 29 127q0 77 -58 141q11 9 46.5 17t66.5 8q55 0 55 -27q0 -38 -63 -173q-49 110 -105 175q18 13 29 19t38 13.5t58 7.5q33 0 53 -9t34 -32.5t22 -54.5t20 -85l26 -115
q14 -60 42.5 -152t66.5 -189q16 92 54 193l66 179q28 78 28 138t-27 111q20 16 55 16q46 0 46 -35q0 -38 -53 -169.5t-106.5 -280t-53.5 -228.5q0 -22 2 -31zM571 882q-108 -85 -143 -85q-16 0 -25 12q10 10 44 40l67 62q33 31 57 60q24 -29 57 -60l67 -62q34 -30 44 -40
q-9 -12 -25 -12q-35 0 -143 85z" />
    <glyph glyph-name="wcircumflex" unicode="&#x175;" horiz-adv-x="839" 
d="M354 497q11 10 43.5 20.5t60.5 10.5q23 0 39.5 -6.5t33 -27.5t29 -48t30 -82t33.5 -114l41 -157q124 176 124 300q0 46 -20.5 80.5t-56.5 41.5q6 13 28 22t40 9q58 0 58 -80q0 -73 -48.5 -187t-111.5 -200t-103 -86q-14 0 -19 6t-12 29l-59 201q-48 -99 -100 -167.5
t-88 -68.5q-14 0 -21.5 7t-14.5 28l-30 102l-30 100l-28 86q-16 49 -28.5 77t-28.5 55.5t-32 39.5t-34 12q-27 0 -46 -9q-1 1 -1 3q0 8 17 18.5t54.5 19.5t82.5 9q28 0 48.5 -7.5t40 -32t33.5 -52t32 -86t32 -113.5l40 -156q48 68 93 167q-66 218 -121 236zM468 671
q-108 -85 -143 -85q-16 0 -25 12q10 10 44 40l67 61q33 32 57 61q24 -29 57 -61l67 -61q34 -30 44 -40q-9 -12 -25 -12q-35 0 -143 85z" />
    <glyph glyph-name="Ycircumflex" unicode="&#x176;" horiz-adv-x="662" 
d="M306 339l-41 80l-41 81q-15 30 -38 69t-41.5 60t-41.5 36.5t-46 15.5q-30 0 -51 -7q-4 2 -4 8q0 18 65.5 40t116.5 22q34 0 64.5 -20t57.5 -58t48 -76l50 -89q28 -52 48 -83q111 136 111 220q0 56 -24 80q18 23 59 23q62 0 62 -49q0 -50 -62.5 -131.5t-144.5 -156.5
q0 -310 34 -381q-47 -28 -126 -28q-37 0 -49 20.5t-12 80.5q0 22 2.5 101t3.5 142zM375 881q-108 -85 -143 -85q-16 0 -25 12q10 10 44 40l67 61q33 32 57 61q24 -29 57 -61l67 -61q34 -30 44 -40q-9 -12 -25 -12q-35 0 -143 85z" />
    <glyph glyph-name="ycircumflex" unicode="&#x177;" horiz-adv-x="627" 
d="M74 491q-1 1 -1 3q0 8 16.5 18.5t53 19.5t80.5 9q51 0 84.5 -32.5t68 -128t77.5 -285.5q121 181 121 297q0 48 -20.5 81.5t-54.5 43.5q7 12 27 21.5t41 9.5q25 0 41.5 -18t16.5 -57q0 -89 -52.5 -207t-130 -219t-173 -171.5t-173.5 -70.5q-45 0 -69.5 20t-24.5 48
q0 20 11 36.5t25 22.5q50 -57 124 -57q94 0 185 94q-85 309 -130 420t-100 111q-22 0 -43 -9zM389 672q-108 -85 -143 -85q-16 0 -25 12q10 10 44 40l67 62q33 31 57 60q24 -29 57 -60l67 -62q34 -30 44 -40q-9 -12 -25 -12q-35 0 -143 85z" />
    <glyph glyph-name="Ydieresis" unicode="&#x178;" horiz-adv-x="714" 
d="M306 339l-41 80l-41 81q-15 30 -38 69t-41.5 60t-41.5 36.5t-46 15.5q-30 0 -51 -7q-4 2 -4 8q0 18 65.5 40t116.5 22q34 0 64.5 -20t57.5 -58t48 -76l50 -89q28 -52 48 -83q111 136 111 220q0 56 -24 80q18 23 59 23q62 0 62 -49q0 -50 -62.5 -131.5t-144.5 -156.5
q0 -310 34 -381q-47 -28 -126 -28q-37 0 -49 20.5t-12 80.5q0 22 2.5 101t3.5 142zM478 926q62 0 62 -60q0 -34 -19 -55.5t-54 -21.5q-61 0 -61 61q0 32 20 54t52 22zM306 926q62 0 62 -60q0 -34 -19 -55.5t-54 -21.5q-61 0 -61 61q0 32 20 54t52 22z" />
    <glyph glyph-name="Zacute" unicode="&#x179;" horiz-adv-x="610" 
d="M577 93q12 -21 13.5 -43t-16 -38.5t-49.5 -16.5h-493q-8 0 -15 4.5t-7 11.5q0 29 56.5 123.5t127 198t140 218t89.5 173.5q-166 0 -234.5 -13.5t-135.5 -64.5q-34 33 -16.5 65.5t68.5 32.5h464q31 0 31 -23q0 -32 -84 -165l-188 -297q-106 -164 -141 -244q171 0 246.5 14
t143.5 64zM293 803q54 19 90.5 66t44.5 112q20 14 43 14q24 0 40 -15.5t16 -42.5q0 -56 -78 -98t-135 -42q-16 0 -21 6z" />
    <glyph glyph-name="zacute" unicode="&#x17a;" horiz-adv-x="533" 
d="M455 141q15 0 24.5 -15.5t9.5 -42.5q0 -37 -22.5 -67.5t-66.5 -30.5q-49 0 -124.5 12.5t-119.5 12.5q-55 0 -122 -14q-15 2 -15 24q0 43 33.5 99t81.5 109l97 106q48 52 81.5 101.5t33.5 83.5q-84 0 -139 -9.5t-81.5 -29t-36.5 -35.5t-18 -43q-19 3 -19 35
q0 33 27.5 67.5t56.5 34.5h289q55 0 55 -47q0 -48 -47 -122.5t-103.5 -138t-103.5 -122t-47 -78.5h5q18 0 63.5 -5.5t69.5 -5.5q59 0 95.5 26t42.5 95zM231 592q54 19 90.5 66t44.5 112q20 14 43 14q24 0 40 -15.5t16 -42.5q0 -56 -78 -98t-135 -42q-16 0 -21 6z" />
    <glyph glyph-name="Zdotaccent" unicode="&#x17b;" horiz-adv-x="610" 
d="M577 93q12 -21 13.5 -43t-16 -38.5t-49.5 -16.5h-493q-8 0 -15 4.5t-7 11.5q0 29 56.5 123.5t127 198t140 218t89.5 173.5q-166 0 -234.5 -13.5t-135.5 -64.5q-34 33 -16.5 65.5t68.5 32.5h464q31 0 31 -23q0 -32 -84 -165l-188 -297q-106 -164 -141 -244q171 0 246.5 14
t143.5 64zM333 976q79 0 79 -76q0 -44 -24 -71t-69 -27q-77 0 -77 77q0 42 25 69.5t66 27.5z" />
    <glyph glyph-name="zdotaccent" unicode="&#x17c;" horiz-adv-x="533" 
d="M455 141q15 0 24.5 -15.5t9.5 -42.5q0 -37 -22.5 -67.5t-66.5 -30.5q-49 0 -124.5 12.5t-119.5 12.5q-55 0 -122 -14q-15 2 -15 24q0 43 33.5 99t81.5 109l97 106q48 52 81.5 101.5t33.5 83.5q-84 0 -139 -9.5t-81.5 -29t-36.5 -35.5t-18 -43q-19 3 -19 35
q0 33 27.5 67.5t56.5 34.5h289q55 0 55 -47q0 -48 -47 -122.5t-103.5 -138t-103.5 -122t-47 -78.5h5q18 0 63.5 -5.5t69.5 -5.5q59 0 95.5 26t42.5 95zM294 760q79 0 79 -76q0 -44 -24 -71t-69 -27q-77 0 -77 77q0 42 25 69.5t66 27.5z" />
    <glyph glyph-name="Zcaron" unicode="&#x17d;" horiz-adv-x="610" 
d="M577 93q12 -21 13.5 -43t-16 -38.5t-49.5 -16.5h-493q-8 0 -15 4.5t-7 11.5q0 29 56.5 123.5t127 198t140 218t89.5 173.5q-166 0 -234.5 -13.5t-135.5 -64.5q-34 33 -16.5 65.5t68.5 32.5h464q31 0 31 -23q0 -32 -84 -165l-188 -297q-106 -164 -141 -244q171 0 246.5 14
t143.5 64zM324 886q108 85 143 85q16 0 25 -12q-10 -10 -44 -40l-67 -61q-33 -32 -57 -61q-24 29 -57 61l-67 61q-34 30 -44 40q9 12 25 12q35 0 143 -85z" />
    <glyph glyph-name="zcaron" unicode="&#x17e;" horiz-adv-x="533" 
d="M455 141q15 0 24.5 -15.5t9.5 -42.5q0 -37 -22.5 -67.5t-66.5 -30.5q-49 0 -124.5 12.5t-119.5 12.5q-55 0 -122 -14q-15 2 -15 24q0 43 33.5 99t81.5 109l97 106q48 52 81.5 101.5t33.5 83.5q-84 0 -139 -9.5t-81.5 -29t-36.5 -35.5t-18 -43q-19 3 -19 35
q0 33 27.5 67.5t56.5 34.5h289q55 0 55 -47q0 -48 -47 -122.5t-103.5 -138t-103.5 -122t-47 -78.5h5q18 0 63.5 -5.5t69.5 -5.5q59 0 95.5 26t42.5 95zM270 675q108 85 143 85q16 0 25 -12q-10 -10 -44 -40l-67 -62q-33 -31 -57 -60q-24 29 -57 60l-67 62q-34 30 -44 40
q9 12 25 12q35 0 143 -85z" />
    <glyph glyph-name="longs" unicode="&#x17f;" horiz-adv-x="450" 
d="M264 14q-15 -6 -60 -13.5t-72 -7.5q-30 0 -37.5 12.5t-7.5 50.5q0 42 0.5 163t0.5 160v128q-52 0 -72 -14q-7 13 -7 22q0 17 35 17q19 0 44 -3v70q0 100 51 141.5t168 41.5q83 0 138 -37t55 -91q0 -35 -22 -54.5t-49 -19.5q-35 0 -55 16q4 28 4 59q0 107 -73 107
q-38 0 -52.5 -25t-14.5 -103q0 -327 4 -429t22 -191z" />
    <glyph glyph-name="florin" unicode="&#x192;" horiz-adv-x="698" 
d="M584 795q74 -2 119 -31t45 -81q0 -41 -27 -64.5t-65 -23.5q-26 0 -48 12q18 48 18 97q0 73 -50 73q-56 0 -83.5 -63t-47.5 -194q57 0 111 18q3 -11 3 -19q0 -13 -7.5 -19t-27.5 -6q-13 0 -43 3t-39 3q-24 -213 -45 -289q-42 -160 -146 -198q-38 -14 -85 -14
q-73 0 -115 30.5t-42 90.5q0 34 21.5 58t52.5 24q18 0 35.5 -6t22.5 -11q-21 -40 -21 -96q0 -70 50 -70q12 0 19 5q18 11 32.5 44t26 89t19.5 104t19 126l17 118q-47 -2 -64 -14q-7 13 -7 22q0 17 35 17q17 0 41 -3q31 154 91.5 211t184.5 57z" />
    <glyph glyph-name="Scommaaccent" unicode="&#x218;" horiz-adv-x="659" 
d="M353 -192q-60 -13 -83.5 10.5t-23.5 57.5q0 33 21 56t52 23q33 0 53.5 -19t20.5 -54q0 -63 -44.5 -128t-87.5 -65q-21 0 -30.5 10.5t-9.5 23.5q58 0 95 29t37 56zM445 156q0 57 -39 100.5t-95 72.5l-111 59q-55 30 -94 74t-39 102q0 85 75 135t197 50q105 0 177.5 -45.5
t72.5 -107.5q0 -34 -22.5 -53.5t-54.5 -19.5q-45 0 -73 28q0 92 -23 134.5t-82 42.5q-47 0 -74.5 -35.5t-27.5 -86.5q0 -31 21 -59t54.5 -50t74 -43.5t81 -46.5t74 -53.5t54.5 -68t21 -86.5q0 -63 -42.5 -110.5t-109 -70.5t-144.5 -23q-127 0 -199.5 48.5t-72.5 113.5
q0 49 28 74.5t67 25.5q47 0 75 -30q-10 -38 -10 -70q0 -60 28.5 -101t85.5 -41q53 0 90 40t37 101z" />
    <glyph glyph-name="scommaaccent" unicode="&#x219;" horiz-adv-x="501" 
d="M282 -203q-60 -13 -83.5 10.5t-23.5 57.5q0 33 21 56t52 23q33 0 53.5 -19t20.5 -54q0 -63 -44.5 -128t-87.5 -65q-21 0 -30.5 10.5t-9.5 23.5q58 0 95 29t37 56zM237 -5q-77 0 -134.5 33.5t-57.5 88.5q0 35 21.5 54.5t50.5 19.5q34 0 55 -25q-10 -23 -10 -53
q0 -41 21 -69.5t61 -28.5q76 0 76 86q0 36 -27.5 66.5t-66.5 53.5l-79 47q-39 25 -66.5 60.5t-27.5 77.5q0 140 220 140q74 0 122.5 -29t48.5 -69q0 -31 -20.5 -50t-51.5 -19q-36 0 -56 20q13 31 13 62q0 65 -66 65q-30 0 -51 -21.5t-21 -58.5q0 -38 28 -68.5t68 -52.5
l79 -44q39 -23 67 -58t28 -80q0 -70 -65 -109t-159 -39z" />
    <glyph glyph-name="circumflex" unicode="&#x2c6;" horiz-adv-x="376" 
d="M188 621q-108 -85 -143 -85q-16 0 -25 12q10 10 44 40l67 62q33 31 57 60q24 -29 57 -60l67 -62q34 -30 44 -40q-9 -12 -25 -12q-35 0 -143 85z" />
    <glyph glyph-name="caron" unicode="&#x2c7;" horiz-adv-x="376" 
d="M188 625q108 85 143 85q16 0 25 -12q-10 -10 -44 -40l-67 -62q-33 -31 -57 -60q-24 29 -57 60l-67 62q-34 30 -44 40q9 12 25 12q35 0 143 -85z" />
    <glyph glyph-name="breve" unicode="&#x2d8;" horiz-adv-x="370" 
d="M185 570q61 0 61 181q104 0 104 -70q0 -49 -45 -90t-120 -41t-120 41t-45 90q0 70 104 70q0 -181 61 -181z" />
    <glyph glyph-name="dotaccent" unicode="&#x2d9;" horiz-adv-x="276" 
d="M156 706q79 0 79 -76q0 -44 -24 -71t-69 -27q-77 0 -77 77q0 42 25 69.5t66 27.5z" />
    <glyph glyph-name="ring" unicode="&#x2da;" horiz-adv-x="289" 
d="M20 582q0 50 38 78t89 28q50 0 86 -27.5t36 -78.5q0 -49 -38.5 -77.5t-89.5 -28.5q-50 0 -85.5 27.5t-35.5 78.5zM153 496q21 0 32.5 21.5t11.5 52.5q0 38 -15.5 68t-41.5 30q-21 0 -32.5 -21.5t-11.5 -52.5q0 -38 15.5 -68t41.5 -30z" />
    <glyph glyph-name="ogonek" unicode="&#x2db;" horiz-adv-x="277" 
d="M80 21h110q-28 -15 -51 -48t-23 -69q0 -28 14.5 -48t42.5 -20q38 0 83 38q1 -1 1 -4q0 -7 -13.5 -22t-42 -29t-60.5 -14q-56 0 -88.5 31.5t-32.5 76.5q0 63 60 108z" />
    <glyph glyph-name="tilde" unicode="&#x2dc;" horiz-adv-x="411" 
d="M381 758q10 -1 10 -28q0 -35 -32 -76t-94 -41q-28 0 -78.5 26t-73.5 26q-30 0 -54 -13t-29 -39q-10 3 -10 26q0 41 33.5 80t92.5 39q30 0 79.5 -26t72.5 -26q34 0 57 15.5t26 36.5z" />
    <glyph glyph-name="hungarumlaut" unicode="&#x2dd;" horiz-adv-x="451" 
d="M20 603q54 19 90.5 66t44.5 112q20 14 43 14q24 0 40 -15.5t16 -42.5q0 -56 -78 -98t-135 -42q-17 0 -21 6zM197 603q54 19 90.5 66t44.5 112q20 14 43 14q24 0 40 -15.5t16 -42.5q0 -56 -78 -98t-135 -42q-16 0 -21 6z" />
    <glyph glyph-name="Delta" unicode="&#x2206;" horiz-adv-x="628" 
d="M57 7q-14 0 -25.5 10.5t-11.5 19.5q0 24 33 88t72.5 131t72.5 141t33 114q0 7 -2 17q8 6 33 6q41 0 72 -33t56.5 -89.5t51 -119.5t69 -136t97.5 -125q0 -63 -156 -63q-83 0 -231.5 19.5t-163.5 19.5zM86 88q46 9 117 9q122 0 200 -21q-15 19 -28 60.5t-45 126t-84 185.5
q-102 -198 -131 -265.5t-29 -94.5z" />
    <glyph glyph-name="Delta" unicode="&#x394;" horiz-adv-x="628" 
d="M57 7q-14 0 -25.5 10.5t-11.5 19.5q0 24 33 88t72.5 131t72.5 141t33 114q0 7 -2 17q8 6 33 6q41 0 72 -33t56.5 -89.5t51 -119.5t69 -136t97.5 -125q0 -63 -156 -63q-83 0 -231.5 19.5t-163.5 19.5zM86 88q46 9 117 9q122 0 200 -21q-15 19 -28 60.5t-45 126t-84 185.5
q-102 -198 -131 -265.5t-29 -94.5z" />
    <glyph glyph-name="Omega" unicode="&#x2126;" horiz-adv-x="702" 
d="M359 602q134 0 202 -76t68 -196q0 -100 -59.5 -186t-148.5 -128q30 0 50 1t52.5 6.5t53.5 15.5t40 31t26 50q18 -8 28.5 -26t10.5 -37q0 -40 -54 -50.5t-218 -10.5q-9 0 -9 21q0 7 2 8q51 37 79.5 117.5t28.5 171.5q0 71 -17 130t-54 98t-89 39t-89 -39t-54 -98t-17 -130
q0 -91 28.5 -171.5t79.5 -117.5q2 -1 2 -8q0 -21 -9 -21q-164 0 -218 10.5t-54 50.5q0 19 10.5 37t28.5 26q7 -29 26 -50t40 -31t53.5 -15.5t52.5 -6.5t50 -1q-89 42 -148.5 128t-59.5 186q0 121 71 196.5t215 75.5z" />
    <glyph glyph-name="Omega" unicode="&#x3a9;" horiz-adv-x="702" 
d="M359 602q134 0 202 -76t68 -196q0 -100 -59.5 -186t-148.5 -128q30 0 50 1t52.5 6.5t53.5 15.5t40 31t26 50q18 -8 28.5 -26t10.5 -37q0 -40 -54 -50.5t-218 -10.5q-9 0 -9 21q0 7 2 8q51 37 79.5 117.5t28.5 171.5q0 71 -17 130t-54 98t-89 39t-89 -39t-54 -98t-17 -130
q0 -91 28.5 -171.5t79.5 -117.5q2 -1 2 -8q0 -21 -9 -21q-164 0 -218 10.5t-54 50.5q0 19 10.5 37t28.5 26q7 -29 26 -50t40 -31t53.5 -15.5t52.5 -6.5t50 -1q-89 42 -148.5 128t-59.5 186q0 121 71 196.5t215 75.5z" />
    <glyph glyph-name="pi" unicode="&#x3c0;" horiz-adv-x="489" 
d="M35 400q10 13 46.5 25t71.5 12q42 0 53 -18t11 -93q0 -176 5 -227.5t19 -71.5q-50 -32 -127 -32q-30 0 -41 35.5t-11 100.5q0 26 2.5 92.5t1.5 96.5q-3 74 -31 80zM263 400q10 13 46.5 25t71.5 12q42 0 53 -18t11 -93q0 -176 5 -227.5t19 -71.5q-50 -32 -127 -32
q-52 0 -52 133q0 27 2.5 83.5t2.5 81.5q0 100 -32 107zM446 649q12 -1 12 -33q0 -16 -8 -38t-24 -45t-47 -39t-70 -16q-33 0 -93 30.5t-87 30.5q-35 0 -63.5 -15t-34.5 -46q-11 2 -11 31q0 48 39.5 94t108.5 46q35 0 94 -30.5t86 -30.5q40 0 67 18t31 43z" />
    <glyph glyph-name="endash" unicode="&#x2013;" horiz-adv-x="411" 
d="M379 242q-31 4 -120 4q-55 0 -136 -1.5t-82 -1.5q-31 0 -31 32q0 23 16 39q46 -2 79 -2q41 0 129 1.5t125 1.5q32 0 32 -34q0 -27 -12 -39z" />
    <glyph glyph-name="emdash" unicode="&#x2014;" horiz-adv-x="559" 
d="M527 246q-31 4 -164 4q-59 0 -135 -1t-129 -1.5t-58 -0.5q-31 0 -31 23q0 14 11 25q46 -2 113 -2q68 0 204.5 1.5t168.5 1.5t32 -23q0 -15 -12 -27z" />
    <glyph glyph-name="quoteleft" unicode="&#x2018;" horiz-adv-x="246" 
d="M46 661q70 15 100.5 -11.5t30.5 -64.5t-24.5 -64.5t-60.5 -26.5q-38 0 -62 22t-24 62q0 41 25.5 95t61 92t63.5 38q21 0 30.5 -10.5t9.5 -23.5q-57 0 -103.5 -40t-46.5 -68z" />
    <glyph glyph-name="quoteright" unicode="&#x2019;" horiz-adv-x="246" 
d="M156 618q-70 -15 -100.5 11.5t-30.5 64.5t24.5 64.5t60.5 26.5q38 0 62 -22t24 -62q0 -41 -25.5 -95t-61 -92t-63.5 -38q-21 0 -30.5 10.5t-9.5 23.5q57 0 103.5 40t46.5 68z" />
    <glyph glyph-name="quotesinglbase" unicode="&#x201a;" horiz-adv-x="246" 
d="M156 -23q-70 -15 -100.5 11.5t-30.5 64.5t24.5 64.5t60.5 26.5q38 0 62 -22t24 -62q0 -41 -25.5 -95t-61 -92t-63.5 -38q-21 0 -30.5 10.5t-9.5 23.5q57 0 103.5 40t46.5 68z" />
    <glyph glyph-name="quotedblleft" unicode="&#x201c;" horiz-adv-x="449" 
d="M46 601q70 15 100.5 -11.5t30.5 -64.5t-24.5 -64.5t-60.5 -26.5q-38 0 -62 22t-24 62q0 41 25.5 95t61 92t63.5 38q21 0 30.5 -10.5t9.5 -23.5q-57 0 -103.5 -40t-46.5 -68zM249 601q70 15 100.5 -11.5t30.5 -64.5t-24.5 -64.5t-60.5 -26.5q-38 0 -62 22t-24 62
q0 41 25.5 95t61 92t63.5 38q21 0 30.5 -10.5t9.5 -23.5q-57 0 -103.5 -40t-46.5 -68z" />
    <glyph glyph-name="quotedblright" unicode="&#x201d;" horiz-adv-x="449" 
d="M156 578q-70 -15 -100.5 11.5t-30.5 64.5t24.5 64.5t60.5 26.5q38 0 62 -22t24 -62q0 -41 -25.5 -95t-61 -92t-63.5 -38q-21 0 -30.5 10.5t-9.5 23.5q57 0 103.5 40t46.5 68zM359 577q-70 -15 -100.5 11.5t-30.5 64.5t24.5 64.5t60.5 26.5q38 0 62 -22t24 -62
q0 -41 -25.5 -95t-61 -92t-63.5 -38q-21 0 -30.5 10.5t-9.5 23.5q57 0 103.5 40t46.5 68z" />
    <glyph glyph-name="quotedblbase" unicode="&#x201e;" horiz-adv-x="446" 
d="M156 -23q-70 -15 -100.5 11.5t-30.5 64.5t24.5 64.5t60.5 26.5q38 0 62 -22t24 -62q0 -41 -25.5 -95t-61 -92t-63.5 -38q-21 0 -30.5 10.5t-9.5 23.5q57 0 103.5 40t46.5 68zM356 -23q-70 -15 -100.5 11.5t-30.5 64.5t24.5 64.5t60.5 26.5q38 0 62 -22t24 -62
q0 -41 -25.5 -95t-61 -92t-63.5 -38q-21 0 -30.5 10.5t-9.5 23.5q57 0 103.5 40t46.5 68z" />
    <glyph glyph-name="dagger" unicode="&#x2020;" horiz-adv-x="442" 
d="M377 423q-28 4 -107 4h-26v-117q0 -371 28 -411q-26 -21 -68 -21q-30 0 -39.5 14.5t-9.5 62.5q0 9 2 125.5t2 201.5q0 50 -2 144q-108 -2 -110 -2q-32 0 -32 28q0 17 15 42q46 -2 82 -2h42q-9 171 -33 185q28 22 75 22q22 0 31.5 -6.5t14 -29.5t4.5 -75q0 -61 -1 -95
q80 2 115 2q32 0 32 -30q0 -19 -15 -42z" />
    <glyph glyph-name="daggerdbl" unicode="&#x2021;" horiz-adv-x="442" 
d="M377 382q-31 4 -118 4h-15v-76v-73q80 2 116 2q32 0 32 -29q0 -18 -15 -43q-31 4 -118 4h-14q4 -239 27 -272q-26 -21 -68 -21q-30 0 -39.5 14.5t-9.5 62.5q0 16 1 89.5t2 125.5q-108 -2 -111 -2q-32 0 -32 28q0 17 15 42q46 -2 82 -2h47v46q0 69 -1 103q-108 -2 -111 -2
q-32 0 -32 28q0 17 15 42q46 -2 82 -2h44q-7 209 -35 226q28 22 75 22q22 0 31.5 -6.5t14 -29.5t4.5 -75q0 -19 -0.5 -65t-0.5 -71q80 2 115 2q32 0 32 -29q0 -18 -15 -43z" />
    <glyph glyph-name="bullet" unicode="&#x2022;" horiz-adv-x="342" 
d="M34 251q0 45 31.5 75t72.5 30q37 0 62 -25t25 -62q0 -45 -32 -74.5t-73 -29.5q-37 0 -61.5 24.5t-24.5 61.5z" />
    <glyph glyph-name="ellipsis" unicode="&#x2026;" horiz-adv-x="671" 
d="M156 169q79 0 79 -76q0 -44 -24 -71t-69 -27q-77 0 -77 77q0 42 25 69.5t66 27.5zM352 169q79 0 79 -76q0 -44 -24 -71t-69 -27q-77 0 -77 77q0 42 25 69.5t66 27.5zM551 169q79 0 79 -76q0 -44 -24 -71t-69 -27q-77 0 -77 77q0 42 25 69.5t66 27.5z" />
    <glyph glyph-name="perthousand" unicode="&#x2030;" horiz-adv-x="1014" 
d="M164 340q-69 1 -114.5 40t-45.5 111t46 118.5t123 46.5q69 0 114.5 -39t45.5 -112q0 -72 -46 -118.5t-123 -46.5zM169 361q64 0 64 134q0 141 -65 141q-64 0 -64 -134q0 -141 65 -141zM490 3q-69 1 -114.5 40t-45.5 111t46 118.5t123 46.5q69 0 114.5 -39t45.5 -112
q0 -72 -46 -118.5t-123 -46.5zM495 24q64 0 64 134q0 141 -65 141q-64 0 -64 -134q0 -141 65 -141zM841 3q-69 1 -114.5 40t-45.5 111t46 118.5t123 46.5q69 0 114.5 -39t45.5 -112q0 -72 -46 -118.5t-123 -46.5zM846 24q64 0 64 134q0 141 -65 141q-64 0 -64 -134
q0 -141 65 -141zM163 77q0 45 26 95t63 96l74 90q37 46 63 95.5t26 92.5q0 57 -44 101q27 31 71 31q29 0 50.5 -16.5t21.5 -45.5q0 -42 -41 -106t-89.5 -120.5t-89.5 -126t-41 -122.5q0 -66 60 -102q-8 -18 -29.5 -29t-45.5 -11q-32 0 -53.5 19.5t-21.5 58.5z" />
    <glyph glyph-name="guilsinglleft" unicode="&#x2039;" horiz-adv-x="280" 
d="M138 263q122 -155 122 -205q0 -22 -18 -36q-10 10 -56 62l-90 99q-44 46 -86 80q42 34 86 80l90 98q46 53 56 63q18 -14 18 -36q0 -50 -122 -205z" />
    <glyph glyph-name="guilsinglright" unicode="&#x203a;" horiz-adv-x="280" 
d="M132 263q-122 155 -122 205q0 22 18 36q10 -10 56 -62l90 -99q44 -46 86 -80q-42 -34 -86 -80l-90 -98q-46 -53 -56 -63q-18 14 -18 36q0 50 122 205z" />
    <glyph glyph-name="fraction" unicode="&#x2044;" horiz-adv-x="359" 
d="M4 77q0 45 26 95t63 96l74 90q37 46 63 95.5t26 92.5q0 57 -44 101q27 31 71 31q29 0 50.5 -16.5t21.5 -45.5q0 -42 -41 -106t-89.5 -120.5t-89.5 -126t-41 -122.5q0 -66 60 -102q-8 -18 -29.5 -29t-45.5 -11q-32 0 -53.5 19.5t-21.5 58.5z" />
    <glyph glyph-name="Euro" unicode="&#x20ac;" horiz-adv-x="801" 
d="M580 379q-31 4 -170 4q-88 0 -131 -1v-2q0 -20 2 -60q43 0 147 1.5t135 1.5q32 0 32 -29q0 -18 -15 -43q-31 4 -170 4q-80 0 -121 -1q18 -96 69.5 -151.5t139.5 -55.5q71 0 138.5 33.5t101.5 73.5q4 0 4 -7q0 -10 -19.5 -34t-52 -51t-85 -47t-109.5 -20q-138 0 -226 66.5
t-113 191.5q-34 -1 -64 -1q-32 0 -32 28q0 17 15 42q32 -2 73 -2q-1 10 -1 32q0 19 1 28h-56q-32 0 -32 28q0 17 15 42q34 -2 80 -2q27 143 125 222t216 79q121 0 189 -48t68 -109q0 -34 -21.5 -50.5t-50.5 -16.5q-44 0 -75 23q6 27 6 55q0 56 -28.5 91t-88.5 35
q-176 0 -195 -281q42 0 146.5 1.5t135.5 1.5q32 0 32 -29q0 -18 -15 -43z" />
    <glyph glyph-name="trademark" unicode="&#x2122;" horiz-adv-x="887" 
d="M690 655q-15 -25 -46.5 -173.5t-43.5 -163.5q-8 -11 -39 -11q-39 0 -63.5 41.5t-34 95t-27.5 115.5t-43 92q0 -89 14.5 -190t32.5 -144q-23 -10 -38 -10q-19 0 -25 16.5t-6 56.5q0 14 1.5 66.5t1.5 89.5q0 84 -6 156q9 8 31.5 15.5t44.5 7.5q31 0 54.5 -39.5t35 -89.5
t28.5 -110t34 -88q72 326 101 326q73 0 111 -21q-7 -27 -7 -149q0 -171 18 -213q-39 -23 -91 -23q-24 0 -32.5 13t-8.5 45q0 64 1.5 148.5t1.5 140.5zM200 708q48 0 84 3t40 3q20 0 20 -22q0 -12 -7.5 -25.5t-18.5 -20.5q-30 41 -78 47q0 -332 18 -363q-35 -23 -86 -23
q-23 0 -29.5 6t-6.5 28q0 6 2.5 57.5t2.5 98.5q0 117 -9 194q-44 -6 -76 -47q-16 9 -16 33q0 14 7 25.5t18 11.5q4 0 23 -1.5t49 -3t63 -1.5z" />
    <glyph glyph-name="partialdiff" unicode="&#x2202;" horiz-adv-x="558" 
d="M568 400q0 -52 -9 -105t-31.5 -109t-56.5 -99t-89 -70.5t-124 -27.5q-93 1 -152.5 49.5t-59.5 139.5q0 121 82 203t208 82q54 0 95 -16q0 141 -38.5 208.5t-117.5 67.5q-46 0 -67.5 -35t-21.5 -94q0 -33 6 -69q-11 -13 -33.5 -23t-44.5 -10q-27 0 -44.5 17t-17.5 54
q0 72 63.5 126t173.5 54q40 0 76 -8.5t74 -32t66 -60t45.5 -99t17.5 -143.5zM268 6q61 0 99.5 78.5t38.5 221.5q0 141 -80 141q-36 0 -64 -30.5t-43 -78.5t-22.5 -96.5t-7.5 -93.5q0 -142 79 -142z" />
    <glyph glyph-name="product" unicode="&#x220f;" horiz-adv-x="541" 
d="M439 584q22 0 31.5 -6.5t14 -29.5t4.5 -75q0 -294 4.5 -426t21.5 -152q-26 -21 -68 -21q-30 0 -39.5 14.5t-9.5 62.5q0 10 2 126.5t2 200.5q0 198 -22 259q-37 0 -114 -1t-103 -1q0 -339 5.5 -484t23.5 -159q-26 -21 -68 -21q-30 0 -39.5 14.5t-9.5 62.5q0 9 2 125.5
t2 201.5q0 262 -38 284q29 23 72 23q30 0 149.5 1t176.5 1z" />
    <glyph glyph-name="summation" unicode="&#x2211;" horiz-adv-x="615" 
d="M215 31q18 0 65.5 -5.5t72.5 -5.5q59 0 95.5 26t42.5 95q13 4 22 -14.5t9 -45.5q0 -39 -20.5 -67.5t-65.5 -28.5q-49 0 -124.5 12.5t-119.5 12.5q-55 0 -122 -14q-15 2 -15 24q217 217 217 280q0 36 -30 82t-65.5 83t-65.5 77t-30 65q0 47 55 47h289q29 0 56.5 -34.5
t27.5 -67.5q0 -32 -19 -35q-8 27 -18 43t-36.5 35.5t-81.5 29t-139 9.5q0 -18 27 -54t59 -72.5t59 -84.5t27 -86q0 -135 -172 -306z" />
    <glyph glyph-name="minus" unicode="&#x2212;" horiz-adv-x="553" 
d="M520 282q-31 4 -158 4q-61 0 -137 -1t-128 -1.5t-57 -0.5q-30 0 -30 25q0 17 13 25q46 -2 116 -2t201.5 1.5t162.5 1.5q30 0 30 -26q0 -18 -13 -26z" />
    <glyph glyph-name="radical" unicode="&#x221a;" horiz-adv-x="722" 
d="M-12 206q-25 0 -45 -9q-1 1 -1 3q0 8 16 18.5t52.5 19.5t82.5 9q83 0 127 -47t112 -208q71 107 135.5 238.5t64.5 180.5q0 50 -21.5 81t-53.5 42q6 13 28 22t39 9q59 0 59 -79q0 -73 -66.5 -217.5t-150 -260.5t-126.5 -116q-13 0 -18.5 7t-11.5 28q-28 90 -54 147
t-54 85.5t-53 37.5t-61 9z" />
    <glyph glyph-name="infinity" unicode="&#x221e;" horiz-adv-x="833" 
d="M414 178q21 -28 57.5 -44t79.5 -16q60 0 101.5 32.5t41.5 96.5q0 56 -33.5 85.5t-85.5 29.5q-45 0 -78 -30.5t-56 -74.5l-46 -87q-24 -43 -63.5 -73.5t-93.5 -30.5q-72 0 -114.5 60t-42.5 152q0 81 39 125.5t90 44.5q61 0 93.5 -39.5t32.5 -96.5q-20 28 -53.5 44
t-68.5 16q-49 0 -81 -27t-32 -75q0 -42 29 -68t76 -26q37 0 66 22.5t46 56.5l39 74q21 40 41 74t56 56.5t82 22.5q76 0 127 -68t51 -178q0 -95 -47 -148.5t-110 -53.5q-52 0 -92.5 37.5t-50.5 106.5z" />
    <glyph glyph-name="integral" unicode="&#x222b;" horiz-adv-x="699" 
d="M453 606v-384q0 -114 -51.5 -175t-185.5 -61q-83 0 -133 34.5t-50 94.5q0 31 22 49t53 18q34 0 62 -21q-5 -22 -5 -46q0 -44 16.5 -76t52.5 -32q41 0 56 45.5t15 172.5v384q0 177 216 177q82 0 138.5 -36t56.5 -92q0 -36 -22.5 -55t-53.5 -19q-30 0 -50 16q2 23 2 61
q0 105 -66 105q-30 0 -51.5 -36.5t-21.5 -123.5z" />
    <glyph glyph-name="approxequal" unicode="&#x2248;" horiz-adv-x="547" 
d="M452 485q10 -1 10 -28q0 -35 -32 -76t-94 -41q-28 0 -78.5 26t-73.5 26q-30 0 -54 -13t-29 -39q-10 2 -10 26q0 41 33.5 80t92.5 39q30 0 79.5 -26t72.5 -26q34 0 57 15.5t26 36.5zM452 278q10 -1 10 -28q0 -35 -32 -76t-94 -41q-28 0 -78.5 26t-73.5 26q-30 0 -54 -13
t-29 -39q-10 3 -10 26q0 41 33.5 80t92.5 39q30 0 79.5 -26t72.5 -26q34 0 57 15.5t26 36.5z" />
    <glyph glyph-name="notequal" unicode="&#x2260;" horiz-adv-x="557" 
d="M522 163q-31 4 -158 4q-29 0 -86.5 -0.5t-83.5 -0.5q-11 -33 -11 -61q0 -66 60 -102q-8 -18 -29.5 -29t-45.5 -11q-32 0 -53.5 19.5t-21.5 58.5q0 55 42 124q-22 0 -43 -0.5t-34 -0.5h-16q-32 0 -32 28q0 17 15 42q46 -2 116 -2h41q6 7 43.5 53.5t55.5 71.5
q-49 0 -106 -1t-92.5 -1.5t-40.5 -0.5q-32 0 -32 28q0 17 15 42q46 -2 116 -2q121 0 181 1q23 48 23 87q0 57 -44 101q27 31 71 31q29 0 50.5 -16.5t21.5 -45.5q0 -53 -76 -156q30 0 76.5 0.5t60.5 0.5q32 0 32 -29q0 -18 -15 -43q-31 4 -158 4h-48q-58 -75 -89 -125
q40 0 142.5 1.5t135.5 1.5q32 0 32 -29q0 -18 -15 -43z" />
    <glyph glyph-name="lessequal" unicode="&#x2264;" horiz-adv-x="553" 
d="M123 400l292 -128q69 -29 85.5 -38.5t16.5 -22.5q0 -30 -32 -48q-29 12 -213 97.5t-257 113.5q0 32 6 46t29 24l138 63l204 90q84 36 101 36q23 0 23 -63q-46 -16 -176 -72zM520 69q-31 4 -158 4q-61 0 -137 -0.5t-128 -1.5t-57 -1q-30 0 -30 25q0 17 13 25q46 -2 116 -2
t201.5 1.5t162.5 1.5q30 0 30 -26q0 -18 -13 -26z" />
    <glyph glyph-name="greaterequal" unicode="&#x2265;" horiz-adv-x="621" 
d="M493 400l-217 97q-130 57 -176 73q0 63 23 63q17 0 102 -36l204 -91l137 -62q23 -10 29 -24t6 -46q-73 -28 -257 -113.5t-213 -97.5q-32 18 -32 48q0 13 15.5 22t86.5 39zM604 69q-31 4 -158 4q-61 0 -137 -0.5t-128 -1.5t-57 -1q-30 0 -30 25q0 17 13 25q46 -2 116 -2
t201.5 1.5t162.5 1.5q30 0 30 -26q0 -18 -13 -26z" />
    <glyph glyph-name="st" unicode="&#xfb06;" horiz-adv-x="871" 
d="M237 -5q-77 0 -134.5 33.5t-57.5 88.5q0 34 21 54t51 20q34 0 55 -25q-10 -23 -10 -53q0 -41 21 -69.5t61 -28.5q53 0 69 41q7 18 7 45q0 36 -27.5 66.5t-66.5 53.5l-79 47q-39 25 -66.5 60.5t-27.5 77.5q0 140 220 140q2 0 6.5 -0.5t6.5 -0.5q21 75 82.5 128.5
t151.5 53.5q113 0 152 -45t39 -157q28 0 67.5 5.5t52.5 12.5q3 -12 3 -19q0 -25 -34 -25q-10 0 -40 2.5t-49 3.5v-370q0 -51 4 -64.5t25 -13.5q24 0 55 7.5t43 14.5q1 -1 1 -4q0 -18 -70 -49t-126 -31q-50 0 -69.5 26t-19.5 78v406q-44 0 -62 -5q-4 4 -4 10q0 7 28 18
t55.5 33t27.5 57q0 89 -86 89q-73 0 -111.5 -42.5t-38.5 -91.5q0 -26 6 -44q75 -29 75 -81q0 -31 -20.5 -50t-51.5 -19q-44 0 -68.5 30.5t-24.5 79.5q0 17 3 35q-12 2 -19 2q-30 0 -51 -21.5t-21 -58.5q0 -38 28 -68.5t68 -52.5l79 -44q39 -23 67 -58t28 -80q0 -70 -65 -109
t-159 -39z" />
    <glyph glyph-name="u.sc.hungarumlaut" unicode="&#xfff33;" horiz-adv-x="617" 
d="M340 13q71 0 98 50.5t27 138.5q0 41 -6.5 123t-6.5 115q0 105 47 105q12 0 27 -6q-22 -65 -22 -216v-57q0 -18 -1 -50.5t-3 -48.5l-7 -42q-4 -26 -11 -39l-16 -31q-10 -18 -23 -27t-29.5 -18.5t-38.5 -13t-48 -3.5q-47 0 -81.5 5.5t-59 13.5t-40.5 27t-25 36t-13.5 51.5
t-5.5 62.5t-1 79q0 103 -10.5 172t-25.5 70q12 15 44 26t65 11q43 0 53.5 -18.5t10.5 -94.5q0 -26 0.5 -93t0.5 -103q0 -147 16 -186t85 -39zM203 603q54 19 90.5 66t44.5 112q20 14 43 14q24 0 40 -15.5t16 -42.5q0 -56 -78 -98t-135 -42q-16 0 -21 6zM380 603
q54 19 90.5 66t44.5 112q20 14 43 14q24 0 40 -15.5t16 -42.5q0 -56 -78 -98t-135 -42q-17 0 -21 6z" />
    <glyph glyph-name="u.sc.ring" unicode="&#xfff34;" horiz-adv-x="566" 
d="M340 13q71 0 98 50.5t27 138.5q0 41 -6.5 123t-6.5 115q0 105 47 105q12 0 27 -6q-22 -65 -22 -216v-57q0 -18 -1 -50.5t-3 -48.5l-7 -42q-4 -26 -11 -39l-16 -31q-10 -18 -23 -27t-29.5 -18.5t-38.5 -13t-48 -3.5q-47 0 -81.5 5.5t-59 13.5t-40.5 27t-25 36t-13.5 51.5
t-5.5 62.5t-1 79q0 103 -10.5 172t-25.5 70q12 15 44 26t65 11q43 0 53.5 -18.5t10.5 -94.5q0 -26 0.5 -93t0.5 -103q0 -147 16 -186t85 -39zM210 692q0 50 38 78t89 28q50 0 86 -27.5t36 -78.5q0 -49 -38.5 -77.5t-89.5 -28.5q-50 0 -85.5 27.5t-35.5 78.5zM343 606
q21 0 32.5 21.5t11.5 52.5q0 38 -15.5 68t-41.5 30q-21 0 -32.5 -21.5t-11.5 -52.5q0 -38 15.5 -68t41.5 -30z" />
    <glyph glyph-name="a.sc.macron" unicode="&#xfff35;" horiz-adv-x="569" 
d="M460 -7q-43 0 -72 32t-66 122h-213q-7 -27 -7 -55q0 -55 33 -80q-25 -18 -52 -18q-21 0 -35 11.5t-14 34.5q0 34 44 123l90 187q44 98 44 155q0 14 -6 32q9 9 37 9q46 0 71 -23t41 -71.5t33 -106.5t61 -144t112 -168q-32 -40 -101 -40zM221 424q-12 -36 -53 -124
t-54 -133h200q-21 52 -93 257zM436 582q-22 3 -74.5 4t-101.5 0l-98 -2q-49 -1 -54 -1q-27 0 -30.5 18t10.5 30q58 -2 98 -1l116 1q77 1 114 1q27 0 31.5 -17.5t-11.5 -32.5z" />
    <glyph glyph-name="c.sc.acute" unicode="&#xfff36;" horiz-adv-x="549" 
d="M343 28q43 0 86.5 21t61 36.5t29.5 28.5q2 0 2 -4q0 -10 -15 -28t-41.5 -38t-71 -34.5t-94.5 -14.5q-120 0 -185 64t-65 192q0 83 24 143t65 92t87.5 46t99.5 14q88 0 148 -33.5t60 -85.5q0 -41 -30 -60t-64 -19q-37 0 -54 26q0 75 -15.5 113.5t-57.5 38.5
q-48 0 -81 -56.5t-33 -195.5q0 -128 34.5 -187t109.5 -59zM295 591q54 19 90.5 66t44.5 112q20 14 43 14q24 0 40 -15.5t16 -42.5q0 -56 -78 -98t-135 -42q-16 0 -21 6z" />
    <glyph glyph-name="c.sc.caron" unicode="&#xfff37;" horiz-adv-x="549" 
d="M343 28q43 0 86.5 21t61 36.5t29.5 28.5q2 0 2 -4q0 -10 -15 -28t-41.5 -38t-71 -34.5t-94.5 -14.5q-120 0 -185 64t-65 192q0 83 24 143t65 92t87.5 46t99.5 14q88 0 148 -33.5t60 -85.5q0 -41 -30 -60t-64 -19q-37 0 -54 26q0 75 -15.5 113.5t-57.5 38.5
q-48 0 -81 -56.5t-33 -195.5q0 -128 34.5 -187t109.5 -59zM320 675q108 85 143 85q16 0 25 -12q-10 -10 -44 -40l-67 -61q-33 -32 -57 -61q-24 29 -57 61l-67 61q-34 30 -44 40q9 12 25 12q35 0 143 -85z" />
    <glyph glyph-name="d.sc.caron" unicode="&#xfff38;" horiz-adv-x="608" 
d="M263 15q66 0 106.5 72.5t40.5 192.5t-42 183t-114 63q-17 0 -25 -2v-501q11 -8 34 -8zM82 27q10 45 10 228q0 252 -27 265q37 26 196 26q148 0 222.5 -62t74.5 -204q0 -145 -84.5 -215t-217.5 -70q-123 0 -174 32zM276 671q108 85 143 85q16 0 25 -12q-10 -10 -44 -40
l-67 -61q-33 -32 -57 -61q-24 29 -57 61l-67 61q-34 30 -44 40q9 12 25 12q35 0 143 -85z" />
    <glyph glyph-name="d.sc.croat" unicode="&#xfff39;" horiz-adv-x="660" 
d="M134 27q8 41 10 213q-14 0 -29.5 -0.5t-18.5 -0.5q-31 0 -31 23q0 14 11 25q34 -2 68 -2q-2 223 -27 235q37 26 196 26q148 0 222.5 -62t74.5 -204q0 -145 -84.5 -215t-217.5 -70q-123 0 -174 32zM315 15q66 0 106.5 72.5t40.5 192.5t-42 183t-114 63q-17 0 -25 -2v-238
q60 2 95 2q32 0 32 -23q0 -15 -12 -27q-42 4 -115 4v-219q11 -8 34 -8z" />
    <glyph glyph-name="i.sc.breve" unicode="&#xfff3a;" horiz-adv-x="328" 
d="M239 436q0 -374 24 -409q-50 -32 -118 -32q-31 0 -40 8.5t-9 39.5q0 9 3.5 77t3.5 132q0 81 -9 168t-28 90q10 14 42.5 25.5t66.5 11.5q42 0 53 -18t11 -93zM162 606q61 0 61 181q104 0 104 -70q0 -49 -45 -90t-120 -41t-120 41t-45 90q0 70 104 70q0 -181 61 -181z" />
    <glyph glyph-name="ij.sc" unicode="&#xfff3b;" 
d="M238 436q0 -374 24 -409q-50 -32 -118 -32q-31 0 -40 8.5t-9 39.5q0 9 3.5 77t3.5 132q0 81 -9 168t-28 90q10 14 42.5 25.5t66.5 11.5q42 0 53 -18t11 -93zM612 175q0 -92 -37.5 -136.5t-138.5 -44.5q-73 0 -122.5 35.5t-49.5 93.5q0 37 24.5 59.5t57.5 22.5
q42 0 72 -36q-13 -54 -13 -92q0 -62 33 -62q27 0 32.5 39.5t5.5 178.5q0 99 -8.5 186.5t-28.5 90.5q10 14 42.5 25.5t66.5 11.5q42 0 52.5 -17.5t10.5 -93.5q0 -75 0.5 -164.5t0.5 -96.5z" />
    <glyph glyph-name="l.sc.acute" unicode="&#xfff3c;" horiz-adv-x="468" 
d="M109 592q54 19 90.5 66t44.5 112q20 14 43 14q24 0 40 -15.5t16 -42.5q0 -56 -78 -98t-135 -42q-16 0 -21 6zM102 252q0 81 -9 168t-28 90q10 14 42.5 25.5t66.5 11.5q42 0 53 -18t11 -93q0 -112 0.5 -262.5t0.5 -153.5q81 0 123.5 12.5t84.5 57.5q19 -12 19 -38
q0 -21 -17.5 -36.5t-54.5 -15.5h-186q-75 0 -117 13q11 59 11 239z" />
    <glyph glyph-name="l.sc.caron" unicode="&#xfff3d;" horiz-adv-x="468" 
d="M102 252q0 81 -9 168t-28 90q10 14 42.5 25.5t66.5 11.5q42 0 53 -18t11 -93q0 -112 0.5 -262.5t0.5 -153.5q81 0 123.5 12.5t84.5 57.5q19 -12 19 -38q0 -21 -17.5 -36.5t-54.5 -15.5h-186q-75 0 -117 13q11 59 11 239zM233 677q108 85 143 85q16 0 25 -12
q-10 -10 -44 -40l-67 -62q-33 -31 -57 -60q-24 29 -57 60l-67 62q-34 30 -44 40q9 12 25 12q35 0 143 -85z" />
    <glyph glyph-name="L.sc.slash" unicode="&#xfff3e;" horiz-adv-x="515" 
d="M449 363q-63 -14 -164 -70q0 -78 0.5 -174t0.5 -99q81 0 123.5 12.5t84.5 57.5q19 -12 19 -38q0 -21 -17.5 -36.5t-54.5 -15.5h-186q-75 0 -117 13q9 53 11 203q-45 -24 -62 -24q-22 0 -22 27q0 4 2 12q25 6 82 34q-1 83 -10 162.5t-27 82.5q10 14 42.5 25.5t66.5 11.5
q42 0 53 -18t11 -93v-97q119 65 144 65q22 0 22 -26q0 -10 -2 -15z" />
    <glyph glyph-name="eng.sc" unicode="&#xfff3f;" horiz-adv-x="577" 
d="M394 -40q0 74 -97 239t-208 274q0 -116 23.5 -259.5t48.5 -206.5q-30 -13 -50 -13q-25 0 -33.5 22.5t-8.5 75.5q0 20 2 90t2 120q0 110 -9 213q14 12 42.5 21.5t55.5 9.5q102 0 322 -471q3 72 3 126q0 149 -20 214.5t-57 103.5q2 9 18.5 18t34.5 9q49 0 49 -59
q0 -352 -17 -477q-4 -30 -20.5 -62t-53.5 -59t-84 -27q-67 0 -106.5 28.5t-39.5 74.5q0 35 22.5 55.5t52.5 20.5q31 0 53 -22q-22 -30 -22 -64q0 -29 15.5 -49t35.5 -20q46 0 46 74z" />
    <glyph glyph-name="r.sc.acute" unicode="&#xfff40;" horiz-adv-x="591" 
d="M95 39q0 289 -5 372.5t-25 98.5q35 36 172 36q113 0 173 -28.5t60 -106.5q0 -53 -30.5 -89t-77.5 -52q30 -8 52.5 -35.5t35.5 -60.5l24 -66q13 -33 32 -54.5t46 -21.5q16 0 36 6q1 -1 1 -3q-1 -8 -14.5 -20t-43 -23t-63.5 -11q-39 0 -67 17.5t-43 44.5t-27.5 60.5t-20 64
t-20 57.5t-28.5 38q34 14 51 56t17 89q0 60 -26.5 89t-61.5 29q-4 0 -6 -1q1 -33 2 -174.5t6 -222t18 -101.5q-53 -32 -121 -32q-28 0 -37 7.5t-9 36.5zM233 590q54 19 90.5 66t44.5 112q20 14 43 14q24 0 40 -15.5t16 -42.5q0 -56 -78 -98t-135 -42q-16 0 -21 6z" />
    <glyph glyph-name="r.sc.commaccent" unicode="&#xfff41;" horiz-adv-x="591" 
d="M333 -192q-60 -13 -83.5 10.5t-23.5 57.5q0 33 21 56t52 23q33 0 53.5 -19t20.5 -54q0 -63 -44.5 -128t-87.5 -65q-21 0 -30.5 10.5t-9.5 23.5q58 0 95 29t37 56zM95 39q0 289 -5 372.5t-25 98.5q35 36 172 36q113 0 173 -28.5t60 -106.5q0 -53 -30.5 -89t-77.5 -52
q30 -8 52.5 -35.5t35.5 -60.5l24 -66q13 -33 32 -54.5t46 -21.5q16 0 36 6q1 -1 1 -3q-1 -8 -14.5 -20t-43 -23t-63.5 -11q-39 0 -67 17.5t-43 44.5t-27.5 60.5t-20 64t-20 57.5t-28.5 38q34 14 51 56t17 89q0 60 -26.5 89t-61.5 29q-4 0 -6 -1q1 -33 2 -174.5t6 -222
t18 -101.5q-53 -32 -121 -32q-28 0 -37 7.5t-9 36.5z" />
    <glyph glyph-name="r.sc.caron" unicode="&#xfff42;" horiz-adv-x="591" 
d="M95 39q0 289 -5 372.5t-25 98.5q35 36 172 36q113 0 173 -28.5t60 -106.5q0 -53 -30.5 -89t-77.5 -52q30 -8 52.5 -35.5t35.5 -60.5l24 -66q13 -33 32 -54.5t46 -21.5q16 0 36 6q1 -1 1 -3q-1 -8 -14.5 -20t-43 -23t-63.5 -11q-39 0 -67 17.5t-43 44.5t-27.5 60.5t-20 64
t-20 57.5t-28.5 38q34 14 51 56t17 89q0 60 -26.5 89t-61.5 29q-4 0 -6 -1q1 -33 2 -174.5t6 -222t18 -101.5q-53 -32 -121 -32q-28 0 -37 7.5t-9 36.5zM261 671q108 85 143 85q16 0 25 -12q-10 -10 -44 -40l-67 -62q-33 -31 -57 -60q-24 29 -57 60l-67 62q-34 30 -44 40
q9 12 25 12q35 0 143 -85z" />
    <glyph glyph-name="t.sc.commaccent" unicode="&#xfff43;" horiz-adv-x="415" 
d="M244 -192q-60 -13 -83.5 10.5t-23.5 57.5q0 33 21 56t52 23q33 0 53.5 -19t20.5 -54q0 -63 -44.5 -128t-87.5 -65q-21 0 -30.5 10.5t-9.5 23.5q58 0 95 29t37 56zM219 538q64 0 112.5 3.5t54.5 3.5q27 0 27 -29q0 -17 -9.5 -35t-24.5 -27q-42 55 -106 64q0 -449 24 -492
q-50 -32 -117 -32q-31 0 -40 8t-9 38q0 9 3.5 78.5t3.5 133.5q0 163 -13 263q-34 -6 -56.5 -20.5t-44.5 -43.5q-22 12 -22 43q0 20 9.5 35.5t23.5 15.5q6 0 31.5 -1.5t67 -3.5t85.5 -2z" />
    <glyph glyph-name="t.sc.caron" unicode="&#xfff44;" horiz-adv-x="415" 
d="M219 538q64 0 112.5 3.5t54.5 3.5q27 0 27 -29q0 -17 -9.5 -35t-24.5 -27q-42 55 -106 64q0 -449 24 -492q-50 -32 -117 -32q-31 0 -40 8t-9 38q0 9 3.5 78.5t3.5 133.5q0 163 -13 263q-34 -6 -56.5 -20.5t-44.5 -43.5q-22 12 -22 43q0 20 9.5 35.5t23.5 15.5
q6 0 31.5 -1.5t67 -3.5t85.5 -2zM203 675q108 85 143 85q16 0 25 -12q-10 -10 -44 -40l-67 -62q-33 -31 -57 -60q-24 29 -57 60l-67 62q-34 30 -44 40q9 12 25 12q35 0 143 -85z" />
    <glyph glyph-name="t.sc.bar" unicode="&#xfff45;" horiz-adv-x="415" 
d="M219 538q64 0 112.5 3.5t54.5 3.5q27 0 27 -29q0 -17 -9.5 -35t-24.5 -27q-42 55 -106 64v-121q21 0 57 0.5t50 0.5q32 0 32 -23q0 -15 -12 -27q-29 4 -127 4q3 -290 24 -326q-50 -32 -117 -32q-31 0 -40 8t-9 38q0 9 3.5 78.5t3.5 133.5q0 23 -2 99q-20 0 -46 -0.5
t-39.5 -1t-17.5 -0.5q-31 0 -31 23q0 14 11 25q46 -2 92 -2h29q-6 94 -9 120q-34 -6 -56.5 -20.5t-44.5 -43.5q-22 12 -22 43q0 20 9.5 35.5t23.5 15.5q6 0 31.5 -1.5t67 -3.5t85.5 -2z" />
    <glyph glyph-name="z.sc.acute" unicode="&#xfff46;" horiz-adv-x="537" 
d="M430 0h-393q-22 0 -22 16q0 35 133 239.5t155 263.5q-72 0 -125 -10t-75 -20.5t-48 -28.5q-29 15 -29 43q0 15 10.5 25.5t29.5 10.5h383q31 0 31 -23q0 -17 -50 -100l-125 -204q-75 -121 -113 -192q182 0 267 77q24 -13 24 -45q0 -21 -13.5 -36.5t-39.5 -15.5zM236 592
q54 19 90.5 66t44.5 112q20 14 43 14q24 0 40 -15.5t16 -42.5q0 -56 -78 -98t-135 -42q-17 0 -21 6z" />
    <glyph glyph-name="z.sc.dotaccent" unicode="&#xfff47;" horiz-adv-x="537" 
d="M460 0h-393q-22 0 -22 16q0 35 133 239.5t155 263.5q-72 0 -125 -10t-75 -20.5t-48 -28.5q-29 15 -29 43q0 15 10.5 25.5t29.5 10.5h383q31 0 31 -23q0 -17 -50 -100l-125 -204q-75 -121 -113 -192q182 0 267 77q24 -13 24 -45q0 -21 -13.5 -36.5t-39.5 -15.5zM326 760
q79 0 79 -76q0 -44 -24 -71t-69 -27q-77 0 -77 77q0 42 25 69.5t66 27.5z" />
    <glyph glyph-name="z.sc.caron" unicode="&#xfff48;" horiz-adv-x="537" 
d="M431 0h-393q-22 0 -22 16q0 35 133 239.5t155 263.5q-72 0 -125 -10t-75 -20.5t-48 -28.5q-29 15 -29 43q0 15 10.5 25.5t29.5 10.5h383q31 0 31 -23q0 -17 -50 -100l-125 -204q-75 -121 -113 -192q182 0 267 77q24 -13 24 -45q0 -21 -13.5 -36.5t-39.5 -15.5zM271 673
q108 85 143 85q16 0 25 -12q-10 -10 -44 -40l-67 -61q-33 -32 -57 -61q-24 29 -57 61l-67 61q-34 30 -44 40q9 12 25 12q35 0 143 -85z" />
    <glyph glyph-name="i.sc.dieresis" unicode="&#xfff49;" horiz-adv-x="328" 
d="M228 436q0 -374 24 -409q-50 -32 -118 -32q-31 0 -40 8.5t-9 39.5q0 9 3.5 77t3.5 132q0 81 -9 168t-28 90q10 14 42.5 25.5t66.5 11.5q42 0 53 -18t11 -93zM65 754q62 0 62 -60q0 -34 -19 -55.5t-54 -21.5q-61 0 -61 61q0 32 20 54t52 22zM237 754q62 0 62 -60
q0 -34 -19 -55.5t-54 -21.5q-61 0 -61 61q0 32 20 54t52 22z" />
    <glyph glyph-name="u.sc.grave" unicode="&#xfff4a;" horiz-adv-x="566" 
d="M340 13q71 0 98 50.5t27 138.5q0 41 -6.5 123t-6.5 115q0 105 47 105q12 0 27 -6q-22 -65 -22 -216v-57q0 -18 -1 -50.5t-3 -48.5l-7 -42q-4 -26 -11 -39l-16 -31q-10 -18 -23 -27t-29.5 -18.5t-38.5 -13t-48 -3.5q-47 0 -81.5 5.5t-59 13.5t-40.5 27t-25 36t-13.5 51.5
t-5.5 62.5t-1 79q0 103 -10.5 172t-25.5 70q12 15 44 26t65 11q43 0 53.5 -18.5t10.5 -94.5q0 -26 0.5 -93t0.5 -103q0 -147 16 -186t85 -39zM368 589q-4 -6 -21 -6q-57 0 -135 42t-78 98q0 27 16 42.5t40 15.5q23 0 43 -14q8 -65 44.5 -112t90.5 -66z" />
    <glyph glyph-name="u.sc.acute" unicode="&#xfff4b;" horiz-adv-x="566" 
d="M340 13q71 0 98 50.5t27 138.5q0 41 -6.5 123t-6.5 115q0 105 47 105q12 0 27 -6q-22 -65 -22 -216v-57q0 -18 -1 -50.5t-3 -48.5l-7 -42q-4 -26 -11 -39l-16 -31q-10 -18 -23 -27t-29.5 -18.5t-38.5 -13t-48 -3.5q-47 0 -81.5 5.5t-59 13.5t-40.5 27t-25 36t-13.5 51.5
t-5.5 62.5t-1 79q0 103 -10.5 172t-25.5 70q12 15 44 26t65 11q43 0 53.5 -18.5t10.5 -94.5q0 -26 0.5 -93t0.5 -103q0 -147 16 -186t85 -39zM300 590q54 19 90.5 66t44.5 112q20 14 43 14q24 0 40 -15.5t16 -42.5q0 -56 -78 -98t-135 -42q-17 0 -21 6z" />
    <glyph glyph-name="u.sc.circumflex" unicode="&#xfff4c;" horiz-adv-x="566" 
d="M340 13q71 0 98 50.5t27 138.5q0 41 -6.5 123t-6.5 115q0 105 47 105q12 0 27 -6q-22 -65 -22 -216v-57q0 -18 -1 -50.5t-3 -48.5l-7 -42q-4 -26 -11 -39l-16 -31q-10 -18 -23 -27t-29.5 -18.5t-38.5 -13t-48 -3.5q-47 0 -81.5 5.5t-59 13.5t-40.5 27t-25 36t-13.5 51.5
t-5.5 62.5t-1 79q0 103 -10.5 172t-25.5 70q12 15 44 26t65 11q43 0 53.5 -18.5t10.5 -94.5q0 -26 0.5 -93t0.5 -103q0 -147 16 -186t85 -39zM318 671q-108 -85 -143 -85q-16 0 -25 12q10 10 44 40l67 61q33 32 57 61q24 -29 57 -61l67 -61q34 -30 44 -40q-9 -12 -25 -12
q-35 0 -143 85z" />
    <glyph glyph-name="u.sc.dieresis" unicode="&#xfff4d;" horiz-adv-x="566" 
d="M340 13q71 0 98 50.5t27 138.5q0 41 -6.5 123t-6.5 115q0 105 47 105q12 0 27 -6q-22 -65 -22 -216v-57q0 -18 -1 -50.5t-3 -48.5l-7 -42q-4 -26 -11 -39l-16 -31q-10 -18 -23 -27t-29.5 -18.5t-38.5 -13t-48 -3.5q-47 0 -81.5 5.5t-59 13.5t-40.5 27t-25 36t-13.5 51.5
t-5.5 62.5t-1 79q0 103 -10.5 172t-25.5 70q12 15 44 26t65 11q43 0 53.5 -18.5t10.5 -94.5q0 -26 0.5 -93t0.5 -103q0 -147 16 -186t85 -39zM246 725q62 0 62 -60q0 -34 -19 -55.5t-54 -21.5q-61 0 -61 61q0 32 20 54t52 22zM418 725q62 0 62 -60q0 -34 -19 -55.5
t-54 -21.5q-61 0 -61 61q0 32 20 54t52 22z" />
    <glyph glyph-name="ibreve" unicode="&#xfff4e;" horiz-adv-x="373" 
d="M261 422q0 -239 17 -406q-16 -6 -57 -13.5t-70 -7.5q-23 0 -32.5 11t-9.5 39q0 60 2 178.5t2 158.5q0 65 -11 88.5t-41 23.5q-17 0 -36 -4q-1 1 -1 3q0 9 23.5 20t63.5 19.5t80 8.5q42 0 56 -25.5t14 -93.5zM181 606q61 0 61 181q104 0 104 -70q0 -49 -45 -90t-120 -41
t-120 41t-45 90q0 70 104 70q0 -181 61 -181z" />
    <glyph glyph-name="s.salt.acute" unicode="&#xfff4f;" horiz-adv-x="610" 
d="M45 348q60 47 107 93.5t66.5 71t37 39.5t34.5 15q22 -44 61 -88.5t76 -77.5t71.5 -68t55.5 -74.5t21 -81.5q0 -84 -68.5 -133t-173.5 -49q-94 0 -155.5 42t-61.5 112q0 45 22 70t54 25q34 0 61 -21q-27 -54 -27 -100q0 -53 32 -83.5t78 -30.5q42 0 67.5 28.5t25.5 80.5
q0 41 -16.5 79.5t-44.5 71t-57 61.5t-60 65t-49 69q-36 -30 -62 -70l-38 -62q-14 -22 -28 -22q-13 0 -21 12.5t-8 25.5zM287 592q54 19 90.5 66t44.5 112q20 14 43 14q24 0 40 -15.5t16 -42.5q0 -56 -78 -98t-135 -42q-16 0 -21 6z" />
    <glyph glyph-name="y.salt.circumflex" unicode="&#xfff50;" horiz-adv-x="610" 
d="M57 491q-1 1 -1 3q0 8 16.5 18.5t53 19.5t80.5 9q51 0 84.5 -32.5t68 -128t77.5 -285.5q121 181 121 297q0 48 -20.5 81.5t-54.5 43.5q7 12 27 21.5t41 9.5q25 0 41.5 -18t16.5 -57q0 -77 -37.5 -175t-106 -195.5t-155 -180t-196 -134t-216.5 -51.5q-58 0 -84 24.5
t-26 55.5q0 59 61 89q4 -10 15 -26t31 -36t52 -34t68 -14q142 0 316 173q-85 309 -130 420t-100 111q-22 0 -43 -9zM372 689q-108 -85 -143 -85q-16 0 -25 12q10 10 44 40l67 62q33 31 57 60q24 -29 57 -60l67 -62q34 -30 44 -40q-9 -12 -25 -12q-35 0 -143 85z" />
    <glyph glyph-name="y.salt.dieresis" unicode="&#xfff51;" horiz-adv-x="610" 
d="M57 491q-1 1 -1 3q0 8 16.5 18.5t53 19.5t80.5 9q51 0 84.5 -32.5t68 -128t77.5 -285.5q121 181 121 297q0 48 -20.5 81.5t-54.5 43.5q7 12 27 21.5t41 9.5q25 0 41.5 -18t16.5 -57q0 -77 -37.5 -175t-106 -195.5t-155 -180t-196 -134t-216.5 -51.5q-58 0 -84 24.5
t-26 55.5q0 59 61 89q4 -10 15 -26t31 -36t52 -34t68 -14q142 0 316 173q-85 309 -130 420t-100 111q-22 0 -43 -9zM297 739q62 0 62 -60q0 -34 -19 -55.5t-54 -21.5q-61 0 -61 61q0 32 20 54t52 22zM469 739q62 0 62 -60q0 -34 -19 -55.5t-54 -21.5q-61 0 -61 61
q0 32 20 54t52 22z" />
    <glyph glyph-name="y.salt.acute" unicode="&#xfff52;" horiz-adv-x="610" 
d="M57 491q-1 1 -1 3q0 8 16.5 18.5t53 19.5t80.5 9q51 0 84.5 -32.5t68 -128t77.5 -285.5q121 181 121 297q0 48 -20.5 81.5t-54.5 43.5q7 12 27 21.5t41 9.5q25 0 41.5 -18t16.5 -57q0 -77 -37.5 -175t-106 -195.5t-155 -180t-196 -134t-216.5 -51.5q-58 0 -84 24.5
t-26 55.5q0 59 61 89q4 -10 15 -26t31 -36t52 -34t68 -14q142 0 316 173q-85 309 -130 420t-100 111q-22 0 -43 -9zM349 590q54 19 90.5 66t44.5 112q20 14 43 14q24 0 40 -15.5t16 -42.5q0 -56 -78 -98t-135 -42q-16 0 -21 6z" />
    <glyph glyph-name="s.sc.commaaccent" unicode="&#xfff53;" horiz-adv-x="506" 
d="M293 -192q-60 -13 -83.5 10.5t-23.5 57.5q0 33 21 56t52 23q33 0 53.5 -19t20.5 -54q0 -63 -44.5 -128t-87.5 -65q-21 0 -30.5 10.5t-9.5 23.5q58 0 95 29t37 56zM312 94q0 39 -27 71t-65 55l-77 48q-39 24 -66 58.5t-27 77.5q0 41 20 70.5t54 44.5t70 21t78 6
q80 0 127 -31.5t47 -79.5q0 -36 -27.5 -52t-59 -11t-46.5 23q20 47 6 88.5t-58 41.5q-33 0 -50 -22.5t-17 -53.5q0 -38 27.5 -68.5t67.5 -53.5l78 -46q39 -23 66.5 -58t27.5 -79q0 -68 -62 -108.5t-167 -40.5q-94 0 -140.5 33.5t-46.5 84.5q0 44 29 64t63 15t54 -25
q-16 -27 -19.5 -61.5t13.5 -62.5t55 -28q36 0 54 23t18 56z" />
    <glyph glyph-name="g.salt.breve" unicode="&#xfff54;" horiz-adv-x="577" 
d="M292 88q73 0 116 51v210q0 89 -22 133t-80 44q-55 0 -81 -67t-26 -183q0 -188 93 -188zM555 296v-335q0 -126 -73.5 -189t-194.5 -63q-122 0 -182 42t-60 114q0 44 28 68.5t68 24.5q36 0 69 -22q-26 -42 -26 -94q0 -48 26.5 -80.5t82.5 -32.5q67 0 91 50.5t24 145.5v194
q-20 -43 -66 -82t-118 -39q-82 0 -129.5 58.5t-47.5 183.5q0 142 70 224t193 82q39 0 90.5 -14t71.5 -14q37 0 73 28q6 0 7 -13q3 -22 3 -237zM318 608q61 0 61 181q104 0 104 -70q0 -49 -45 -90t-120 -41t-120 41t-45 90q0 70 104 70q0 -181 61 -181z" />
    <glyph glyph-name="g.salt.dotaccent" unicode="&#xfff55;" horiz-adv-x="577" 
d="M292 88q73 0 116 51v210q0 89 -22 133t-80 44q-55 0 -81 -67t-26 -183q0 -188 93 -188zM555 296v-335q0 -126 -73.5 -189t-194.5 -63q-122 0 -182 42t-60 114q0 44 28 68.5t68 24.5q36 0 69 -22q-26 -42 -26 -94q0 -48 26.5 -80.5t82.5 -32.5q67 0 91 50.5t24 145.5v194
q-20 -43 -66 -82t-118 -39q-82 0 -129.5 58.5t-47.5 183.5q0 142 70 224t193 82q39 0 90.5 -14t71.5 -14q37 0 73 28q6 0 7 -13q3 -22 3 -237zM324 760q79 0 79 -76q0 -44 -24 -71t-69 -27q-77 0 -77 77q0 42 25 69.5t66 27.5z" />
    <glyph glyph-name="g.salt.circumflex" unicode="&#xfff56;" horiz-adv-x="577" 
d="M292 88q73 0 116 51v210q0 89 -22 133t-80 44q-55 0 -81 -67t-26 -183q0 -188 93 -188zM555 296v-335q0 -126 -73.5 -189t-194.5 -63q-122 0 -182 42t-60 114q0 44 28 68.5t68 24.5q36 0 69 -22q-26 -42 -26 -94q0 -48 26.5 -80.5t82.5 -32.5q67 0 91 50.5t24 145.5v194
q-20 -43 -66 -82t-118 -39q-82 0 -129.5 58.5t-47.5 183.5q0 142 70 224t193 82q39 0 90.5 -14t71.5 -14q37 0 73 28q6 0 7 -13q3 -22 3 -237zM327 671q-108 -85 -143 -85q-16 0 -25 12q10 10 44 40l67 62q33 31 57 60q24 -29 57 -60l67 -62q34 -30 44 -40q-9 -12 -25 -12
q-35 0 -143 85z" />
    <glyph glyph-name="g.salt.commaccent" unicode="&#xfff57;" horiz-adv-x="577" 
d="M295 737q60 13 83.5 -10.5t23.5 -57.5q0 -33 -21 -56t-52 -23q-33 0 -53.5 19t-20.5 54q0 63 44.5 128t87.5 65q21 0 30.5 -10.5t9.5 -23.5q-58 0 -95 -29t-37 -56zM292 88q73 0 116 51v210q0 89 -22 133t-80 44q-55 0 -81 -67t-26 -183q0 -188 93 -188zM555 296v-335
q0 -126 -73.5 -189t-194.5 -63q-122 0 -182 42t-60 114q0 44 28 68.5t68 24.5q36 0 69 -22q-26 -42 -26 -94q0 -48 26.5 -80.5t82.5 -32.5q67 0 91 50.5t24 145.5v194q-20 -43 -66 -82t-118 -39q-82 0 -129.5 58.5t-47.5 183.5q0 142 70 224t193 82q39 0 90.5 -14t71.5 -14
q37 0 73 28q6 0 7 -13q3 -22 3 -237z" />
    <glyph glyph-name="CR" unicode="&#xfff5a;" horiz-adv-x="500" 
 />
    <glyph glyph-name="two" unicode="&#xfff5b;" horiz-adv-x="530" 
d="M132 82q24 9 74 9q26 0 71 -4.5t63 -4.5q34 0 56.5 14.5t37.5 58.5q51 -12 51 -68q0 -42 -31.5 -73.5t-92.5 -31.5q-45 0 -121 28t-107 28q-46 0 -95 -45q-8 0 -13 8t-5 15t30 35l73 69q43 40 86 87.5t73 103.5t30 103q0 46 -19 70t-49 24q-28 0 -47.5 -21t-19.5 -60
q0 -27 14 -58q-31 -35 -76 -35q-32 0 -54 19t-22 52q0 55 75.5 89.5t153.5 34.5q77 0 131 -27t54 -90q0 -42 -28 -85t-71 -78.5t-86 -66.5l-83 -58q-40 -27 -53 -42z" />
    <glyph glyph-name="three" unicode="&#xfff5c;" horiz-adv-x="542" 
d="M432 407q0 -41 -44.5 -86.5t-91.5 -73.5t-79 -39q24 3 47 3q113 0 173 -51.5t60 -129.5q0 -104 -84.5 -174t-228.5 -70q-64 0 -114 20.5t-50 52.5q0 37 39 42q27 -95 128 -95q85 0 130.5 56t45.5 148q0 123 -102 158q-36 12 -81 12q-15 0 -15 14q44 32 93.5 93.5
t49.5 115.5q0 88 -69 88q-29 0 -45 -17t-16 -46q0 -28 13 -60q-30 -34 -73 -34q-30 0 -51.5 17t-21.5 45q0 48 66.5 82t147.5 34q75 0 124 -30t49 -75z" />
    </font>
</defs>
</svg>
