<svg id="scene" xmlns="http://www.w3.org/2000/svg" viewBox="0 0 1600 219"><title>test1</title><path id="ground" d="M0,94.4S52.42,67.51,390.76,33.65c8-.8,25.85-5.83,34.05-6.6,4.1-.39,21.12,1.55,30.8.57,18.64-1.87,33.59-7,41.67-7.7,8.25-.69,20,.63,30.07-1.62,6.2-1.38,11-6.64,16.22-7,8.52-.61,26.7,5.94,37.4,7,12,1.23,16.59-3,26.44-3.54,10.94-.61,22.25,2.29,31.16,0,3.91-1,4.81.7,8.4-1.26,1.62-.89,6.32-5.87,7.54-7,4.17,1.09,6.68-1.77,10.78-1.92,2.47-.1,4.31-1.49,6.79-1.58s6-2,8.52-2.12,3.8,1.7,6.26,1.62c3.22-.1,8.62.53,11.85.43,2.45-.07,2.72-.85,5.17-.92,3.22-.08,2.29-.92,5.52-1,1.72,0,7.61.68,9.33.64,1,0,2.84.61,3.81.59,1.68,0,2.47-.73,4.16-.76,1.54,0,2.26-1.41,3.81-1.43,1.17,0,3.17,1.3,4.34,1.28s3.87.79,5.08.77c1.41,0,1.38-.88,2.8-.9S744,.51,745.54.49c1,0,3.81.65,4.8.64,1.63,0,2,1,3.63,1,1.44,0,4.16-1.09,5.6-1.11S762.66,0,764.11-.06s2.71,1,4.17,1c2.77,0,8,.65,10.77.63,5.78,0,6.07-.66,11.88-.66,2,0,7.29,2.16,9.05,2,2.29-.17,4-2.73,6-3,4.29-.5,8-.94,11.52-.43,6.79,1,13.25-1.33,23-1.24,1.87,0,17.15,5.08,19,5.1,3.69,0,7.19-2.21,10.86-2.15,4.48.07,8.95,2.06,13.41,2.15,2.26,0,4.52-1.83,6.77-1.77,3.66.08,5,1.67,8.63,1.77,2.29.06,7-1.37,9.27-1.31,2.93.09,4.86-2.75,7.82-2.65,3.18.11,8.31,5.21,11.53,5.33,5.26.2,9.65-1.62,15-1.37,2.72.12,12.91,3.37,15.62,3.5,2,.1,2.72-2,4.71-1.91,2.36.12,4.9,2,7.25,2.11,2.9.15,4.71-1.5,7.6-1.34,3.63.19,6.59,2.16,10.19,2.37,4.35.25,5.2-1.91,9.51-1.64,3.46.21,18.3,3.27,21.74,3.49,4.36.28,4.35-1.48,8.68-1.19,7.45.51,8.6,2.91,16,3.45,9.69.72,25.57-.4,35.1.39q10.95.9,21.76,1.86c365.61,32.41,499,81.66,499,81.66V217.33H0Z" transform="translate(0 1.67)"/></svg>